<svg xmlns="http://www.w3.org/2000/svg" viewBox="0 0 85.72 121.4"><defs><style>.cls-1{fill:#bfbfbf;fill-rule:evenodd;}</style></defs><title>adana</title><g id="Layer_2" data-name="Layer 2"><g id="map"><path class="cls-1" d="M61.13,100.05a27.87,27.87,0,0,1-2.39,2.27c-2.17,1.79-1.87,3.51-4.34,4.11s-5.61.15-7.18.3a6.85,6.85,0,0,0-4.63,2.84c-1.27,1.72-1.57,3.36-.75,2.92s1.42-3.36,3.22-1.86-1.42,2-1.12,3.44,1.87,1.34.53,2.84a7.32,7.32,0,0,1-6.13,1.8c-1.94-.38-4.41-1.42-6.36.45s-1.72,2.69-3.29,2-13.16-8.74-16.75-10.24c-2.37-1-3.57-1.59-4.54-1.88a10,10,0,0,1,.72-.7,3.46,3.46,0,0,1,2.19-1.11,6.71,6.71,0,0,0,3.53-.77h0a12.44,12.44,0,0,1,1.53-.59,6.68,6.68,0,0,1,1.68-.19c1.22,0,2.22-.06,2.79-1.39.42-1-.65-2.37-1.9-4h0c-1.39-1.78-3-3.88-2.7-5.39a24.46,24.46,0,0,1,.84-2.8c.76-2.22,1.4-4.07-.15-4.91A3.61,3.61,0,0,0,13,86.9a8.73,8.73,0,0,1-1.9.23,11.87,11.87,0,0,0-2,.2,3.18,3.18,0,0,1-.76.09c-.12,0,.19,0,.21-.06a6.67,6.67,0,0,0-.31-2.48c-.41-1.78-.95-4.14,0-5.72C8.6,78.54,9,78,9.3,77.51c1.3-1.91,2.17-3.18,1-4.55-.64-.72-1.85-.68-3.29-.61-1.9.08-4.28.17-5.65-1.6a3.65,3.65,0,0,1-.79-3.19c.13-.9.23-1.62-.52-2.23,1.52-1,5.33-3.82,6.28-6.78.84-2.64-.28-5.06-1.1-6.83a6.94,6.94,0,0,1-.63-1.65c-.08-.78.37-1.2,1.06-1.86.35-.34.76-.72,1.2-1.23.62-.72,2.44-.69,4.4-.64a16.11,16.11,0,0,0,4.92-.38A20,20,0,0,0,21,43.5c1.48-1,2.57-2.11,2.65-2.87a20,20,0,0,1,8.62.13,13.05,13.05,0,0,1,4.16,2c1.5,1,2.64,1.71,4.06,1.05a5.59,5.59,0,0,0,2.57-3,12,12,0,0,0,.9-4.86,5.1,5.1,0,0,0-1-2.9,2,2,0,0,1-.12-2.5c.41-.74.7-1.33.93-1.8.53-1.1.72-1.49,1.55-1.57a4.93,4.93,0,0,1,1.2.08,3.71,3.71,0,0,0,3.43-.86,13.44,13.44,0,0,0,1.46-1.28,7.14,7.14,0,0,1,2.34-1.58,22.58,22.58,0,0,1,3.05-1.15c1.8-.58,3.48-1.12,4.32-2.23a29.41,29.41,0,0,0,2-2.84,18.78,18.78,0,0,0,1.82-4A19.55,19.55,0,0,1,67.13,9a49.35,49.35,0,0,1,4.17-5.46,17.88,17.88,0,0,1,2.51-2.1A12,12,0,0,1,76.23,0c.42-.14.9.18,1.64.68A17.49,17.49,0,0,0,80.15,2a4.77,4.77,0,0,0,2,.55c.23,0,.28,0,.93,1.1a39.9,39.9,0,0,1,2.67,6.9,5.64,5.64,0,0,0-1.39,2.9c-.2.7-.44,1.58-.85,2.69a13.73,13.73,0,0,0-.8,6.54c0,.64.08,1.34.09,2.12,0,1.84-.2,2.12-.57,2.55a6,6,0,0,0-1.27,2.26c-.72,2.08-.15,2.64.51,3.3a2.11,2.11,0,0,1,.73,1.41h0v.17h0a4.94,4.94,0,0,1-1.07,3,3.53,3.53,0,0,1-2,1.54H79c-1.31.06-1.5.33-2,1a6.32,6.32,0,0,1-.94,1.1,1.88,1.88,0,0,1-2,.62,10.68,10.68,0,0,0-1.58-.18,13.58,13.58,0,0,0-3.06.17,7.16,7.16,0,0,0-2.81,1.2,12.54,12.54,0,0,0-2.73,3.7A43.22,43.22,0,0,0,61,52.85c-.45,1.42-.37,1.66-.13,2.31A7.17,7.17,0,0,1,61.29,57c.13,1.22,0,1.26-.23,1.32h0a2.15,2.15,0,0,0-1.39.91,2.74,2.74,0,0,0-.57,2.25A9.45,9.45,0,0,1,59,64c-.21,1.33-.56,1.49-.88,1.64A1.83,1.83,0,0,0,56.94,67,3.15,3.15,0,0,0,57,69.52a18,18,0,0,1,.65,2.29,4.82,4.82,0,0,1-1.2,4,4.09,4.09,0,0,0-.9,1.8c-.1.87-.05,1.43.49,1.88a4.57,4.57,0,0,0,2.58.61c1.65.1,3.09-1.18,4.15-2.13.28-.25.53-.46.72-.61.13.64.27,2.23.39,4.08.24,3.55.38,8,.34,8.76,0,.41-1.25,1.6-2.5,2.83-1.63,1.59-3.31,3.24-3,4.24a7.2,7.2,0,0,0,2.4,2.79Z"/></g></g></svg>