<svg xmlns="http://www.w3.org/2000/svg" viewBox="0 0 95.96 53.67"><defs><style>.cls-1{fill:#bfbfbf;fill-rule:evenodd;}</style></defs><title>adiyaman</title><g id="Layer_2" data-name="Layer 2"><g id="map"><path class="cls-1" d="M13.32,21a47.4,47.4,0,0,1-2.09,4.89c-.79,1.47-2.25,2.1-4,2.85-.61.26-1.26.55-1.94.89a17.16,17.16,0,0,0-3.17,2A6.12,6.12,0,0,0,.2,34.37C-.48,36.3.68,38,1.86,39.84c.22.32.43.64.61.92h0C3.4,42.24,4.55,42.11,6,42c.43,0,.89-.1,1.39-.11,2.09-.07,2.13.08,2.53,1.44a12.51,12.51,0,0,0,.48,1.37,3.93,3.93,0,0,0,1.45,1.9,5.79,5.79,0,0,1,1.12,1.06l.18-.17A7.73,7.73,0,0,1,16,45.94c1.77-.61,2-.42,2.84.24a7.84,7.84,0,0,0,1.27.85,10.28,10.28,0,0,0,3.26,1,24.21,24.21,0,0,0,3.8.24,5.76,5.76,0,0,1,3.24.77,4.41,4.41,0,0,1,1.43,1.6c.49,0,.75.32,1.06.74a1.43,1.43,0,0,0,1.43.7,3.89,3.89,0,0,0,1.63-.54,2.68,2.68,0,0,1,3.18,0,2.66,2.66,0,0,1,1.46,1.94h0c0,.07,0,.08,0,.1h0c.13.19,0-.33.47-.68h0a3.5,3.5,0,0,0,1.33-1.78,3.22,3.22,0,0,1,3.1-2.35,24.24,24.24,0,0,1,3.49-.12c2.27,0,4.62.07,6.78-1.15.84-.47,1.44-.8,2-1.09a17,17,0,0,0,5.63-4.18,9.58,9.58,0,0,1,5.06-2.76,10.62,10.62,0,0,0,4-1.79c1.37-1.1,1.53-1.51,1.65-1.84.19-.49.33-.87,1.84-1.79a5.74,5.74,0,0,1,2.71-.89c.72-.07,1.18-.12,1.85-1.69a4.5,4.5,0,0,0,.45-2.76,8.47,8.47,0,0,1,.51-4.15c.38-1.18.58-2,.74-2.66.42-1.74.59-2.42,2.79-5.29a23.79,23.79,0,0,0,1.88-2.82c.87-1.5,1.07-1.84,3.42-2.18.41-.06.84-.11,1.27-.14l-.06-.06a6.09,6.09,0,0,1,.93-.78,4.1,4.1,0,0,0,1.79-2.21,12.63,12.63,0,0,1,.77-1.86c.68-1.43,1.44-3,.77-4.39h0l-.38-.77C94.7.18,94.59,0,93.47,0c-.72,0-1.26.73-1.77,1.39A3.92,3.92,0,0,1,90,2.89a1.88,1.88,0,0,1-.5.11c-.2.25-.4.55-.62.87A10.85,10.85,0,0,1,84.59,8c-1.27.63-2.7,1.29-4.09,1.93-1.9.87-3.72,1.7-4.93,2.39h0a5.09,5.09,0,0,0-1.45,1.39,3.4,3.4,0,0,1-.74.78c-.67.44-1.26.27-2.15-1.07a12.34,12.34,0,0,1-1.12-2.21,3.53,3.53,0,0,0-2.41-2.5c-.94-.33-1.8-.56-2.62-.78a17.06,17.06,0,0,1-4.73-1.81c-.76-.45-1.68-1.08-2.66-1.77C55.35,2.68,52.58.77,50.87.62c-1.38-.12-2.41.64-3.77,1.64a23.15,23.15,0,0,1-3.56,2.27,31.35,31.35,0,0,1-5.12,2h0a18.2,18.2,0,0,0-2.22.81.37.37,0,0,0-.2.58,8.15,8.15,0,0,0,.75,1.15h0a8.17,8.17,0,0,1,1.56,3,14.07,14.07,0,0,0,.43,1.53h0c.52,1.59.76,2.34-1.18,3.28l-1.14.57h0a67.78,67.78,0,0,1-8.71,3.72,17.7,17.7,0,0,0-3.11,1.38c-1.48.82-1.88,1-4.89,0a19,19,0,0,0-4-.92A9,9,0,0,1,13.32,21Z"/></g></g></svg>