<svg xmlns="http://www.w3.org/2000/svg" viewBox="0 0 109.66 96.31"><defs><style>.cls-1{fill:#bfbfbf;fill-rule:evenodd;}</style></defs><title>afyonkarahisar</title><g id="Layer_2" data-name="Layer 2"><g id="map"><path class="cls-1" d="M17.4,96.23A8.26,8.26,0,0,1,18.87,95a6,6,0,0,0,2.4-2.78c.2-.47.38-.94.56-1.41.9-2.32,1.68-4.34,4.42-6.24a13.86,13.86,0,0,1,3.88-1.85,9.48,9.48,0,0,0,3.63-1.93h0a11,11,0,0,0,2.65-4.05,8.89,8.89,0,0,1,2.22-3.43c2-1.62,7.06-3.4,9.78-4.36h0l.41-.14a41.69,41.69,0,0,0,6.75-3.73A29.69,29.69,0,0,0,60.86,61a5,5,0,0,1,2.72-1.84,6.21,6.21,0,0,0,2.84-1.78A5.25,5.25,0,0,0,68,54.93c.35-1,.56-1.65,3.24-2.51l2.42-.79c2.28-.76,3-1,4-.87s1,.73,1.07,1.52h0a2.32,2.32,0,0,0,1,1.86,18.45,18.45,0,0,0,5,1.83c.76-1,2.24-1.68,3.91-2.45a30.86,30.86,0,0,0,3-1.52h0c3.33-2,4.08-2.45,6.83-4.38A21.18,21.18,0,0,1,101.11,46c1.25-.64,2.08-1.07,2.16-2,0-.54-.84-1-1.79-1.48-1.31-.68-2.73-1.4-2.92-2.89-.27-2.06.71-2.56,2.09-3.28a10.82,10.82,0,0,0,1.43-.84,8.79,8.79,0,0,0,2.21-3.46,10.4,10.4,0,0,0,1-4.32,2.81,2.81,0,0,0-.74-1.23,4.55,4.55,0,0,1-.52-.68h0c-.41-.72-.37-1.38.94-2.13h0a6,6,0,0,1,3.26-.58h0c.76,0,1.35,0,1.4-.35s-.9-.57-1.95-.91c-1.82-.6-3.88-1.28-3.66-3.19.09-.75.25-1.63.41-2.5.36-2,.72-3.92.35-4.1h0a16,16,0,0,0-2.24-.45c-3.18-.54-8.34-1.43-9.82-3.5A19.19,19.19,0,0,1,91,4.61h0C90.06,2.44,89.14.26,87.66,0h0c-1.33-.21-4.29,1.19-7.13,2.54C78,3.74,75.61,4.89,74.17,5a10.88,10.88,0,0,1-3-.27,2.41,2.41,0,0,0-2,.12A3.79,3.79,0,0,0,68,6.39a3.51,3.51,0,0,1-1.86,2,14.4,14.4,0,0,1-3.31.56,12.92,12.92,0,0,1-3.28-.09C58.74,8.66,58.36,8,58,7.37h0c-.34-.57-.7-1.16-1.33-1a6.69,6.69,0,0,0-1.84.93c-1.1.7-2.13,1.36-3.31.83a3.82,3.82,0,0,1-1.7-2A4.14,4.14,0,0,0,48,4.09c-1.42-.66-2.5-1.1-3.06-1.32-.68,1-2.59,3.56-4.3,4.28a13.76,13.76,0,0,1-2.25.65h0C37,8,35.72,8.31,35.47,9.09A26.9,26.9,0,0,0,34.94,12c-.42,2.71-1,6.3-2,7.76a29.77,29.77,0,0,1-5.14,4.84c-.73.6-1.45,1.18-2.12,1.77s-1.18,1-1.72,1.45a29.6,29.6,0,0,0-4.17,4,15,15,0,0,0-1.34,1.82c-.63,1-.84,1.32-2.85,2.08a5.87,5.87,0,0,1-2.37.4h-.29c-.12,0,.15.21.32,1.38a17.92,17.92,0,0,0,.49,2.29c.4,1.5.6,2.23-.61,3.68a13.19,13.19,0,0,1-2.07,2,25.25,25.25,0,0,0-2.52,2.29L8,48.26a30.13,30.13,0,0,1,5,2.68c2.11,1.37,3.9,2.83,4.22,3.52a6.69,6.69,0,0,1,.51,2.48,24.21,24.21,0,0,1-.16,3.64c-.14,1.31,1.15,2.66,2.34,3.91s2.16,2.27,2.16,3.43c0,1.73-.25,1.85-1.54,2.44a16.35,16.35,0,0,0-2.31,1.25A21.71,21.71,0,0,0,14,75.24h0a26.6,26.6,0,0,1-2.25,2.17c-1.47,1.22-2,1.14-2.78,1a3.25,3.25,0,0,0-1.6.12,9.77,9.77,0,0,0-3.46,2.08c-.55.45-1.14.92-1.87,1.43-1.24.86-1.13,1.28-.95,2a7,7,0,0,1,.26,1.56A3.35,3.35,0,0,1,.61,88,2.77,2.77,0,0,0,0,89.7c0,.95,1,1.29,2.22,1.72a13.11,13.11,0,0,1,2.6,1.12,5.88,5.88,0,0,1,3,3.54l.09.24a18,18,0,0,1,2.91-.43,28,28,0,0,0,2.91-.33,5,5,0,0,1,2.58,0,2,2,0,0,1,1.05.64Z"/></g></g></svg>