<svg xmlns="http://www.w3.org/2000/svg" viewBox="0 0 111.8 73.5"><defs><style>.cls-1{fill:#bfbfbf;fill-rule:evenodd;}</style></defs><title>agri</title><g id="Layer_2" data-name="Layer 2"><g id="map"><path class="cls-1" d="M111.12,15.12c.1,1.13,1.28,1.9.3,3.72s-2.54,2.54-2.54,4.26,2.73,2.28,2,4.22-1.2,1.65-1,3.29.45,3.22-2.17,4.34-2.09,2.92-4.19,1.72S101.21,34,100,34.73s-2,3.74-4.19,2.32-2.17-3-3.22-1.35c-.73,1.15-1.72,1.68-1.81,2.32a7,7,0,0,0-1.63.73,7.52,7.52,0,0,1-3.91.71,8.12,8.12,0,0,0-3.84.62c-2,1-2.59,2.78-3.21,4.73h0c-.18.56-.36,1.15-.58,1.7s-.44,1.31-.62,1.93c-.44,1.54-.8,2.81-2,2.65-.64-.09-1-1.17-1.31-2.32-.55-1.85-1.14-3.82-3.36-3.66a9.26,9.26,0,0,0-2.51.52c-.76.25-1.08.36-2.3-.81a20.77,20.77,0,0,1-1.86-2.16c-1.27-1.62-2.34-3-4.1-2.86a5.73,5.73,0,0,0-3.69,1.44c-.38.26-.83.58-1.44,1a15,15,0,0,1-4.54,1.63A9.8,9.8,0,0,0,46.65,45a3,3,0,0,0-1.41,2.06,3.82,3.82,0,0,0,1,2.62c.31.42.61.76.88,1.08.83,1,1.4,1.62.86,2.75a28.43,28.43,0,0,1-1.62,3h0a12.14,12.14,0,0,1-2.17,2.63A29.57,29.57,0,0,0,41,62.38l-.78.89h0a3.3,3.3,0,0,0-.81,1.82c-.08.44-.14.79-.93,1-1.57.43-1.64,1.51-1.7,2.77a4.56,4.56,0,0,1-.37,1.85,3.26,3.26,0,0,1-1.78,1.64,17.86,17.86,0,0,1-4.87.9c-.72.07-1.4.15-2.06.24a3.66,3.66,0,0,0-.82-.7,3.18,3.18,0,0,1-1.49-2.2A22.52,22.52,0,0,1,25,68.08a9.46,9.46,0,0,0-1-3.68,6.76,6.76,0,0,0-1-1.29c-.65-.72-1.21-1.34-1-3.53a19.49,19.49,0,0,1,.46-2.47c.45-1.9.71-3-1-4.52-1-.89-1.7-1.47-2.24-2a16.12,16.12,0,0,1-1.49-1.77,11.23,11.23,0,0,0-1.64-1.68,11.21,11.21,0,0,1-2.4-2.72,9.22,9.22,0,0,0-3.31-3A11.06,11.06,0,0,0,7.32,40.2C8.4,38.8,10.55,36,11.9,34a5,5,0,0,0,.22-4.9,14.23,14.23,0,0,0-4.34-5.24c-.88-.69-1.73-1.33-2.54-1.93C2.77,20.09.67,18.52.11,17.14c-.3-.74,0-1.43.92-2.17A23.83,23.83,0,0,1,6,12.18c2.34-1.09,3.94-2,5.3-2.76h0a31.33,31.33,0,0,1,3.5-1.79l-.09-.23a5.92,5.92,0,0,0,1.62.8c2.95,1,5.08.12,7.86-1a39.63,39.63,0,0,1,4-1.46,22.87,22.87,0,0,0,6.08-2.82A22.93,22.93,0,0,1,38.29.76a9.9,9.9,0,0,1,5-.69,15.4,15.4,0,0,0,3,0A10.06,10.06,0,0,0,48,2a9.42,9.42,0,0,0,3.16,1.54c.69.24,1.51.53,2.52.94h0l.73.3h0a5.43,5.43,0,0,1,1.09.49,1.58,1.58,0,0,1,.06.24A7.44,7.44,0,0,0,56,6.88a8.49,8.49,0,0,1,.32,2.72c.05,2.3.11,4.8,2.48,5.67,2.58.94,3.12-.5,3.69-2.05h0a4.34,4.34,0,0,1,.79-1.52c.5-.5.72-.32,1.22.1a10.59,10.59,0,0,0,1.93,1.35,13.47,13.47,0,0,0,2.86,1.26,30.26,30.26,0,0,0,4,.67,20.56,20.56,0,0,0,4.52.12,15.27,15.27,0,0,1,3.76.11,7.15,7.15,0,0,1,3.23,1.5,5.24,5.24,0,0,0,3.94,1.35,7.57,7.57,0,0,0,2.85-.76,5.65,5.65,0,0,1,2.5-.59,7.74,7.74,0,0,1,3.12.51,8.24,8.24,0,0,0,3.55.53,6.91,6.91,0,0,0,4-1.9,11.3,11.3,0,0,1,2.89-1.81c1.65-.66,2.24-.11,3.13.71h0l.31.28Z"/></g></g></svg>