<svg xmlns="http://www.w3.org/2000/svg" viewBox="0 0 77.47 54.67"><defs><style>.cls-1{fill:#bfbfbf;fill-rule:evenodd;}</style></defs><title>amasya</title><g id="Layer_2" data-name="Layer 2"><g id="map"><path class="cls-1" d="M22.44,54.67l.15-.25h0c.79-1.26,2.68-4.31,4.41-5.29a38.5,38.5,0,0,1,3.56-1.51c3.39-1.33,8-3.14,8.8-4.37h0c.6-.89,1.2-1.86,1.73-2.74.67-1.11,1.21-2.06,1.41-2.47h0c.46-.93,3.54-.59,6.25-.3.73.08,1.43.15,2.08.21a4.42,4.42,0,0,1,3,1.46,2.67,2.67,0,0,0,1.76.93,14.85,14.85,0,0,0,5.27-1.41c1.71-.73,3.18-1.58,3.44-2.21h0c.29-.7-.5-1.84-1.13-2.76s-1-1.52-.82-2.1h0a2.45,2.45,0,0,1,1.77-1.2,18.26,18.26,0,0,1,3.19-.5c2-.18,3.7,1.45,4.67,2.4.24.23,0,.57.17.49h0l.27-.09c.58-.18,2-.65,2-1.45s-1.14-2.73-2-4.27c-.45-.79-.86-1.49-1.07-2a3.09,3.09,0,0,1-.11-2.11h0A6.31,6.31,0,0,1,72.49,21c.54-.65,1.59-.59,2.7-.53.92.05,1.9.11,2.27-.26h0s-.12,0-.21-.09h0a14.72,14.72,0,0,0-2.6-1.68A11.18,11.18,0,0,1,72,16.6c-1.13-1.39-.88-1.59.38-2.63l.38-.32-.08-.07-.4-.33h0a6.24,6.24,0,0,0-1.11-.49c-1.27-.49-3-1.13-3.62-2.52s.26-2.26,1-2.94c.24-.21.46-.4.51-.46a13.12,13.12,0,0,0-3-.47,19.43,19.43,0,0,0-4.47,0h0l-.15,0c-.5.18-.54.43-.61.93a8.49,8.49,0,0,1-.55,2.19A12.36,12.36,0,0,1,58.06,13a13.9,13.9,0,0,0-1,1.33,3,3,0,0,1-2.43,1.34,11.77,11.77,0,0,1-3-.3c-1.17-.23-2.71-.54-4.17-.85-1.15-.25-2.28-.5-3.16-.71a47.9,47.9,0,0,0-5.05-.58c-1.78-.16-3.61-.32-4.93-.53h0c-2.26-.37-3-1.66-3.73-2.94a8.42,8.42,0,0,0-.8-1.22C29.27,8,28.35,8,27.41,8.07a5,5,0,0,1-2.84-.48c-1.08-.67-.95-1.64-.81-2.59.09-.61.17-1.23-.35-1.5-1.28-.66-2.71-.43-5,0l-1.48.24a7.14,7.14,0,0,0-3,1A3.19,3.19,0,0,1,12,5.28c-1.55,0-2-.81-2.76-2a13.53,13.53,0,0,0-.83-1.25,12,12,0,0,1-.69-1h0C7.25.28,7-.06,5.16,0A7.14,7.14,0,0,1,4,0a9.56,9.56,0,0,1-.36,1.68A8.77,8.77,0,0,0,3.3,5.34a5.33,5.33,0,0,0,.64,2.21c.49,1,.74,1.45-.57,3.59a6.8,6.8,0,0,1-2.18,2.14C.08,14.05-.66,14.57.86,18A18.86,18.86,0,0,1,2.24,23c.07.44.14.83.22,1.16.25,1,.8,1.23,3.28.6a31.75,31.75,0,0,1,6.4-1.15,6.73,6.73,0,0,1,3.89.91c1.29.77,1,1.46.6,2.17a2.37,2.37,0,0,0-.14.31c-.08.25.11.54,1.67,1.05,1.18.39,2,.64,2.68.84h0a12.12,12.12,0,0,1,4.32,2,6.79,6.79,0,0,1,1.92,1.91A5.73,5.73,0,0,1,28,35.11a3.12,3.12,0,0,1-.39,2.15h0a2.19,2.19,0,0,1-.62.63h0l-.76.49c-1.42.9-3.18,2-3.4,3.53A6.25,6.25,0,0,1,21.15,45c-.49.58-.92,1.09-.92,1.48a2.56,2.56,0,0,0,.69,1.2c.69.87,1.41,1.77.82,3a10.22,10.22,0,0,1-1.51,2.1A5,5,0,0,0,19.3,54l1,.13h0a6.29,6.29,0,0,1,2.11.5Z"/></g></g></svg>