<svg xmlns="http://www.w3.org/2000/svg" viewBox="0 0 152.5 135.92"><defs><style>.cls-1{fill:#bfbfbf;fill-rule:evenodd;}</style></defs><title>ankara</title><g id="Layer_2" data-name="Layer 2"><g id="map"><path class="cls-1" d="M46.87,100.8a6.44,6.44,0,0,0,1,.5c.93.38,1.43.58,2.72,2.94a13.41,13.41,0,0,1,1.21,3.67c.41,1.86.77,3.48,2.86,4.06s5-.68,7.46-1.75a13.15,13.15,0,0,1,4.35-1.41c1.18,0,2.42,1,3.86,2.1,2,1.59,4.48,3.51,7.24,2.93a22.78,22.78,0,0,0,5.85-2.39,55.89,55.89,0,0,0,7.22-4.83,15.42,15.42,0,0,1,2.78-1.75,20.23,20.23,0,0,0,2.47-1.48,4.89,4.89,0,0,0,2-2.77,16.44,16.44,0,0,1,.84-2c.69-1.34,1.39-1.32,2.16-.92a5.08,5.08,0,0,1,.54.33h0c.47.31,1,.67,1.62.3a2.85,2.85,0,0,0,1.14-1.75c.33-1,.61-1.9,2.16-1.84,1.27,0,2.39,1.13,4,2.64a32.16,32.16,0,0,0,5.85,4.73,14.27,14.27,0,0,0,5.24,1.91h0c2,.38,3.42.65,4.9,3.3a18.46,18.46,0,0,1,2.37,5.77,15.65,15.65,0,0,1-.45,6.6,27.93,27.93,0,0,1-1.49,4.57c-.46,1.12-.65,1.58-.2,2.44h0a18.13,18.13,0,0,0,1.12,1.72c1.34,1.93,3.17,4.59,3.49,7.48a9.33,9.33,0,0,1,4.35-1.21c.62-.07,1.39-.16,2.28-.28a14.42,14.42,0,0,0,4.35-1,3.62,3.62,0,0,0,1.63-2.2,14.75,14.75,0,0,0,.63-2,13,13,0,0,1,1.26-3.23c1.44-2.9,1.44-3,1.51-4.65h0c0-.92-.73-1.6-1.46-2.25a6.9,6.9,0,0,1-1.2-1.25,2.27,2.27,0,0,1-.26-2.33,5.92,5.92,0,0,1,1.87-2.12,24.26,24.26,0,0,1,2.85-1.75c1.6-.9,3.23-1.82,3.39-2.34h0a2.61,2.61,0,0,0,.15-.86.36.36,0,0,0,0-.2h0l-.09,0a1.36,1.36,0,0,0-.55.11l-.15,0-.15,0a5.2,5.2,0,0,0-1.69,0,3.31,3.31,0,0,1-2.26-.21h0a3.23,3.23,0,0,1-1.18-1.34c-.29-.49-.58-1-1.15-1.13a5.27,5.27,0,0,1-2.3-1.93,7.94,7.94,0,0,0-2.36-2.15,6.38,6.38,0,0,0-2.09-.49c-1.37-.15-2.56-.29-3.2-1.91a3.45,3.45,0,0,1-.12-2.35c.12-.51.22-.93-.57-1.72A5.2,5.2,0,0,0,132.74,94c-1-.42-1.7-.7-1.75-2.29a7.68,7.68,0,0,0-.55-2.65h0a17.85,17.85,0,0,0-1.49-2.79h0a4.88,4.88,0,0,1-.37-3.81,4.86,4.86,0,0,0,0-2.84h0a5.94,5.94,0,0,0-2.35-2.88c-.43-.33-.93-.73-1.54-1.25A14.83,14.83,0,0,0,122.47,74c-.37-.22-.71-.42-1-.61h0c-1.26-.84-1.93-1.69-1-3.14h0c.33-.49.71-1,1.09-1.45a8.07,8.07,0,0,0,2.29-5.16,16.65,16.65,0,0,0-.2-2.82,4.85,4.85,0,0,1,.68-4.06,6.71,6.71,0,0,1,1.31-1.47c.44-.38.67-.57.84-2.31a20.54,20.54,0,0,0,.07-2.45c0-1.68,0-2.63,1.35-3.12a1.76,1.76,0,0,1,1.84.38c.46.32,1,.7,2.51,0l1.28-.63h0c2.69-1.32,5.73-2.82,6.16-3.74h0c.06-.12,0-.18-.17-.27a2.7,2.7,0,0,1-1.41-2.57c0-.63-.11-1.32-.21-2-.29-2.17-.61-4.49.94-6.35a9.75,9.75,0,0,1,1.77-1.69,4.19,4.19,0,0,0,1.58-2.27c.71-1.74,1.08-2.88,1.26-3.47-2.51-.9-13.82-4.9-15.25-4.84H128c-1.4.06-2.65.11-2.82,1.65,0,.32-.06.56-.08.78-.18,2-.32,3.49-2.18,3.31-.95-.1-1.71-.87-2.58-1.77a9.22,9.22,0,0,0-2.75-2.17c-1.46-.64-2.28-3-3.05-5.19-.63-1.8-1.23-3.5-1.88-3.68a4.69,4.69,0,0,0-2,.08c-1.32.24-2.5.46-3.33-1a4.29,4.29,0,0,0-1-1.14h0c-.91-.81-1.35-1.2.14-3a7.54,7.54,0,0,1,2.42-1.85c.29-.15.48-.23.5-.25h0c.07-.17-.22.19-.54.06-.74-.32-1.89-.71-3.18-1.15A39.22,39.22,0,0,1,98.2,1.48,14.13,14.13,0,0,0,93.07.33a88.09,88.09,0,0,0-10-.3l-.58,0a12.41,12.41,0,0,0-3,.32c-.63.19-1.06.52-.88,1.11a3.36,3.36,0,0,0,1.22,1.73A3.35,3.35,0,0,1,81.31,5.6h0c.3,2.14-.85,2.58-2.34,3.15-.34.13-.7.27-1,.43a33.71,33.71,0,0,0-3.21,1.93c-1.69,1.1-3.48,2.35-4.47,3.1a11.3,11.3,0,0,1-4,1.76c-.72.21-1.54.45-2.48.79A14.3,14.3,0,0,0,59.26,20a14.6,14.6,0,0,1-2.53,2.08c-1.1.62-3.21.54-5.38.46a16,16,0,0,0-4.95.25,19.67,19.67,0,0,0-2.63,1.28A11.08,11.08,0,0,1,39,25.83a21.94,21.94,0,0,1-4.34-.23,5.42,5.42,0,0,1-3.71-1.95h0a2.88,2.88,0,0,1-.44-2.44c0-.24.07-.39-.6-.5-.91-.15-2.11.6-3.23,1.3h0c-1.38.87-2.67,1.67-3.74,1a21.19,21.19,0,0,1-1.83-1.37c-1.6-1.28-3.66-2.9-4.91-2.92a2.32,2.32,0,0,0-1.83.81,3.66,3.66,0,0,0-.85,2.3c0,.16,0,.33,0,.5h0c0,2,0,4.7-3.25,5.85-1.29.46-2.47.81-3.51,1.12a22,22,0,0,0-3.67,1.31A11,11,0,0,0,.82,32.38c-.3.27-.56.52-.82.71A38.65,38.65,0,0,0,1.38,37h0A2.91,2.91,0,0,0,2.76,38.5a5.09,5.09,0,0,0,2.7.33A7.26,7.26,0,0,0,8.19,38a7,7,0,0,1,2.4-.76,12.47,12.47,0,0,1,2.45,0,20.88,20.88,0,0,0,3.41,0,10.27,10.27,0,0,1,4.65.43c.61.17,1.39.38,2.47.63,2,.47,2.47.28,2.88.1s1-.42,2.61.06a13.35,13.35,0,0,1,2.8,1.12h0a9.05,9.05,0,0,0,2.12.82,8.66,8.66,0,0,0,3.44-.09,8.69,8.69,0,0,1,4.54.11,3.57,3.57,0,0,1,2.37,2.79A2.12,2.12,0,0,0,45,44.52c1.3.82,1.28,1.28,1.2,2.68,0,.45-.06,1,0,1.74,0,1.4,1.6,1.68,2.9,1.91A5.5,5.5,0,0,1,51,51.4c1.1.69,1.24,1.3,1.56,2.82.1.45.22,1,.37,1.6.46,1.8-.86,2.65-2.24,3.53-.92.59-1.88,1.19-2,2.08-.18,1.19.84,1.83,2.07,2.6a12.48,12.48,0,0,1,2.64,2C55,67.82,55,68.33,55.08,69.46a10.07,10.07,0,0,0,.13,1.36c.08.48.13.87.17,1.2h0a8.46,8.46,0,0,0,1.12,3.29c1.16,2.45,1.15,2.48.53,4.44-.11.33-.23.73-.38,1.23a7.54,7.54,0,0,0-.16,4.56c.1.51.22,1.09.33,1.78a2.94,2.94,0,0,0,1.83,2.23c.86.47,1.58.87,1.53,2a3.85,3.85,0,0,1-1.33,2.56A5.19,5.19,0,0,1,56,95.5c-1.3.13-1.3.13-3.09,1.93h0a5.66,5.66,0,0,1-2.83,1.63,7.36,7.36,0,0,0-2.62,1.27c-.23.17-.43.32-.61.47Z"/></g></g></svg>