<svg xmlns="http://www.w3.org/2000/svg" viewBox="0 0 176.93 89.94"><defs><style>.cls-1{fill:#bfbfbf;fill-rule:evenodd;}</style></defs><title>antalya</title><g id="Layer_2" data-name="Layer 2"><g id="map"><path class="cls-1" d="M174.18,89.94c-3-.57-3.46.22-5.77-2.45s-3.36-1.42-4-3.44-2.17-2.84-3.59-3.82-.52-2.39-1.35-4-3.22-1.72-3.74-4.56-1.61-3.4-4.15-6.77-3.14-5.31-6.58-6.28-3.89-.45-4.93-1.27-.82-1.2-2.47-1.65-1.49.82-3.59-1.34-1-2.32-4.19-3-7.1-4.41-9-5.38-3.36-.07-5.23-1.57-1.87-2.54-3.51-3.66-1.95-2.24-7.63-2.09-4.93-.3-7.78-1.64-6.13-.45-9.27-.45-4.78,1.34-6-.45-.75-3.74-3.14-3.14-6.13,2.09-6.73,4.19-2.24,4.49-1.65,7S69,48,68.42,49.77s2.09,1.95,1.79,4-.3,3.14-2.24,3.89-2.24,3.44-3.14,4.93-2.09,1.65-1.49,3.44,2.24,1.5,2.09,3.59-2.54.3-2.84,2.09-.49,4.15-2.65,5.35,1.34-3.22-.67-3.81-3.66.52-4.63-.75-.22-2.91-3.44-2.32-4.34.07-5.24,1.12.15,4.19-1.87,3.81-.52-2.84-3.29-1.87-2.24,3.51-4.19,2.92-2.77-2.39-4-1.27.67,2.24-2.24,2.39-2.69-.37-3.59,1-.3,2.32-2,1.8-.6-2.25-2.09-1.57-1.72,3-2.69,1.87,1-1.72-1.95-3.66-2.8-.79-3,.11,1,2.84-.37,2.54,0-3.89-1.87-3.59-.67,2.54-2,2.09-.37-1.79-1.42-3.21-1.12-3.51-3.51-3.59-1.27,3.14-3.29,1.57c-1.84-1.43-.2-2.11-2.55-3.8,1.36-.76,2.42-1.49,2.21-3a3.51,3.51,0,0,1,.31-2.55c.08-.16.17-.33.25-.52a2.18,2.18,0,0,0,0-1.45h0A2.35,2.35,0,0,1,3,59.46c.46-.84,1.67-1.34,3.27-2a32.05,32.05,0,0,0,3.61-1.67,22.65,22.65,0,0,0,4.74-3.59,67.84,67.84,0,0,0,4.61-5.06A11.33,11.33,0,0,0,22,40.41a9.74,9.74,0,0,1,.5-2.35,11.57,11.57,0,0,1,1.55-2.76,16.71,16.71,0,0,0,1.57-2.58,3.72,3.72,0,0,1,1.24-1.5c.78-.6,1.21-.92.67-2.93a4.69,4.69,0,0,0-.47-1.11,6.05,6.05,0,0,0-.51-.73A21.93,21.93,0,0,0,30.17,25a3.27,3.27,0,0,0,2-2.47,5.55,5.55,0,0,0-.45-2.08c-.53-1.57-1.2-3.57.85-4.82a72.32,72.32,0,0,1,7-3.36,51.89,51.89,0,0,0,7.65-3.77h0l.81-.6c2.19-1.63,4.35-3.24,6.09-3.18,1.94.07,5.95,2.91,8.25,4.55l.19.13c2.08,1.48,5,1,7.66.57.57-.09,1.13-.19,1.63-.25,1.53-.2,3.09.57,4.56,1.29a11,11,0,0,0,3.38,1.25,6,6,0,0,0,3.66-.59,5.27,5.27,0,0,0,2.31-2.75,17.91,17.91,0,0,1,1.76-3.39,6.22,6.22,0,0,1,2-1.92A5.59,5.59,0,0,0,90,4.2h0a6,6,0,0,0,1.21,1h0l.48.3h0c2.16,1.39,2.61,1.67,4.51-.56h0l.49-.59C98,2.82,98.67,2,101.9,1.39a10.38,10.38,0,0,0,2.62-.9c1.3-.61,2.08-1,6.08.86a60.11,60.11,0,0,1,6.52,3.59c2.59,1.58,4.57,2.79,6.3,2.74a14.08,14.08,0,0,0,4.81-1.43,10.74,10.74,0,0,1,3.11-1,4.25,4.25,0,0,1,2.4.87,10.9,10.9,0,0,1,2.65,2.62h0c.43.61,1.16,2,2.06,3.7a70.08,70.08,0,0,0,5.85,9.82h0a50.51,50.51,0,0,0,4.7,5.32,22.79,22.79,0,0,0,5.58,4,39.55,39.55,0,0,0,3.91,1.68c1.51.58,2.38.91,2.79,1.73a1.31,1.31,0,0,1,0,1.07c-.27.9-.53,1.79,1.64,3.53a23.57,23.57,0,0,0,2.62,1.84,5.63,5.63,0,0,1,2.12,2,9.28,9.28,0,0,1,1.05,2.3c.32,1,.6,2.07.86,3.23.2.89.41,1.93.62,3h0c.17.85.34,1.71.49,2.39.48,2.26.93,2.64,1.31,3,.23.19.42.36.62,2.14a20.7,20.7,0,0,1-.57,6.61,14.76,14.76,0,0,0-.4,2.68c0,.39,0,.69,0,.95-.09,1.23-.12,1.54,1.58,2.6a4.93,4.93,0,0,0,1.1.54l.12,0h0a8.51,8.51,0,0,1,.49,1.2c.12.33.28.75.52,1.38.38,1,.61,1.55.76,1.92h0a6.08,6.08,0,0,1,.24.62,1.37,1.37,0,0,1,0,.3h0c0,.27,0,.71.1,1.61,0,.51.09.89.13,1.27a17.08,17.08,0,0,1,0,5.53c-.2,1-1.37,2.29-2.54,3.34Z"/></g></g></svg>