<svg xmlns="http://www.w3.org/2000/svg" viewBox="0 0 67.91 64.95"><defs><style>.cls-1{fill:#bfbfbf;fill-rule:evenodd;}</style></defs><title>artvin</title><g id="Layer_2" data-name="Layer 2"><g id="map"><path class="cls-1" d="M3.09,13.48c.9-.77,1.13-.77,3.15-1.18,2.62-.53,3.4-1.53,3.85-3.55S8.45,7.18,11.52,5.24,14.36,2,15.33,1.5s4,2.09,6.05,2.17S21.46,3.29,24,2.4s3.44,3.07,5.68,3.74S35.14.3,36.27.08s2.17,2.17,4.41,1.42,2.77-2,4.26-1.27,2.24,1.95,4.79,1.12,1-1.23,3.62,0,3.74.37,5.08.67S60,4.38,61.72,3.4a1.88,1.88,0,0,0,.65-.55,19.37,19.37,0,0,0,2.17,2.87,18,18,0,0,1,2.55,3.44,6.81,6.81,0,0,1,.82,3.29,6.72,6.72,0,0,1-1,3.41,28.68,28.68,0,0,1-2.64,3.56C62.92,21,61.31,24.56,60,27.48a36.17,36.17,0,0,1-2,4.08,13.84,13.84,0,0,0-1.62,3.54,16.57,16.57,0,0,0-.47,1.81,7.37,7.37,0,0,1-3.36,1.14A19.58,19.58,0,0,1,48.35,38a27.28,27.28,0,0,1-2.91-.48A17.77,17.77,0,0,0,41,37c-2.77.07-3.25.55-4.49,1.81h0l-.67.66h0a6,6,0,0,0-1.7,2.92,6.57,6.57,0,0,0,.13,3.48,8.78,8.78,0,0,1,.26,2.61h0A18.48,18.48,0,0,1,34.07,52a10.44,10.44,0,0,1-1.29,2.49h0a8,8,0,0,1-1.63,1.9c-.92.66-2,.58-3.92.43l-.92-.07h-.12c-2.69-.19-5.72-.4-7.25.28-1,.47-2.72,2.6-4.13,4.41-.73.94-1.39,1.78-1.83,2.21a4.68,4.68,0,0,1-1.61,1.17h0a2.45,2.45,0,0,1-1.7-.07C8.57,64.38,8.88,59,9,57.08l0-.41H9c0-.43.07-.77.11-1.08a4.07,4.07,0,0,0-.22-2.45c-.35-.9-2.4-1.89-4.49-2.9C2.58,49.37.73,48.48.31,47.87c-.69-1-.1-2.28.63-3.87.14-.31.3-.64.47-1a10,10,0,0,1,2.7-3.42c.38-.35.76-.7,1.08-1a2.66,2.66,0,0,0,1-1.92,4.27,4.27,0,0,1,.31-1.26c.49-1.24,2-2.06,3.69-3l1.15-.65c2-1.13,1.66-2.06,1.26-3.3a4.89,4.89,0,0,1-.3-1.52c0-1.7-.84-2.08-2.25-2.71A13.62,13.62,0,0,1,7.94,23c-2-1.35-2.15-2.67-2.32-4.34h0l-.05-.55h0a7,7,0,0,0-1.19-2.9,15.53,15.53,0,0,0-1.29-1.7Z"/></g></g></svg>