<svg xmlns="http://www.w3.org/2000/svg" viewBox="0 0 95.61 45.96"><defs><style>.cls-1{fill:#bfbfbf;fill-rule:evenodd;}</style></defs><title>aydin</title><g id="Layer_2" data-name="Layer 2"><g id="map"><path class="cls-1" d="M17.75,43.31a22.15,22.15,0,0,1-3.48,2.29c-1.64.52-.82-.6-2.76-.15s-3.14,1.2-3.44-.82,4.11-6.2,2.39-7.1-2.54.3-2.47-1.64S7.55,33.71,9,32s2.77-2.24,1.42-3.29S3.22,25,1.64,24.37s-2.17-.9-1.12-1.42,3.85,0,7.21-.56,4.86-1,5.76-3.29,1.79-3.07,1.12-4.49-2-.9-1.2-2.62a5.51,5.51,0,0,1,.8-1.21h0a4.54,4.54,0,0,0,4,1.65c1.63-.11,3.83-2.22,5.93-4.22,1.68-1.61,3.3-3.15,4.25-3.38A8,8,0,0,1,32.2,5,10.92,10.92,0,0,1,36,6.91c2,1.59,4.7,1.54,7.6,1.49l1.64,0c.86,0,1.54,0,2.15,0,2.22.07,3.69.12,5.32-.88,1.27-.78,4-.58,6.21-.42.86.06,1.67.12,2.32.12s1,0,1.51.07c2,.14,3.6.25,4.32-1.71.19-.52.36-1.12.53-1.73.45-1.6.92-3.28,2-3.79.6-.27,1.23.1,2,.53a5.32,5.32,0,0,0,3.8,1l1.54-.25C79,1,80.81.71,82.28,1.1l.64.17a9.52,9.52,0,0,1,5.28,3.09A33.55,33.55,0,0,0,92,7.52,9.88,9.88,0,0,1,94.67,10c.37.71-.72,1.37-1.76,2a13.2,13.2,0,0,0-1.23.81l-.11.08h0c-1.42,1.1-2.51,2-2.43,4.49a8.68,8.68,0,0,0,1.06,3.75,9.85,9.85,0,0,0,2.6,3.1A7.2,7.2,0,0,0,95,25.39c.42.15.63.22.55.66s-.45.58-.84.76A2.38,2.38,0,0,0,93,29,7.69,7.69,0,0,0,93,31c.07.47.1.71-.33.94a3.39,3.39,0,0,1-1.31.3,5.6,5.6,0,0,0-3.33,1.25,7.18,7.18,0,0,0-1.64,1.8,2.53,2.53,0,0,1-2,1.31,6.73,6.73,0,0,1-2.61-.17,6.57,6.57,0,0,0-1-.16c-.81,0-1.29.22-1.34,1.23s.43,1.34,1.09,1.71h0a3,3,0,0,1,1.55,1.93,5,5,0,0,1,.19.77l-.24-.09a4.5,4.5,0,0,0-3.73,0,2.28,2.28,0,0,0-1.62,2.3h0c0,.18,0,.33,0,.33s-.19-.29-1.12-1A7.69,7.69,0,0,1,73.16,40c-.6-1.45-1-2.41-3-2.16a3,3,0,0,0-2.55,1.58,1.62,1.62,0,0,1-.13.19s0-.14-.47-.52a3.21,3.21,0,0,1-1-1.54c-.37-1.07-.49-1.4-2.54-.49-.66.29-1.46.71-2.33,1.16-2.58,1.34-5.93,3.08-8.18,3l-2.17-.07a40.27,40.27,0,0,1-6.51-.59,16.09,16.09,0,0,0-3.56-.19,3.85,3.85,0,0,1-3.47-1.17c-.61-.57-1.06-1.07-1.46-1.52a6.6,6.6,0,0,0-5.06-2.74,10,10,0,0,1-4.07-1.18,9.65,9.65,0,0,0-1.5-.67h0c-1.52-.51-2.29.17-3.38,1.13a12.74,12.74,0,0,1-1.59,1.25c-2.18,1.4-2.34,1.85-2.73,2.94h0l0,.11c-.28.77.11,3.19.42,4.79Z"/></g></g></svg>