<svg xmlns="http://www.w3.org/2000/svg" viewBox="0 0 123.33 107.65"><defs><style>.cls-1{fill:#bfbfbf;fill-rule:evenodd;}</style></defs><title>balikesir</title><g id="Layer_2" data-name="Layer 2"><g id="map"><path class="cls-1" d="M6.92,93.16c-.32-.94-.3-1.8-.86-3.24-.9-2.32-4.41-2-5.24-3.14s1.12-2.47.82-3.29-2.77-1.87-1-3.07S3.37,78,3.67,78.78s-2.24,2.77-1,3.51,2.24,1.2,3.51.3,4.08-1,4.68-2.43-1.12-2.54.75-3,2.17.52,2.84-.67.75-1,2.39-1.72,2.09-.9,2-3.22.68-3.88-1.27-3.66-1.27,1.49-3,1.49S13.05,66.85,11,67.82s-2.09.75-4.93.75a21.7,21.7,0,0,0-3.37.23c0-.31.11-.63.19-1a19.53,19.53,0,0,1,1.75-4.34h0l.41-.79c1.44-2.79,1.73-3.36,4-3.24.46,0,1,.07,1.46.11,2.36.19,4.5.37,6.39-1.12A17.18,17.18,0,0,0,18.53,57c.86-.86,1.43-1.44,2.61-1.27a2.78,2.78,0,0,1,1.66.94A3.76,3.76,0,0,0,25.52,58a8.33,8.33,0,0,0,1.57,0c.63-.06.77-.08,2.28,1.25a11.77,11.77,0,0,1,1.69,1.91h0c1.16,1.54,2,2.66,4.52,1.94l.5-.14h0c3.1-.88,6.52-1.85,8.76-4.69.5-.64,1-1.28,1.58-1.89,1.78-2.07,3.35-3.91,3.48-6a29.23,29.23,0,0,0-.71-6.36c-.14-.72-.26-1.4-.34-2s-.11-.93-.14-1.25a9.17,9.17,0,0,0-.94-3.38,6.84,6.84,0,0,0-1.85-2.43h0c-.78-.73-1.4-1.33-.85-2.5.66-1.39,2.47-2.62,4.07-3.7a13.59,13.59,0,0,0,2.73-2.17A7.12,7.12,0,0,0,53,23.44a2,2,0,0,0,1.62-.14c1.34-.75.3-1.8,2.76-1.35s3.22,2.47,4.94,1.8,3.14.52,4.86-.53,1.27-2.69,3.51-2.91,3.44,2,5.08,1.57a36.88,36.88,0,0,1,7.74-1.6c.61,0,1.21-.11,1.81-.19,0,.24,0,.48-.05.72a4.1,4.1,0,0,1-.87,2.34,10.51,10.51,0,0,1-1.52,1.1c-1.62,1.06-3.56,2.33-3.43,4.12a6.94,6.94,0,0,0,1,2.88,4.23,4.23,0,0,1,.76,2.27A4.82,4.82,0,0,1,80.84,35h0c-.48,1.12-.92,2.13.28,3.57a9.49,9.49,0,0,1,1.21,2.14c.68,1.48,1.38,3,3.17,3.84,1.17.55,1,2.3.93,4a7.45,7.45,0,0,0,.3,3.67,6.42,6.42,0,0,1,.56,1.7,3.13,3.13,0,0,0,1.91,2.57,7.39,7.39,0,0,0,2.7.78c1.24.19,2.43.37,3.22,1.7A11.33,11.33,0,0,1,96,61.15c.58,1.69,1,3,3.49,3.47a15.79,15.79,0,0,0,5.5.13l1.23-.12a4.81,4.81,0,0,1,2.37.3,2.2,2.2,0,0,1,1.22,1.65v0h0c.48,2.22,1.42,6.61,4.31,7.29a9,9,0,0,0,4.41-.36,5.63,5.63,0,0,1,2.11-.31,3.23,3.23,0,0,1,1.13.53A4.51,4.51,0,0,1,123,74.93a1.61,1.61,0,0,1,.33,1.13.84.84,0,0,1-.14.32,2.16,2.16,0,0,1-1.26.66c-1.22.34-2.47.7-2.58,3.38a18.51,18.51,0,0,1-.74,4.42h0a16.75,16.75,0,0,1-1.72,4,11.12,11.12,0,0,1-3.35,3.11,9.71,9.71,0,0,1-4,1.56c-.87.09-1.89.09-2.87.09-2.61,0-5.07,0-5.15,1.68a5.68,5.68,0,0,0,1.33,3.09h0a6.88,6.88,0,0,1,1.29,2.6.62.62,0,0,1-.31.72,1.66,1.66,0,0,0-.89,1.69c-1.84,0-5.31.12-8.63.45a32.35,32.35,0,0,0-6.14,1.08,26.73,26.73,0,0,0-3.91,1.65c-1.45.72-2.54,1.25-3.85,1.09-1.09-.13-1.66-1-2.41-2.22a14.49,14.49,0,0,0-3-3.7,25,25,0,0,0-3-2.11c-1.67-1-2.88-1.79-3.05-3.56a20.13,20.13,0,0,1,.06-3c0-.75.1-1.5.1-2.17,0-2.09-.43-3.75-2.44-3.75a5.17,5.17,0,0,0-3.65,1.4,2.26,2.26,0,0,1-1.36.69c-.44,0-.77-.39-1.15-.84a4.14,4.14,0,0,0-3.53-1.82,5.69,5.69,0,0,0-2.75.61c-.47.22-.77.36-1.68-.16h0a18.81,18.81,0,0,1-2.79-2.28c-1.67-1.52-3.46-3.16-5-3.46-2.17-.42-4,2.2-4.68,3.28h0c-.26-.07-.78-.28-1.46-.56-2.17-.9-5.92-2.45-9.29-2.45-3.72,0-5.63,1-8.18,2.45-.54.3-1.1.61-1.65.9-1.64.86-4.45,2.66-7.16,4.5-2,1.34-3.91,2.72-5.29,3.77ZM67.52,10c-2.17-.67-3.51-1-4,.15s-1.2,2.24.45,3.74,1,2,2.47,3.59,1.49,1.35,2.77,1.2,1.64.45,3.06-.15,1.12-1.87,3.51-2.39,4-.3,3.51-1.87-4.63-1.5-6.06-3-4.18-.45-5.76-1.27Zm-10.92.22c-1,1.5-2.17,2.84-.37,3.74s3.14,3.07,3.66,1.27-.9-6.73-3.29-5ZM57.87,0a12.1,12.1,0,0,1,6.28,1.2c2.54,1.12,4.11,1.57,1.65,2.32s-4.34,1-5.91,1.87-4.11,1.12-4.49-.6-1.57-2.62-.75-3.59S57.87,0,57.87,0Z"/></g></g></svg>