<svg xmlns="http://www.w3.org/2000/svg" viewBox="0 0 70.17 70.13"><defs><style>.cls-1{fill:#bfbfbf;fill-rule:evenodd;}</style></defs><title>bingol</title><g id="Layer_2" data-name="Layer 2"><g id="map"><path class="cls-1" d="M24.07.22a18.72,18.72,0,0,1-2.9,1.41,14.53,14.53,0,0,0-3.5,2.32A21.1,21.1,0,0,0,14.33,7.4c-.5.7,0,1.12.38,1.5.12.11.25.22.36.34A1.24,1.24,0,0,1,15,11.3a6.75,6.75,0,0,1-2.59,1.46,6.84,6.84,0,0,0-2.15,1.11l-.75.63a5.74,5.74,0,0,1-3.89,1.81,6.36,6.36,0,0,1-2.09-.17c-.64-.14-1-.22-1.5.69a6.71,6.71,0,0,0-.72,2,5.31,5.31,0,0,1-.63,1.76l0,0C0,21.91-.23,22.25.34,23.78a17.86,17.86,0,0,1,.78,2.74,21.87,21.87,0,0,1,.33,2.25l.72-.27a43.53,43.53,0,0,0,7.41-4.29c.65-.43,1.22-.82,1.7-1.12s.94-.63,1.3-.89h0c1.29-.92,2-1.45,3.17-.76h0a4.63,4.63,0,0,0,.45.23h0c1.1.53,1.88.9,1.39,4.66a23.69,23.69,0,0,1-.89,4,10.65,10.65,0,0,0-.6,4,23.6,23.6,0,0,0,.42,3.4,14.19,14.19,0,0,1,.32,3.3h0a9.52,9.52,0,0,1-.28,2h0c-.11.5-.16.7.32,1,.25.16.68.38,1.18.64,1.89,1,4.6,2.34,4.07,4.18-.08.27-.14.51-.19.73h0c-.31,1.31-.41,1.72-3.12,3.41a9.72,9.72,0,0,0-3.22,3,14.21,14.21,0,0,1-1.23,1.5,5.93,5.93,0,0,1-1.9,1.31c-.51.25-.82.4-.66,1.09a2.16,2.16,0,0,0,1.24,1.56,15.23,15.23,0,0,1,2.34,1.82,10.38,10.38,0,0,1,2.35,2.89,4.68,4.68,0,0,1,.44,2.24c0,.68,0,1.32.06,1.78.43,0,.9-.07,1.38-.1,1.78-.11,3.8-.23,3.83-.85,0-.26-.23-.48-.45-.68a3.11,3.11,0,0,1-.4-.41h0c-.5-.63-.55-1.32,1-2.54a8.25,8.25,0,0,1,2.48-1.38c.61-.23.92-.35,1.13-1.36a1.78,1.78,0,0,0-.47-1.53h0a1.67,1.67,0,0,1-.37-.67h0c-.14-.64.25-1,1.88-1.38a3.16,3.16,0,0,1,3.49,1.13,2.63,2.63,0,0,0,2.08,1,9,9,0,0,0,3.63-1.18h0c1.55-.76,2.78-1.35,3.43-.18a3.49,3.49,0,0,1,.31,1.85,2.43,2.43,0,0,0,0,.69s.23,0,.91-.26c.85-.33,1.56-.69,2.24-1a16.53,16.53,0,0,1,5.44-1.86,11,11,0,0,0,5.79-3.09c.52-.45,1-.9,1.63-1.33h0l.74-.55a17.93,17.93,0,0,1,5.47-3.21,11.36,11.36,0,0,0-.76-1.9,9,9,0,0,1-1.1-3.91,4,4,0,0,1,.56-2.6A6.88,6.88,0,0,0,63,40a8.57,8.57,0,0,0,0-2.91c-.19-1.17-.3-1.82,1.09-3.31a6.31,6.31,0,0,1,3.25-1.73c1-.28,1.88-.53,2.23-1.58h0c.12-.34.22-.62.3-.87.5-1.38.67-1.84-1.61-2.69l-.38-.14c-3-1.13-3.67-1.36-5.13-3.67a24.37,24.37,0,0,1-1.91-4.36,20.27,20.27,0,0,0-1.78-4,16.71,16.71,0,0,0-1-1.35c-.69-.81-.82-1-.32-1.8a14.52,14.52,0,0,1,2.83-2.4,4.46,4.46,0,0,1-.82-1.07A9.64,9.64,0,0,1,59,6.66c-.43-1.15-.79-2.08-3.22-2.58-2.22-.45-6.67.61-10.7,1.58A61.86,61.86,0,0,1,39,6.93a9.91,9.91,0,0,1-4.79-.3,3,3,0,0,1-1.87-2,5.74,5.74,0,0,1,.11-2.89A7.78,7.78,0,0,1,33.17,0l-.29,0L31.14.17l-.93.07L28.67.39c-2,.2-3.47.36-4.5-.12h0l-.09,0Z"/></g></g></svg>