<svg xmlns="http://www.w3.org/2000/svg" viewBox="0 0 81.09 77.87"><defs><style>.cls-1{fill:#bfbfbf;fill-rule:evenodd;}</style></defs><title>bitlis</title><g id="Layer_2" data-name="Layer 2"><g id="map"><path class="cls-1" d="M53.65,16.71c-2.9,2.29-3.36,2-6.42,2.9s-5.35,2-4.89,4,3.51,2.6,3.36,4.43-3.09,0-3.38.84.75,1.72-.07,2.54-2.69.82-2.84,1.87-2.39.82-2.77,2.39.82,3.66,2.17,2.09,1.79-1.2,3.59-1.49,1.27-1.2,2.84-.45.37,2.54,2,1.94,2.09-2.84,3.59-2.24.22,1.72,1.79,1.57,2.32-1.57,3.44-.6-.67,2.62,1.34,2.84,1.74.15,3-.76a22.3,22.3,0,0,0,.27,2.24,12.66,12.66,0,0,1,0,3.55c-.15,1.52-.27,2.64.87,3.78.53.53.25,1.26,0,1.91-.46,1.15-.87,2.17.81,2.85.64.25,1.2.42,1.67.55h0c.3.09.55.16.73.23s.27.21.12.58-.93.36-1.67.38a5.18,5.18,0,0,0-1.51.18c-.72.25-1.08.76-.72,1.77a2.49,2.49,0,0,0,1.83,1.65c.58.21,1.13.41,1.13,1.9a2,2,0,0,1-.88,1.94c-.75.58-1.36,1-.58,3.18a17.62,17.62,0,0,0,1.13,2.53A3.54,3.54,0,0,1,64.15,70a21.38,21.38,0,0,1-.21,3.2,1.65,1.65,0,0,0-.8,1,1.52,1.52,0,0,1-1.11.94,2.55,2.55,0,0,0-1.74,2.19c-.09.38-.16.67-.76.5-.79-.24-.86-.82-.94-1.5a3.78,3.78,0,0,0-1.49-3c-.54-.41-1.09-.87-1.64-1.34h0a13.46,13.46,0,0,0-5-3.09A24.27,24.27,0,0,1,47,67.74a11.33,11.33,0,0,1-3.15-2.06c-.58-.54-1.33-1.33-2.14-2.19-2.12-2.24-4.7-5-6.45-5.49h0l-.39-.12h0c-2.14-.65-3.33-1-5.36.17a14.25,14.25,0,0,0-2.86,2.48,8.16,8.16,0,0,1-2.22,1.89c-.08,0-.12-.1-.16-.25a1.82,1.82,0,0,0-2.18-1.61,8.18,8.18,0,0,0-2,.42h0a2,2,0,0,1-2.31-.35h0a6,6,0,0,1-1-1c-.49-.65-.62-.82-2.48-1l-1-.12a5.85,5.85,0,0,1-2.74-.72c-.93-.49-2.13-1-2.75-1.23a6.11,6.11,0,0,0-.28-.81,3.5,3.5,0,0,0-1.08-1.6c-.19-.16-.3-.26-.38-1.51,0-.69,0-1.21-.06-1.64a5,5,0,0,0-.77-3.18,14.07,14.07,0,0,1-.91-4.08,20.18,20.18,0,0,0-.68-3.53,6,6,0,0,0-2.15-2.63,3.54,3.54,0,0,1-.94-.93A12.67,12.67,0,0,1,0,35a11.79,11.79,0,0,0,3.64-.31,21,21,0,0,0,2.76-.91A11.3,11.3,0,0,1,10.2,33c1.35-.12,2.9-.11,4.4-.1,2.4,0,4.67,0,5.86-.46a3.48,3.48,0,0,0,2-2.53,16.26,16.26,0,0,0,.36-4c0-1.41.36-1.48.74-1.54a1.69,1.69,0,0,0,1.44-1h0c.43-.86.25-1.32-.39-1.64h0a4.83,4.83,0,0,0-1.21-.31h0a11.55,11.55,0,0,1-2.15-.54c-.77-.29-1-.43-.93-.52h0a2.4,2.4,0,0,1,.42-.55,6.35,6.35,0,0,0,.57-.71c.24-.37,1.22-.44,2.49-.53a20,20,0,0,0,3.6-.5c2.57-.66,2.47-1.68,2.36-3a4.23,4.23,0,0,1,0-1.14c.12-.66.25-1,.67-1.3a12.42,12.42,0,0,1,3.44-.94,15.26,15.26,0,0,0,4.23-1.54,8.19,8.19,0,0,1,4.14-1.18c1.23,0,2,.07,2.71.1,1.15.06,2,.1,4.27,0a35.13,35.13,0,0,0,5.91-.8c1.81-.34,3.77-.72,6-.92a18.81,18.81,0,0,0,5.2-1,4.29,4.29,0,0,0,2.35-2.16,5.41,5.41,0,0,0,.5-2.31c0-.82.09-1.53.87-1.74A3.79,3.79,0,0,0,70.56,0a6.64,6.64,0,0,0,.64,1c.28.37.66.81,1.31,1.54a12.67,12.67,0,0,0,1.83,1.69,3.72,3.72,0,0,0-.06.77c0,2.09-1.42,3.81.37,4.49s2.17,1,3-.45S79.14,6.17,80,7.29s2,2.54.07,4a14.56,14.56,0,0,1-4.86,2.84,15.77,15.77,0,0,1-7.78,1.12c-3.06-.3-2.47-1.57-6.2.07s-4.34-.07-7.55,1.42Z"/></g></g></svg>