<svg xmlns="http://www.w3.org/2000/svg" viewBox="0 0 103.61 55.62"><defs><style>.cls-1{fill:#bfbfbf;fill-rule:evenodd;}</style></defs><title>bolu</title><g id="Layer_2" data-name="Layer 2"><g id="map"><path class="cls-1" d="M21.78,22.74a22.51,22.51,0,0,0-1.24,4.33c-.56,3-1.94,3.86-4.22,5.22l-.15.09c-1.45.87-3.89.71-6.08.58h0A11.24,11.24,0,0,0,6.57,33c-1,.37-1.44,1.09-2,2.14a20.07,20.07,0,0,1-1.36,2.15c-.94,1.26-.69,1.74-.35,2.4a5.13,5.13,0,0,1,.61,1.74c.28,1.88-1.17,2.12-2.66,2.35-.26,0-.52.08-.76.14l.55.38a5.39,5.39,0,0,1,2.68,4.8,7.21,7.21,0,0,0,.1.94,13.56,13.56,0,0,0,2.16,3.75c.53,0,1,0,1.56,0s1.09.06,1.67,0a11.31,11.31,0,0,1,4.76,1.32,6.13,6.13,0,0,0,.94.39,6.47,6.47,0,0,0,.92-.8,11.83,11.83,0,0,1,2.48-1.9,22.59,22.59,0,0,1,3.87-1.39c1-.31,2.18-.65,3.46-1.11,2.48-.89,2.5-3.17,2.5-4.79v-.52a4.77,4.77,0,0,1,1.13-3,3.44,3.44,0,0,1,2.69-1.19c1.64,0,3.86,1.79,5.59,3.17a20.09,20.09,0,0,0,1.72,1.28c.48.29,1.47-.33,2.55-1h0c1.29-.81,2.67-1.68,4-1.46,1.82.29,1.7.87,1.53,1.82a1.9,1.9,0,0,0,.27,1.6h0a4.43,4.43,0,0,0,3,1.46,20.85,20.85,0,0,0,4.12.21,10.2,10.2,0,0,0,4.29-1.61A21,21,0,0,1,61.31,45a16.5,16.5,0,0,1,5.37-.32c2,.08,4,.15,4.78-.32a13.87,13.87,0,0,0,2.31-1.92A15.13,15.13,0,0,1,78.66,39c1-.35,1.81-.59,2.55-.81a10.3,10.3,0,0,0,3.66-1.58c1-.77,2.84-2,4.53-3.14a36.12,36.12,0,0,1,3.34-2c.41-.19.78-.33,1.12-.46,1-.39,1.8-.69,1.63-1.94a2.41,2.41,0,0,0-1-1.69,4.32,4.32,0,0,1-1.57-2.27c-.43-1.42.4-2.14,1.64-2.51a13.25,13.25,0,0,1,3.25-.37h0l.56,0c.61,0,2.52-.06,4.82,0,0-.26,1-5,0-7.61-.61-1.67-1.32-1.83-2.9-2.2a26.82,26.82,0,0,1-3.19-.9A13.91,13.91,0,0,1,92.8,9.39a11.7,11.7,0,0,1-2.44-3.25,6.65,6.65,0,0,1-.9-3.58c0-1-.05-1.74-1.46-2.15A8.71,8.71,0,0,0,84.3.14a16,16,0,0,1-3.84,0,17,17,0,0,0-4.63.06A22.31,22.31,0,0,0,72.47,1a15.09,15.09,0,0,1-3.74.57,25.19,25.19,0,0,1-4.19-.22c-.34,1.84-1.13,5.81-1.86,6.9h0c-.79,1.18-1.12,1.25-3.22,1.67-.68.13-1.56.31-2.74.59a19.93,19.93,0,0,1-5,.54,4.27,4.27,0,0,0-2.45.43c-1.2.76-1.76,2.1-2.43,3.69-.16.37-.32.76-.5,1.15a12.27,12.27,0,0,0-.77,3.54,8,8,0,0,1-.59,2.7c-.41.78-2.07,1.67-4,2.29a14.91,14.91,0,0,1-5.24.85,2.47,2.47,0,0,1-2.61-2c-.12-.37-.24-.73-.59-.85a21.52,21.52,0,0,0-4.39,0,28.45,28.45,0,0,1-6.39-.1Z"/></g></g></svg>