<svg xmlns="http://www.w3.org/2000/svg" viewBox="0 0 82.24 61.45"><defs><style>.cls-1{fill:#bfbfbf;fill-rule:evenodd;}</style></defs><title>burdur</title><g id="Layer_2" data-name="Layer 2"><g id="map"><path class="cls-1" d="M19,56a23.69,23.69,0,0,0,3.89-1.51c.87-.48,1.38-1,1.44-1.59A5.17,5.17,0,0,0,24,51.32c-.66-1.95-1.49-4.42,1.33-6.13a71.42,71.42,0,0,1,7.18-3.43,51.82,51.82,0,0,0,7.44-3.65h0l.81-.6c2.35-1.75,4.67-3.47,6.8-3.4s6.46,3,8.87,4.76l.19.13c1.7,1.21,4.38.77,6.82.38.56-.09,1.12-.18,1.67-.25,1.87-.24,3.58.6,5.2,1.4a10.26,10.26,0,0,0,3,1.14,4.87,4.87,0,0,0,3-.46A4.19,4.19,0,0,0,78.06,39a18.49,18.49,0,0,1,1.88-3.62,7.39,7.39,0,0,1,2.3-2.23l-.34-.63A11.62,11.62,0,0,0,80.26,30a24.73,24.73,0,0,1-3.06-4.57c-.57-1-1.2-2.09-2-3.35A7,7,0,0,1,73.78,18a5.5,5.5,0,0,0-.56-2.39C72.43,14,71.79,13.85,70,13.51c-.84-.16-1.9-.35-3.26-.72-4.65-1.25-5.28-2.5-7.46-6.74l-.45-.87h0c-1.8-3.48-2-3.59-2.77-4a10.45,10.45,0,0,1-1.2-.75C53.9-.24,53.71,0,53.3.44h0A6.89,6.89,0,0,1,51.47,2a9.66,9.66,0,0,1-5.09,1.11h0c-.55,0-1.1,0-1.64.08a3.36,3.36,0,0,0-1.89,1.3,4,4,0,0,1-3,1.69,2,2,0,0,1-2.21-1.54c-.15-.37-.31-.74-.78-.87a4.13,4.13,0,0,0-2.11,0,28.06,28.06,0,0,1-3,.35,17.9,17.9,0,0,0-4.21.82,19.23,19.23,0,0,0-4.05,1.79,17.41,17.41,0,0,0-1.9,1.49C20.1,9.48,18.28,11,16.26,11.56a22.8,22.8,0,0,1-2.6.5c-1.31.2-2.28.34-3,1.14s-.32,2.25,0,3.77A10,10,0,0,1,10.89,20a3.66,3.66,0,0,0,.23,2.18,2.87,2.87,0,0,0,1.46,1.33,7.07,7.07,0,0,1,2.35,1.72,2.15,2.15,0,0,1,.63,2.16,10.92,10.92,0,0,1-1.4,2.2c-.3.41-.66.89-1,1.35h0c-.3.43-.75,1-1.3,1.8-2.17,3-5.95,8.19-6.57,9.55h0l-.43.93a36.37,36.37,0,0,0-1.79,4.31A5.54,5.54,0,0,1,1.75,49.7,6.89,6.89,0,0,0,.17,52.28c0,.14-.11.3-.17.45,1.06.59,3.38,2,3.45,3.18A5.75,5.75,0,0,1,2.09,59a12,12,0,0,0-.86,1.39.51.51,0,0,0,.11.68,2.57,2.57,0,0,0,1,.4,4.07,4.07,0,0,0,1.43-.66A24.67,24.67,0,0,1,6,59.62,32.22,32.22,0,0,0,11,56.18a31.4,31.4,0,0,1,2.62-1.92h0a1.75,1.75,0,0,1,.42-.17,5,5,0,0,1,3.36.77A9.1,9.1,0,0,1,19,56Z"/></g></g></svg>