<svg xmlns="http://www.w3.org/2000/svg" viewBox="0 0 94.43 67.47"><defs><style>.cls-1{fill:#bfbfbf;fill-rule:evenodd;}</style></defs><title>bursa</title><g id="Layer_2" data-name="Layer 2"><g id="map"><path class="cls-1" d="M5.88,10.61a25.24,25.24,0,0,1,9.39.41c6.36,1.35,2.84,1,5.76.9s4.18,1.79,6.5,2.09,1.49.52,5.31-.3,4.79-1.34,7.18-.52,5.24,3.29,7.63,3.29,2.09-1.35,3.59-2.69,4.19-.15,4.19-1.8-3.59-4.49-5.83-4.18-.9,2.69-3.74,1.79S41.21,5.87,39.27,5,35.83,4.37,36.73,3s3.25.11,5.64-1.53A17,17,0,0,0,44.23,0c.73.5,1.43,1,2.11,1.54a24.11,24.11,0,0,0,5.79,3.53A13.43,13.43,0,0,1,55,6.59c1.25.84,1.82,1.22,4.63.6a11.22,11.22,0,0,0,3.69-1.47,5.5,5.5,0,0,1,3.36-.91,10.44,10.44,0,0,1,4,1h0c1.64.66,3.12,1.26,4.89.61C76.83,5.95,77.9,5.48,79,5c1.35-.59,2.75-1.21,4.62-1.86a7.16,7.16,0,0,1,4.28-.23,13,13,0,0,1,3.75,1.82,10.49,10.49,0,0,0,2.28,1.07l.5.19c-.07.3-.11.61-.16.92a5.5,5.5,0,0,1-.42,1.66h0A5.87,5.87,0,0,1,92,10.37a13.76,13.76,0,0,0-3,2.89,10.23,10.23,0,0,0-1.82,3.65A12.09,12.09,0,0,0,87,20.57a14.77,14.77,0,0,1-.09,3.33,10.38,10.38,0,0,1-1.16,3.22A11.42,11.42,0,0,1,83.17,30c-1.4,1.25-2.78,2.49-3.16,4.17-.52,2.35.19,3.72,1.14,5.56h0c.23.44.47.91.69,1.38h0a12.58,12.58,0,0,1,.53,5.27c-.14,2.08-.5,3.93-.94,4.15-.71.35-3.23.26-5.76.17-1.15,0-2.31-.08-3.26-.08-1.49,0-2.69-1-3.69-1.88-1.17-1-2.12-1.82-3.27-1.09S64.17,49.84,64,51.51a9.53,9.53,0,0,1-.83,3.56,5.29,5.29,0,0,1-2.85,2.19,9.25,9.25,0,0,0-2.72,1.63,16.87,16.87,0,0,0-2.89,4.48h0a14,14,0,0,1-2,3.23c-1.11,1.05-1.24,1-3.28.59l-1-.21A16.57,16.57,0,0,1,45.3,66a4.59,4.59,0,0,0-1.65-.43,3.51,3.51,0,0,0-.33-.63,5.68,5.68,0,0,0-1.47-1.49,4.37,4.37,0,0,0-1.55-.72,6.2,6.2,0,0,0-2.61.33,8.14,8.14,0,0,1-3.87.35c-2.19-.51-3-4.47-3.46-6.44h0a3.28,3.28,0,0,0-1.84-2.42,5.84,5.84,0,0,0-2.94-.41c-.44,0-.85.08-1.27.13a14.93,14.93,0,0,1-5.17-.12c-1.82-.35-2.17-1.39-2.63-2.73a12.09,12.09,0,0,0-1-2.39c-1.06-1.8-2.52-2-4-2.25a6.53,6.53,0,0,1-2.31-.64,2.22,2.22,0,0,1-1.36-1.82,7.33,7.33,0,0,0-.66-2,6.91,6.91,0,0,1-.19-3.09c.15-2.08.3-4.22-1.57-5.1-1.42-.67-2-2-2.63-3.29a10.24,10.24,0,0,0-1.37-2.39,2,2,0,0,1-.11-2.4h0a5.73,5.73,0,0,0,.54-1.83,5.09,5.09,0,0,0-.9-2.9A6.06,6.06,0,0,1,0,19c-.08-1.13,1.55-2.2,2.92-3.09a11.26,11.26,0,0,0,1.7-1.25,5.16,5.16,0,0,0,1.19-3,9.69,9.69,0,0,0,.07-1Z"/></g></g></svg>