<svg xmlns="http://www.w3.org/2000/svg" viewBox="0 0 94.68 81.72"><defs><style>.cls-1{fill:#bfbfbf;fill-rule:evenodd;}</style></defs><title>canakkale</title><g id="Layer_2" data-name="Layer 2"><g id="map"><path class="cls-1" d="M16.45,29.94c.22,2.17-1.8,3.36-.67,4.63s2.84,1.2,1.64,2.09-4.26.9-7.55,1.12-3.44,1-5.61-.15S-.67,37.11.15,35.1,2,31.73,5.08,30.84s2.09-.22,6.5-1.12,5.16-1.57,4.86.22ZM44.27,78l-.93,0c-2.62.07-3.36-1.49-6.13.3s-1.94,2.24-5.61,2.24-3.51-.9-4.86,0,.37,1-2.17,1S22.93,82,21,81.47s-3.81.45-3.89-1.49.34-1.68.94-3.4-2-1.35,1.79-4,2.84-.37,3.07-4.26-.67-4.63.3-7.1.75-1.94.22-4.34-.22-2.47.67-5.31S25,46,26.6,45.88s3.07,1.49,4.56.67a11.57,11.57,0,0,0,4.34-4.11c1.49-2.24.37-2,3.29-4.49s3.66-3.36,5.09-4,1.35-2.32,3.29-3.51S49,30.33,50.44,29s3.14-5.08,5.16-5.83S58.52,23,59.94,23s3.74-.6,5.16,0,3.22,2.09,4.41,1.72,2.21-2.06,3.78-3.1,3.21-1.79,4.49-.82.67,2.39,3,1.27,2.91-2.54,4.26-1.65.6,2.24.3,3.89a3.23,3.23,0,0,0,1.27,3.36,25.93,25.93,0,0,0,6.65,3.88,9.3,9.3,0,0,1,1.44.54,6.31,6.31,0,0,1-1,2.79,13,13,0,0,1-2.49,1.94C89.47,38,87.53,39.31,86.74,41c-.9,1.91,0,2.75,1.1,3.8h0a6,6,0,0,1,1.58,2,8.39,8.39,0,0,1,.86,3.06c0,.34.07.76.15,1.3s.21,1.26.35,2a28.27,28.27,0,0,1,.69,6.08c-.1,1.76-1.56,3.46-3.21,5.38-.52.61-1.05,1.23-1.6,1.93-2,2.55-5.26,3.47-8.19,4.3h0L78,71c-1.77.51-2.42-.36-3.31-1.54h0a12.93,12.93,0,0,0-1.84-2.08c-1.88-1.64-2.12-1.62-3.14-1.52a7.77,7.77,0,0,1-1.39,0,2.82,2.82,0,0,1-2-1A3.7,3.7,0,0,0,64,63.7c-1.73-.25-2.48.5-3.57,1.59a16,16,0,0,1-1.49,1.36c-1.55,1.22-3.48,1.06-5.61.89-.47,0-.95-.08-1.49-.11-3-.16-3.35.53-5.06,3.85l-.41.79h0a20.58,20.58,0,0,0-1.84,4.6A13.5,13.5,0,0,0,44.27,78ZM69,13.22A22.83,22.83,0,0,0,65,14c-1.79.67-1.72,1.49-3.66,1.94s-1.49-.45-3.66.6S54.48,16.76,54,19s-.38,1.87-1.87,2.54-1.42,2-2.84,3.67a9.1,9.1,0,0,1-4.63,3.06c-1.34.22-1.42-.22-2.17.45s-.15,1.86-2.54,2.84-2.84.22-3.74,1.27-.11.71-.41,2.66S33.21,39.9,30,41.25s-4.56,2.69-4.49,1.34,1.34-4,3.36-6.28,3.59.15,3.21-4-.15-4.34-1.12-5-1.94-1.2-1.12-2.39,1.42-.75,4.41-1.8,1.64-1.49,5.16-3.29A36,36,0,0,1,45.62,17c3.21-1.2,2.69-2.09,4.86-2.09s3.14,1.27,4.41,0,.3-2,2.32-2.54-.19.93,2.21-.41,3.14-1.27,2.39-3.06a13.2,13.2,0,0,1-.9-2.77c-.16-.58-1.1-1-2.27-.82a11.11,11.11,0,0,1,.91-1.75,6.1,6.1,0,0,0,1.1-3,5.39,5.39,0,0,0,0-.6c.62.17,1.63.45,2.57.73a16.09,16.09,0,0,0,2.83.37,13,13,0,0,1,4.29.77c1,.58.76,1.55.47,2.83,0,.2-.09.42-.13.61-.15.71-.92,1.27-1.75,1.87a6.61,6.61,0,0,0-2.4,2.5c-.78,1.76.47,2.46,2,3.33l.39.22ZM14.09,54.95c2.61-.52,5.16,0,5.83.9s.6,4.49-1.12,4.86a4.57,4.57,0,0,1-4.34-2c-.82-1.2-2.69-3.29-.37-3.74Z"/></g></g></svg>