<svg xmlns="http://www.w3.org/2000/svg" viewBox="0 0 93.48 60.83"><defs><style>.cls-1{fill:#bfbfbf;fill-rule:evenodd;}</style></defs><title>cankiri</title><g id="Layer_2" data-name="Layer 2"><g id="map"><path class="cls-1" d="M81,60.82a6.7,6.7,0,0,0,3.18-.69,5,5,0,0,0,1.15-.74,9.31,9.31,0,0,1,2.07-1.28c1.43-.74,1.44-.87,1.46-1.46a8.3,8.3,0,0,1,.2-1.68,3.63,3.63,0,0,1,1.8-2.39,2.84,2.84,0,0,0,1.48-2.26c.12-1.17,0-1.22-.07-1.27-.38-.19-.81-.42-.9-1.85a3,3,0,0,1,.88-2.77,5.19,5.19,0,0,0,1-1.49c.4-.9.29-1-.39-1.38a17.85,17.85,0,0,1-3-2.24c-1.65-1.51-1.84-2.22-1.32-2.78a2.32,2.32,0,0,1,.94-.51,2.21,2.21,0,0,0,1.57-1.32c.3-.93.19-1,0-1a2.61,2.61,0,0,1-1.81-1.37,7.29,7.29,0,0,1-.84-2.39,3.53,3.53,0,0,0-1.07-2.19,20.29,20.29,0,0,1-2-2.09,13,13,0,0,1-1-1.33,8.29,8.29,0,0,1-4.17.89,13.08,13.08,0,0,1-5.71-1.31c-1.78-1-1.26-2-.55-3.4a6.38,6.38,0,0,0,.79-2.16,9.28,9.28,0,0,0,0-2.16,8.88,8.88,0,0,1,.19-2.89h0l0-.24c.42-2.09.57-2.84-2.38-3.91a15,15,0,0,0-5.8-.55A34.69,34.69,0,0,0,59,10.05c-2.07.64-2.1,1.52-2.13,2.43a3.27,3.27,0,0,1-1.44,3,1.48,1.48,0,0,1-2.38-.34,9.51,9.51,0,0,1-1-2.21c-.55-1.56-1.2-3.4-2.54-3.88a11.1,11.1,0,0,0-4-.48,15.23,15.23,0,0,1-6.74-1.17,9.37,9.37,0,0,1-5.35-6.33,4.29,4.29,0,0,0-.42-1C33-.06,32.88,0,32.5.26a19,19,0,0,1-2.74,1.58,4.81,4.81,0,0,1-3,.7h0c-.07,0-.09,0-.44.63C25.92,4,26,5.6,26,7.19c.06,1.86.12,3.67-.64,4.53-1.21,1.36-2.38.57-4-.51-.48-.33-1-.68-1.62-1-1.38-.75-1.75-.57-2.68-.12a14.78,14.78,0,0,1-2,.83c-2.17.74-2.68-.53-3.19-1.82-.24-.59-.48-1.2-.94-1.31s-.63.06-.87.35h0a5.24,5.24,0,0,1-3.27,2c-2.7.67-3.43-.17-4.09-.94h0A1.41,1.41,0,0,0,2,8.61,2.17,2.17,0,0,0,.25,9h0L0,9.12a3.26,3.26,0,0,1,.63,2.34,5.71,5.71,0,0,0,.74,3,10.86,10.86,0,0,0,2.19,3,13,13,0,0,0,3.94,1.89,25.54,25.54,0,0,0,3.06.87c2,.46,2.88.66,3.71,2.91,1,2.66.24,7.08.06,8,1.37.06,2.82.14,4.18.27,2.4.24,4.57.65,5.62,1.32a38.47,38.47,0,0,0,7.26,3c1.31.44,2.48.84,3.27,1.18,1.08.46,1.37.88,1.13,1.42h0c-.15.34-.51.53-1,.8a6.69,6.69,0,0,0-2.09,1.57c-.79,1-.62,1.12-.26,1.44h0a5.24,5.24,0,0,1,1.21,1.43c.43.78,1.24.63,2.14.46A5.6,5.6,0,0,1,38.34,44c1.22.33,1.91,2.3,2.65,4.4s1.43,4.08,2.44,4.53a10.07,10.07,0,0,1,3.1,2.41c.72.74,1.35,1.38,1.89,1.43.74.08.83-.92,1-2.29,0-.28.05-.57.08-.8.27-2.51,2-2.58,3.89-2.66h.16C55.33,50.89,69.63,56,69.67,56l.5.18-.06.2c1.29.3,4.09,1,6.82,2,3,1,3,1,3.84,2.14h0l.24.3Z"/></g></g></svg>