<svg xmlns="http://www.w3.org/2000/svg" viewBox="0 0 81 92.42"><defs><style>.cls-1{fill:#bfbfbf;fill-rule:evenodd;}</style></defs><title>corum</title><g id="Layer_2" data-name="Layer 2"><g id="map"><path class="cls-1" d="M8.27,92.42c1.36-.76,3.3-1.8,4.6-2.34a8.9,8.9,0,0,1,2.64-.54,6.35,6.35,0,0,0,4.25-1.63c2.21-2.14,4.16-1.76,7-1.21.54.11,1.11.22,1.69.31a7.71,7.71,0,0,1,3.83,1.63,2.79,2.79,0,0,0,1.84.75c.89,0,3.48-1.07,6.27-2.22,3.43-1.42,7.13-2.94,8.72-2.86a2.07,2.07,0,0,1,2.22,1.75c.18.54.37,1.11,1.66,1.16a13.93,13.93,0,0,0,5.32-1c1.4-.55,2.46-1.23,2.51-1.82,0-.38,0-.7,0-1a4.67,4.67,0,0,1,1.55-4c.78-.75.71-.86.39-1.37h0a10.62,10.62,0,0,1-1.13-2.21c-1.06-2.82.17-3.71,1.89-4.35h0l.79-.27.44-.15h0a25,25,0,0,1,5.39-.86c.7-.07,1.41-.13,2.11-.22a5.4,5.4,0,0,1,1.16-1.73,9.16,9.16,0,0,0,1.35-1.86c.29-.6-.21-1.22-.69-1.82a3.19,3.19,0,0,1-.94-1.9,3.71,3.71,0,0,1,1.19-2.2A5.36,5.36,0,0,0,75.79,58c.29-2,2.3-3.3,3.92-4.33l.74-.47h0a1.09,1.09,0,0,0,.31-.31h0A2,2,0,0,0,81,51.5a4.58,4.58,0,0,0-.75-1.88A5.58,5.58,0,0,0,78.61,48a11.24,11.24,0,0,0-4-1.86h0c-.68-.2-1.54-.46-2.71-.84-2.49-.81-2.66-1.65-2.39-2.48a3.28,3.28,0,0,1,.2-.46c.12-.23.23-.46-.16-.7a5.68,5.68,0,0,0-3.29-.75,30.68,30.68,0,0,0-6.16,1.12c-3.4.86-4.21.34-4.65-1.42-.09-.35-.16-.78-.24-1.26a17.94,17.94,0,0,0-1.3-4.67c-1.9-4.29-.85-5,.72-6.12a5.78,5.78,0,0,0,1.85-1.8c1-1.61.83-1.9.53-2.49a6.37,6.37,0,0,1-.76-2.62,9.76,9.76,0,0,1,.39-4.07A8.29,8.29,0,0,0,57,16.05a18.77,18.77,0,0,1-3.13-1c-2-.79-3.65-1.85-4-2.72a10.06,10.06,0,0,1-.53-1.84,5,5,0,0,0-.74-2A2.16,2.16,0,0,1,48.1,7c-1.8-1-8-4.28-11.51-5.92a11.08,11.08,0,0,0-6.79-1c-.39,0-.76.09-1.11.11A3.28,3.28,0,0,1,27,1a8,8,0,0,0-4.3,2.28c-1.43,1.43-2.72,2.55-3.82,3.51a16.14,16.14,0,0,0-3.49,3.63,10,10,0,0,0-1.43,3.4A6.4,6.4,0,0,0,15,18.19,28.17,28.17,0,0,0,17,21c1.47,1.9,2.55,3.3,2.27,6-.37,3.61-5.11,3.65-8.77,3.69-.6,0-1.18,0-1.7,0l-1.11,0c-2.14.07-2.78.09-4.36,1.31a11.47,11.47,0,0,0,.93,1.28,19.52,19.52,0,0,0,1.92,2,4.43,4.43,0,0,1,1.42,2.79,6.48,6.48,0,0,0,.71,2.06,1.67,1.67,0,0,0,1.13.85c.92.25,1.43.39.79,2.43a3.17,3.17,0,0,1-2.26,2,2,2,0,0,0-.5.22A11.72,11.72,0,0,0,8.67,47a16.9,16.9,0,0,0,2.82,2.11c1.4.86,1.64,1,.83,2.8a6.2,6.2,0,0,1-1.2,1.79,2.07,2.07,0,0,0-.59,1.94c0,.79.18.85.29.91.47.24.88.45.68,2.4a3.78,3.78,0,0,1-2,3.07,2.71,2.71,0,0,0-1.34,1.7A7.46,7.46,0,0,0,8,65.17H8C8,66.3,8,66.56,6,67.6a8.17,8.17,0,0,0-1.86,1.15,6.31,6.31,0,0,1-1.35.87A7.53,7.53,0,0,1,0,70.39a9,9,0,0,0,3.1,2.13,22.5,22.5,0,0,1,3.23,1.8c2.6,1.75,2.92,5,3.24,8.18.11,1.05.21,2.09.4,3A6.9,6.9,0,0,1,9,91c-.22.43-.47.89-.71,1.42Z"/></g></g></svg>