<svg xmlns="http://www.w3.org/2000/svg" viewBox="0 0 81.17 104.68"><defs><style>.cls-1{fill:#bfbfbf;fill-rule:evenodd;}</style></defs><title>denizli</title><g id="Layer_2" data-name="Layer 2"><g id="map"><path class="cls-1" d="M67.1,47.42l0-.11a5,5,0,0,0-2.58-3,12.41,12.41,0,0,0-2.38-1c-1.68-.57-3-1-3-2.8a3.73,3.73,0,0,1,.81-2.34,2.41,2.41,0,0,0,.54-1.67,5.91,5.91,0,0,0-.22-1.32c-.3-1.19-.48-1.89,1.4-3.2.68-.48,1.26-.94,1.8-1.38a10.66,10.66,0,0,1,3.85-2.28,4.22,4.22,0,0,1,2.09-.16c.47.07.81.12,1.9-.79a25.25,25.25,0,0,0,2.16-2.08h0a22.62,22.62,0,0,1,4.4-3.79,18.51,18.51,0,0,1,2.45-1.33c.74-.34.88-.4.88-1.41,0-.71-.89-1.65-1.84-2.65-1.36-1.43-2.83-3-2.64-4.8a23.92,23.92,0,0,0,.15-3.48,5.58,5.58,0,0,0-.4-2.06,15.57,15.57,0,0,0-3.82-3A27.19,27.19,0,0,0,67.48,0l-.3.36C65.86,2,64.92,3.13,62.47,3.49a10,10,0,0,1-2.12.11c-.12,0-.07-.08-.14,0s.14,0,.13.15,0,.46-.09.87a25.36,25.36,0,0,0-.14,2.94,13.74,13.74,0,0,1-.42,4.13,10.76,10.76,0,0,1-1,2.28,2.5,2.5,0,0,1-2,1.23c-.91,0-2.28-1.11-3.73-2.34s-2.84-2.4-3.71-2.53a8,8,0,0,0-2.84.1,9.09,9.09,0,0,0-2.76,1.1,20.89,20.89,0,0,1-3.16,1.63,9.84,9.84,0,0,1-3.91.73l-4-.12-9.11-.26c-1.18,0-2.06-.12-2.83-.2l-.8-.08v0l-1.14-.07v0a9,9,0,0,0-2,.25c-2.06.47-3.37,2.31-4.71,4.19l-.65.9a22.63,22.63,0,0,1-3.59,3.75c.2.18.41.38.62.6a32.57,32.57,0,0,0,3.67,3.06,10.28,10.28,0,0,1,3,2.84c.86,1.64-.69,2.58-2.17,3.48a12.1,12.1,0,0,0-1.12.74l-.11.08h0c-1.16.9-2.06,1.6-2,3.57a7.54,7.54,0,0,0,.93,3.26,8.66,8.66,0,0,0,2.29,2.74,6.2,6.2,0,0,0,1.91,1c1,.37,1.55.55,1.28,1.94-.19,1-.83,1.29-1.51,1.58a1.46,1.46,0,0,0-1.1,1.29,6.71,6.71,0,0,0,.06,1.75c.14,1,.21,1.5-.92,2.09a4.23,4.23,0,0,1-1.73.42,4.64,4.64,0,0,0-2.74,1,6.23,6.23,0,0,0-1.41,1.54A3.45,3.45,0,0,1,4,57a7.55,7.55,0,0,1-3-.17,6.31,6.31,0,0,0-.82-.14c-.09,0-.15,0-.16.15,0,.37.21.5.52.68h0A3.94,3.94,0,0,1,2.59,60.1a6.19,6.19,0,0,1,.06,3.61,3.45,3.45,0,0,0,.07,2.39,6.13,6.13,0,0,0,1.89,2.2,7,7,0,0,1,1.74,1.86,9.84,9.84,0,0,1,1,3A10.85,10.85,0,0,0,8,75.29,15.73,15.73,0,0,0,10.52,79a9.91,9.91,0,0,0,2.88,2.3,18.34,18.34,0,0,0,2.51.92c2.15.67,4.43,1.39,6.15,3.66h0l0,0h0c2.36,3.12,2.9,3.84,3.44,8.37l0,.42c.48,4,.82,6.9,2.82,8.13l1,.62c1.55,1,2.58,1.64,3.48,1a18.58,18.58,0,0,0,3-3.86,26.7,26.7,0,0,0,2.61-4.91,7.83,7.83,0,0,1,1.8-3,4.69,4.69,0,0,0,1.11-1.74,37.24,37.24,0,0,1,1.83-4.44l.43-.93h0c.68-1.48,4.5-6.73,6.69-9.74L51.65,74h0c.43-.61.73-1,1-1.36a10.08,10.08,0,0,0,1.26-2c.09-.21-.1-.58-.45-1a5.82,5.82,0,0,0-2-1.42,4,4,0,0,1-2-1.86,4.72,4.72,0,0,1-.34-2.84,9.36,9.36,0,0,0-.28-2.69c-.34-1.8-.7-3.69.32-4.76s2.16-1.25,3.69-1.47a22.08,22.08,0,0,0,2.48-.48c1.77-.46,3.48-1.92,4.91-3.13a17.75,17.75,0,0,1,2-1.59,20.43,20.43,0,0,1,4.3-1.91l.48-.14Z"/></g></g></svg>