<svg xmlns="http://www.w3.org/2000/svg" viewBox="0 0 116.57 82.03"><defs><style>.cls-1{fill:#bfbfbf;fill-rule:evenodd;}</style></defs><title>diyarbakir</title><g id="Layer_2" data-name="Layer 2"><g id="map"><path class="cls-1" d="M116.57,12.91a10.82,10.82,0,0,1-2.74-5.16,13.64,13.64,0,0,0-1-3.5,11.16,11.16,0,0,0-1.73-2.57A4.43,4.43,0,0,0,108.77.17a7.66,7.66,0,0,0-3.13,0c-2.16.35-4,1.75-6,3.23l-.74.55h0c-.55.4-1.06.85-1.57,1.28A11.92,11.92,0,0,1,91,8.56a15.43,15.43,0,0,0-5.12,1.75,24.25,24.25,0,0,1-2.34,1.07C82,12,81.43,11.7,81.16,11a2.92,2.92,0,0,1-.11-1.12,2.72,2.72,0,0,0-.17-1.28c-.13-.24-.94.16-2,.65h0a9.83,9.83,0,0,1-4.13,1.29,3.58,3.58,0,0,1-2.89-1.37,2.23,2.23,0,0,0-2.45-.81c-.77.17-1-.07-1,0h0l.16.21h0A2.77,2.77,0,0,1,69.3,11c-.32,1.63-.85,1.82-1.84,2.19a7.22,7.22,0,0,0-2.18,1.21c-.81.64-.9.84-.81,1h0a2.26,2.26,0,0,0,.27.27,1.84,1.84,0,0,1,.83,1.58c-.09,1.63-2.63,1.79-4.89,1.92-.52,0-1,.06-1.44.11l-1.69.2h0a71.1,71.1,0,0,1-11.33.77c-1.58-.08-2.65-.22-3.44-.33-1.34-.19-1.74-.24-2.63.53a2.54,2.54,0,0,0-.86,1.75,6.94,6.94,0,0,1-1.45,3.39c-1.42,1.89-1.9,1.64-2.6,1.28h0c-.24-.13-.53-.28-1.26.08-1,.49-1.53.81-1.93,1a6.71,6.71,0,0,1-1.51.7h0a6.92,6.92,0,0,0-1.43.64c-.56.33-1.39.87-2.85,1.84h0c-2.7,1.8-2.75,1.79-5.86,1.5l-1.52-.14A15.88,15.88,0,0,1,13,30.75a5.93,5.93,0,0,0-3-.9,5.81,5.81,0,0,0-2.44,1h0a9.75,9.75,0,0,1-2.79,1.29,5.36,5.36,0,0,1-2.7.34c-.23,0-.51-.07-1-.08a11.71,11.71,0,0,0,.24,1.22,4.76,4.76,0,0,1-.79,3.44c-.36.7-.69,1.32-.52,1.7H0a5,5,0,0,1,.31,2,5.7,5.7,0,0,0,0,.7,3.31,3.31,0,0,0,1.14-1.12c.66-.86,1.36-1.78,2.61-1.83,1.87-.08,2,.24,2.92,2.09l.37.76h0c.92,1.84,0,3.72-.76,5.38A12.09,12.09,0,0,0,6,48.41a4.79,4.79,0,0,1-2,2.67,20.6,20.6,0,0,1,2.35.14A25.37,25.37,0,0,1,12.92,53l1,.39h0c4.33,1.75,7.45,3,10.88,6.15a15.29,15.29,0,0,1,2.44,2.82c.6.86.73,1.05,2.55.5a8,8,0,0,0,3-1.62A4.52,4.52,0,0,1,35.71,60H36c1.19.08,2.1,1,2.72,2.39a13.93,13.93,0,0,1,1,4.73h0a21,21,0,0,1,0,2.61,21.42,21.42,0,0,1-.61,3.63c-.49,2.1-.86,3.65.94,6a10.91,10.91,0,0,1,1.21,2,45.54,45.54,0,0,1,8.77.58c1.86.39,2.1-.07,2.43-.7A4.17,4.17,0,0,1,54,79.43c1.59-1.07,2.29-.66,3.53.07h0a10.63,10.63,0,0,0,2.26,1.06c2.59.85,3.29.67,5.92,0l.8-.19h0c1.48-.35,2-1.67,2.53-3.05.61-1.55,1.24-3.18,3.12-4.08,2.39-1.15,3.21-.19,4.1.83A2.51,2.51,0,0,0,78,75.22a2.35,2.35,0,0,0,2.28-1.13,8.65,8.65,0,0,0,1-3.46l.06-.47h0c.37-3,.51-4.11,3.26-3.76a10.54,10.54,0,0,1,3.29,1.28,19.58,19.58,0,0,0,6.29,2.24c2.78.43,4.38-1.07,5.5-2.13.86-.81,1.5-1.41,2.35-1.1h0c.83-1.74,1.62-3.67,1.41-4.32-.12-.39-.27-.38-.55-.35a4.56,4.56,0,0,1-2.5-.39,2.58,2.58,0,0,1-1.76-2.75,9.13,9.13,0,0,1,1.17-3.32,7.14,7.14,0,0,1,2.62-2.62,5.93,5.93,0,0,0,1.88-1.74,7.79,7.79,0,0,0,1.18-3.54h0l.17-1.05h0l0-.15h0c.45-2.62.85-5,2.32-6.9a2.46,2.46,0,0,0,.59-2.64h0c-.08-.34-.18-.74-.25-1.19h0c-.18-1.16-.45-3.29-.59-5.34h0a25.43,25.43,0,0,1,0-3.81,15,15,0,0,1,1.3-5,7.82,7.82,0,0,1,2.69-3.23c1.14-.75.92-1.1.69-1.46h0a1.71,1.71,0,0,1-.3-1.82c.4-.89.89-1,1.5-.69h0a3.79,3.79,0,0,1,.6.37h0a2,2,0,0,0,1.28.51c.54-.06.58-.47.63-.91a3.23,3.23,0,0,1,.27-1.17h0a1.81,1.81,0,0,1,.19-.31Z"/></g></g></svg>