<svg xmlns="http://www.w3.org/2000/svg" viewBox="0 0 52.93 91.13"><defs><style>.cls-1{fill:#bfbfbf;fill-rule:evenodd;}</style></defs><title>edirne</title><g id="Layer_2" data-name="Layer 2"><g id="map"><path class="cls-1" d="M33,88.45l-.12.07c-1.79,1.12-3.74-.75-5.83-.07s-2.47,2.69-4.19,2.69-1.72-2.62-3.44-2.24-.82,2.09-2.69,1.34-1-1.79-2.69-1.12-1.79,1.5-3.44.82-.6-.82-3.51-.75S2.87,90.46,1.6,89,.11,86.72,0,84.33s0-4.71,0-4.71,2.32,1,3.59-.37.53-3.07,2.47-4.11,2-.26,3.18-2.5,1.94-2.24,3.74-3.29,1-2.24,2.24-3,1.49-2.09,2.39-3.29-1.2-1.64-1.2-4.63.9-1.34.9-4-1-2.84.45-4.93-.11-2.35,1.16-2.35-.37,2.17,2.77.67,4.49-5.16,6.06-5.61.82,1.94,3.29,1a4.71,4.71,0,0,0,2.84-5.38c-.3-2-1-.37-.75-3.59s.15-6.2.37-8,.37-1.27-1.27-2.17-2.39-1.95-4.19-3.74-2.39-.6-4.34-2.09S20,16,20.89,13.75s.45-3.44,2.69-3.89,7.47,1,8.82.45S34.2,5.38,34.2,5.38s-2.09-1.2-.3-2.69S35.84.15,37.79.3s2.09,3.29,4.79,1.94S45-.6,46.46.6s.6,2.39,2.39,1.34.9-2.39,3-1.79l.27.08c0,.3.07.6.1.9.39,3.64.59,7.45.68,9.84a33.31,33.31,0,0,1-.18,5.81A8.29,8.29,0,0,1,51.08,21a15.58,15.58,0,0,0-2.14,2.83h0c-.5,1-.37,1.77.69,2.24h0a5.48,5.48,0,0,0,1.1.33h0c.61.14,1.06.23.82,1.6-.17.95-1.26,2.48-2.43,4.13-1.71,2.41-3.59,5.06-3.4,7.08l.06.6a46.8,46.8,0,0,0,1,6.64c.21,1.05.45,1.86.64,2.53a4.61,4.61,0,0,1-.3,4.29,12.19,12.19,0,0,1-3,3.48,30.67,30.67,0,0,1-5.3,3.6,8.58,8.58,0,0,1-3,.77c-1.64.2-2.83.35-2.7,2A2.11,2.11,0,0,0,34.54,65c.52.29,1.06.59.86,1.9a4.9,4.9,0,0,1-.8,2.13c-.55.9-1.09,1.77-1,4.7.12,3.61.24,3.89.71,5h0c.14.32.31.72.52,1.33a7.43,7.43,0,0,1,.53,3h0a5,5,0,0,1-.92,2.44A14.92,14.92,0,0,0,33,88.45Z"/></g></g></svg>