<svg xmlns="http://www.w3.org/2000/svg" viewBox="0 0 102.69 61.38"><defs><style>.cls-1{fill:#bfbfbf;fill-rule:evenodd;}</style></defs><title>elazig</title><g id="Layer_2" data-name="Layer 2"><g id="map"><path class="cls-1" d="M41.58,61a10.38,10.38,0,0,1,1.3.1h0a4.52,4.52,0,0,0,2.25-.31,9,9,0,0,0,2.5-1.17h0a6.81,6.81,0,0,1,2.88-1.16,6.68,6.68,0,0,1,3.64,1,15.11,15.11,0,0,0,5.45,1.68l1.54.14c2.72.25,2.76.26,5.13-1.32h0c1.45-1,2.28-1.51,2.91-1.88a7.59,7.59,0,0,1,1.64-.73h0a5.92,5.92,0,0,0,1.29-.62c.41-.24,1-.56,2-1.07a2.12,2.12,0,0,1,2.28-.08h0c.2.11.33.18,1.18-.95a6,6,0,0,0,1.24-2.91A3.45,3.45,0,0,1,80,49.29c1.28-1.11,1.79-1,3.53-.8.76.11,1.81.25,3.34.32A69.88,69.88,0,0,0,98,48.06h0l.72-.09c0-.5-.07-1.2-.07-1.91a3.72,3.72,0,0,0-.32-1.75,9.42,9.42,0,0,0-2.11-2.55,14.21,14.21,0,0,0-2.18-1.69,3,3,0,0,1-1.72-2.25c-.38-1.57.25-1.88,1.26-2.37a5,5,0,0,0,1.57-1.07A13,13,0,0,0,96.31,33a10.71,10.71,0,0,1,3.54-3.26c2.32-1.45,2.39-1.75,2.62-2.71h0c.05-.22.11-.47.2-.77.27-.94-1.95-2.07-3.5-2.86-.51-.26-1-.49-1.28-.7-1.14-.74-1-1.16-.81-2.21h0a8.77,8.77,0,0,0,.25-1.79A13.35,13.35,0,0,0,97,15.61a24.26,24.26,0,0,1-.44-3.55,11.53,11.53,0,0,1,.65-4.35,23.43,23.43,0,0,0,.86-3.82C98.48.94,98,.72,97.34.4h0a6.18,6.18,0,0,1-.55-.29h0c-.51-.31-1,.06-1.94.71h0c-.39.28-.83.6-1.36.93s-1,.67-1.67,1.1a44.5,44.5,0,0,1-7.62,4.4c-2.16.86-2.81.67-3.4.49a1.6,1.6,0,0,0-1.12,0h0A2.28,2.28,0,0,0,78,9.45c-.14.34-.32.73-.56,1.2s0,.71.31.89a2.2,2.2,0,0,1,1.39,1.59,7,7,0,0,1,.17,2.17,19.26,19.26,0,0,1-.7,3.17,9.46,9.46,0,0,1-1.88,3.93,10.71,10.71,0,0,1-4.52,2.8c-2.63,1-3.32.85-4.15.69a5.2,5.2,0,0,0-2.17,0l-.12,0a14.75,14.75,0,0,0-2.3.46,5.32,5.32,0,0,0-.93.51c-.28.17-.63.39-1.09.66a8,8,0,0,0-1.93,1.53,4.53,4.53,0,0,1-2.23,1.43c-1.74.53-2.09.1-2.66-.63a3.76,3.76,0,0,0-.63-.66h0a8.2,8.2,0,0,0-2.24-.83,13.31,13.31,0,0,1-4.83-2.13c-1.55-1.28-2-1.25-3.34-1.15-.37,0-.8.06-1.37.08h-.13a12.57,12.57,0,0,1-2.24,0,8.77,8.77,0,0,1-1.43-.42l-1-.33-.37-.12a16.81,16.81,0,0,0-5.63-1,10.82,10.82,0,0,0-4.29.57,13.83,13.83,0,0,1-4.18.71c-2.63,0-3-.55-3-1.74,0-.18,0-.38,0-.59a6.68,6.68,0,0,0,0-1.59,3.8,3.8,0,0,1,.27-2.35,3.13,3.13,0,0,0,0-2.51c-.41-1.36-.67-1.69-.94-1.92a6.44,6.44,0,0,1-2.73.63A6.14,6.14,0,0,1,14.19,14c-.08.25-.17.53-.29.84-.5,1.39-1,1.53-1.65,1.69a1.61,1.61,0,0,0-1.1.83c-.55.82-.39,1.07.29,2.11a31.39,31.39,0,0,1,2.14,3.76c2,4,1.2,6.52.73,8a4.65,4.65,0,0,0-.22.9c0,.82-.41,1.12-1,1.08a3.83,3.83,0,0,1-1.62-.79c-.29-.19-.61-.4-.92-.58A2.13,2.13,0,0,0,8.81,32h0A10.66,10.66,0,0,0,5.88,33.8a1.09,1.09,0,0,0-.49,1.12,4.09,4.09,0,0,1-.49,2.36,6.82,6.82,0,0,1-2.38,2.4,5.41,5.41,0,0,0-2.3,2.53,4,4,0,0,0,.22,3.17,10.84,10.84,0,0,0,3,3.4,23.61,23.61,0,0,0,5.51,2.8c4,1.58,8.61,3,10,3.33a1.9,1.9,0,0,0,2-.73,4.24,4.24,0,0,1,2.53-1.38c1.52-.2,3.54,2,5.54,4.15,1.61,1.74,3.21,3.47,4.23,3.71a6.25,6.25,0,0,0,3.8-.85,5.17,5.17,0,0,1,2.83-.73A2,2,0,0,1,41.58,61Z"/></g></g></svg>