<svg xmlns="http://www.w3.org/2000/svg" viewBox="0 0 124.94 68.86"><defs><style>.cls-1{fill:#bfbfbf;fill-rule:evenodd;}</style></defs><title>erzincan</title><g id="Layer_2" data-name="Layer 2"><g id="map"><path class="cls-1" d="M21.47,68.48a6.23,6.23,0,0,1-.41-.8,7.24,7.24,0,0,1-.6-4,7.07,7.07,0,0,1,3-4.51,9.41,9.41,0,0,1,4.32-1.94c.46-.09.69-.13.69-.45,0-.6-.29-.67-.83-.78h0a8.2,8.2,0,0,1-1.83-.58,4.14,4.14,0,0,1-1.34-1,4.55,4.55,0,0,1-1-2,3.32,3.32,0,0,1,.18-2.16,2.82,2.82,0,0,1,.68-.92c1.36-1.23,3.14-.27,4.44.44a4.66,4.66,0,0,0,1,.46c.15,0-.18-.38-.21-.82-.07-.9-.14-1.88.53-2.36h0c.61-.44,1.39-.3,2.37-.12a8.46,8.46,0,0,0,2.67.17h0c1-.13,1.49-1.57,2-3a7.9,7.9,0,0,1,1.34-2.7c1.16-1.23,2.42-1,3.69-.78a7.53,7.53,0,0,0,1.28.15c.76,0,1.68-1,2.52-1.88a9.65,9.65,0,0,1,1.58-1.47c1.33-.86,2-.18,2.72.62a5.37,5.37,0,0,0,.63.6c.46.35,2.16-.16,3.79-.65.74-.22,1.47-.44,2.11-.58a4.37,4.37,0,0,0,1.85-1.17c1-.94,2.06-1.84,3.84-1.2,1.46.53,1.74,1.71,2,2.78.19.79.36,1.5,1.29,1.44,1.78-.1,2.28-1.64,2.64-2.76h0a7.1,7.1,0,0,1,.32-.88c.45-1,1.73-1.23,3-1.48a8,8,0,0,0,1.62-.44c.58-.27.3-1.06.05-1.78-.08-.22-.15-.43-.21-.62a1.91,1.91,0,0,1,.67-1.82A9.23,9.23,0,0,1,76.05,28a1.77,1.77,0,0,1,1.95.21,14.86,14.86,0,0,1,2.15,2c1,1,2.52.93,4.29.84a18.44,18.44,0,0,1,3.53,0,5.52,5.52,0,0,0,4.84-1.75l.41-.37h0c.48-.39,2.43-.57,4.64-.59a48.29,48.29,0,0,1,6.88.39,5.69,5.69,0,0,1,3.58,2.66,3.7,3.7,0,0,0,1,1.05h0c.75.35,2.13.2,3.91,0l1.56-.16h0l.93-.07h0l1.72-.14c3.18-.28,7.59-.76,7.52-1.57,0-.4-.25-.4-.69-.39a7.25,7.25,0,0,1-3.23-.56c-2.32-1-2.45-2.67-2.58-4.35a6.87,6.87,0,0,0-.31-1.84c-.5-1.29-2-2.52-3.56-3.77-.57-.46-1.15-.93-1.67-1.39a3,3,0,0,1-1-3.68,4.67,4.67,0,0,0,.2-1.69,5.87,5.87,0,0,0-1.2-2.91,6.18,6.18,0,0,0-2.56-1.94,9.69,9.69,0,0,0-4.62-.33,12.49,12.49,0,0,1-2.48.07,4,4,0,0,1-2.24-1,4.81,4.81,0,0,1-1.38-2.24,2.67,2.67,0,0,1,.66-2.06A13.08,13.08,0,0,1,100.06.53,9.52,9.52,0,0,0,99,.24a30.52,30.52,0,0,0-7-.08c-1.41.08-2.83.17-4.12.17a28.42,28.42,0,0,0-5.6.7A17.92,17.92,0,0,0,77.6,2.5a18.16,18.16,0,0,0-2.24,2.64C73.91,7,72.24,9.17,71,9.79c-.71.37-1.42.81-2.12,1.24A20.51,20.51,0,0,1,65.28,13a2.53,2.53,0,0,1-2.95-.74,4.72,4.72,0,0,0-1.4-.91,2.05,2.05,0,0,0-1.88,0h0a14.25,14.25,0,0,1-2.14.63l-.43.09a4.58,4.58,0,0,1-1.87.22,3.85,3.85,0,0,1-1-.42c-.4-.21-1-.51-1.91-.9A69.58,69.58,0,0,1,44,7.14l-.37-.2c-1.87-1-3.11-1.59-4.08-2A20.49,20.49,0,0,1,36.6,3.33h0a13.37,13.37,0,0,0-4.26-1.59l-.51-.12a4.57,4.57,0,0,1-1.1.95c-1.88,1.21-2.6.71-3.78-.1a10,10,0,0,0-1.12-.69,5.52,5.52,0,0,0-3.52-.29l-.94.11a10.29,10.29,0,0,1-.14,3.31,4.67,4.67,0,0,1-1.39,2.63c-1.15,1-2.2.45-3.29-.09A3.92,3.92,0,0,0,15,6.92a1.76,1.76,0,0,0-1.55.81,10.12,10.12,0,0,1-1.08,1.07A3.65,3.65,0,0,1,10.3,9.9a3,3,0,0,1-2.13-1,8.25,8.25,0,0,0-2.5-1.47,4.23,4.23,0,0,0-2.17-.34,2.47,2.47,0,0,0-1.34,1A7.52,7.52,0,0,0,1,10.48c-.26.91.14,1.07,1.09,1.46.37.15.8.33,1.31.57a5.81,5.81,0,0,1,2.49,2,3.55,3.55,0,0,1,.43,2.75C6,18.64,4.86,19.47,3.6,20.35a14.23,14.23,0,0,0-1.69,1.3c-.65.63-.6.76-.47,1.14h0a6.57,6.57,0,0,1,.42,2.48A2.79,2.79,0,0,1,.7,28,1.7,1.7,0,0,0,0,29.61a5,5,0,0,0,.71,2.62,2.62,2.62,0,0,1,.38,2.35A4,4,0,0,1,.29,36c-.16.18-.24.29,0,.71a1.9,1.9,0,0,1,.07,1.7,2.53,2.53,0,0,0,0,1.82c.31,1,1.47,1.46,2.38,1.82s1.71.67,1.64,1.49a3.53,3.53,0,0,1-1,1.82,8.76,8.76,0,0,0-1.61,2.52c-.4,1.07.28,1.81.92,2.51A4.44,4.44,0,0,1,3.75,52a2.63,2.63,0,0,1-.33,2.1A2.13,2.13,0,0,0,3.21,56a8.47,8.47,0,0,1,.66,3A6.93,6.93,0,0,1,3.2,62c-.38.83-.36.85-.17.94a6.09,6.09,0,0,1,1.3.86c.87.75,2.31.5,3.69.26a12.25,12.25,0,0,1,2.07-.25,8.1,8.1,0,0,1,2.82.75,31.42,31.42,0,0,1,3.9,2A1.43,1.43,0,0,1,17.53,68a3.59,3.59,0,0,1,0,.43,5.1,5.1,0,0,0,4,0Z"/></g></g></svg>