<svg xmlns="http://www.w3.org/2000/svg" viewBox="0 0 116.93 119.07"><defs><style>.cls-1{fill:#bfbfbf;fill-rule:evenodd;}</style></defs><title>erzurum</title><g id="Layer_2" data-name="Layer 2"><g id="map"><path class="cls-1" d="M109,96c.78-1,3.4-4.37,5-6.71a3.89,3.89,0,0,0,.11-3.84,13.13,13.13,0,0,0-4-4.79c-.83-.65-1.69-1.3-2.52-1.91-2.6-1.94-4.82-3.6-5.51-5.27-.52-1.28,0-2.38,1.23-3.45A24.71,24.71,0,0,1,108.45,67c2.27-1.06,3.87-2,5.22-2.72h0a36.22,36.22,0,0,1,3.26-1.69,6,6,0,0,1-.88-1.62,4.23,4.23,0,0,0-2.6-2.7,12.53,12.53,0,0,0-3.56-.88c-2-.26-3.32-.44-4.44-3.16a22.6,22.6,0,0,1-.84-2.46c-.45-1.53-.58-2-3-2.27a25.7,25.7,0,0,1-4.9-.87,5.64,5.64,0,0,1-3.3-2.55,9.75,9.75,0,0,0-1.31-1.69C91,43.26,90.41,42.62,91.78,41s2.33-1.83,5.35-2.23l2-.28a17.54,17.54,0,0,0,8.3-3.38h0l.06,0,.21-.14c1.63-1.13,4-2.74,4.15-4.57a7.55,7.55,0,0,0-.42-2.58,9.67,9.67,0,0,1-.31-5.59,15.47,15.47,0,0,0,.51-3.46c.08-1.32.15-2.32.79-2.92a5.83,5.83,0,0,0-.23-2.56h0a9.45,9.45,0,0,0-2.74-3.54,7.14,7.14,0,0,0-4-2.14,13.62,13.62,0,0,1-3.9-1.37c-3.7-1.92-3.71-3.54-3.72-5,0-.23,0-.45,0-.67a3,3,0,0,1,0-.33A9,9,0,0,1,94.7,1,20.58,20.58,0,0,1,90.26,1a28.62,28.62,0,0,1-3-.5A17,17,0,0,0,83,0c-2.31.06-2.7.45-3.72,1.48h0l-.69.69h0a4.87,4.87,0,0,0-1.38,2.37,5.46,5.46,0,0,0,.11,2.88,9.84,9.84,0,0,1,.3,3,19.67,19.67,0,0,1-.45,3.76A11.29,11.29,0,0,1,75.73,17h0a9,9,0,0,1-1.91,2.19c-1.25.91-2.48.81-4.67.64l-.92-.07h-.11c-2.56-.18-5.45-.39-6.72.18-.79.35-2.37,2.36-3.7,4.07-.77,1-1.46,1.86-1.92,2.32a5.65,5.65,0,0,1-2,1.43h0a3.53,3.53,0,0,1-2.45-.07C49.42,27,49.76,21,49.88,18.88l0-.41c0-.48.08-.85.12-1.17a3.13,3.13,0,0,0-.16-1.88c-.19-.48-2-1.38-3.93-2.29s-3.93-1.9-4.53-2.75l0,0c-.4.44-.94,1.07-1.49,1.81a5.05,5.05,0,0,0-.81,1.71,7.53,7.53,0,0,1-1.2,2.47c-1,1.44-1.07,1.44-2.21,1.29a11.4,11.4,0,0,0-2.55-.08c-2.3.14-2.5.35-3.09,1A11,11,0,0,1,28.33,20c-1.56,1.11-1.5,1.54-1.42,2.12a3.84,3.84,0,0,1,0,1.34,3.78,3.78,0,0,1-1.51,2.33h0A11.71,11.71,0,0,0,24,27.27a2.51,2.51,0,0,1-2.79,1.13,6.06,6.06,0,0,0-2.51.18A8.88,8.88,0,0,0,15.18,31c-.44.42-.87.83-1.3,1.17A6,6,0,0,1,13,35l-.47.63a8.63,8.63,0,0,0-1.41,2.55c-.49,1.17-.27,1.27.38,1.54a11.33,11.33,0,0,1,1.09.51c.52.28,1,.49,1.33.67,1.26.63,2,1,1.75,1.81-.13.46-.72.82-1.49,1.1a17.56,17.56,0,0,1-2.16.57,3.08,3.08,0,0,0-1.44.87,2.48,2.48,0,0,0-.8,1.27A7.71,7.71,0,0,0,11,48.9a5,5,0,0,0,1.48,1.6c.51.2,1,0,1.49-.35h0a7.3,7.3,0,0,1,1.1-.54c1-.38,1.72.33,2.53,1.12a4.74,4.74,0,0,0,1.58,1.19c.42.14.52-.16.62-.5A2.47,2.47,0,0,1,20.66,50a1.67,1.67,0,0,1,1-.34,1.74,1.74,0,0,1,.84.23h0a2.1,2.1,0,0,1,.64.56,2.14,2.14,0,0,1,.43,1.27,7.17,7.17,0,0,1-1.73,3A42.31,42.31,0,0,1,18,58.92l-.86.79C14.7,62,9.22,67.08,7,67.5a6,6,0,0,1-3.93-.82l-.61-.28a13,13,0,0,0-2,2.12C.14,69,0,69.42,0,69.66a3.57,3.57,0,0,0,1,1.68,2.84,2.84,0,0,0,1.62.74A11.28,11.28,0,0,0,4.92,72a10.59,10.59,0,0,1,5.15.42,7.28,7.28,0,0,1,3,2.29,7,7,0,0,1,1.43,3.48,5.53,5.53,0,0,1-.23,2.09,2.13,2.13,0,0,0,.64,2.56c.53.46,1.08.91,1.63,1.36,1.66,1.34,3.3,2.66,3.91,4.24a7.59,7.59,0,0,1,.38,2.16c.1,1.34.21,2.71,1.89,3.39a6.39,6.39,0,0,0,2.78.48c1.15,0,1.71,0,1.83,1.42s-3.48,2.24-6.81,2.62a6.08,6.08,0,0,0-1.06,2.2,4.65,4.65,0,0,0-.11,2.29,1.88,1.88,0,0,0,1.21,1.24,8.87,8.87,0,0,0,4.24.23,60.86,60.86,0,0,0,6-1.25c4.14-1,8.72-2.09,11.18-1.59,3,.62,3.49,1.81,4,3.28a8.85,8.85,0,0,0,.59,1.33c.75,1.29,1.69,1.36,3.38,1.47.46,0,1,.06,1.57.12a9.58,9.58,0,0,0,3.55-.38,16.34,16.34,0,0,1,4.32-.6,7.87,7.87,0,0,1,6.09,2.33h0c.32.27.66.55,1.06.85A20.65,20.65,0,0,1,70,114.33c1.29,1.91,2.57,3.78,3.44,4.08a12,12,0,0,0,3,.61,15.33,15.33,0,0,0,3.62-.19,31.78,31.78,0,0,0,5.13-1.6,43.65,43.65,0,0,1,5.15-1.68,15.21,15.21,0,0,0,5-2.47,14.55,14.55,0,0,0,3.94-3.85,31.61,31.61,0,0,0,2-4.88,34.84,34.84,0,0,1,1.41-3.61,10.12,10.12,0,0,1,2.85-3.27A6.92,6.92,0,0,1,109,96Z"/></g></g></svg>