<svg xmlns="http://www.w3.org/2000/svg" viewBox="0 0 102.78 73.12"><defs><style>.cls-1{fill:#bfbfbf;fill-rule:evenodd;}</style></defs><title>eskisehir</title><g id="Layer_2" data-name="Layer 2"><g id="map"><path class="cls-1" d="M80.18,70.24a16.7,16.7,0,0,1,1.94,1.1,8,8,0,0,0,2.6,1.18h0c.47.12.88.26,1.23.38,1,.31,1.34.44,1.68-.48A9.36,9.36,0,0,0,88,71.29c.28-1.17.49-2,2.56-3.54a8.38,8.38,0,0,1,3-1.44A4.64,4.64,0,0,0,95.84,65h0c2.08-2.08,2.08-2.08,3.78-2.25a4.07,4.07,0,0,0,2.17-1.11,2.78,2.78,0,0,0,1-1.79c0-.42-.42-.66-.95-1a3.9,3.9,0,0,1-2.41-3.05c-.11-.7-.22-1.25-.32-1.72A8.39,8.39,0,0,1,99.29,49c.14-.49.28-.91.39-1.26.49-1.53.5-1.56-.47-3.61A9.31,9.31,0,0,1,98,40.49h0c0-.29-.09-.65-.17-1.16a11.54,11.54,0,0,1-.14-1.49c0-.84,0-1.22-1.43-2.7a11.56,11.56,0,0,0-2.41-1.83c-1.59-1-2.89-1.8-2.6-3.72.21-1.39,1.39-2.14,2.52-2.86s2-1.28,1.75-2.3c-.18-.69-.29-1.21-.38-1.64-.26-1.18-.36-1.66-1.05-2.09a4.94,4.94,0,0,0-1.45-.39c-1.71-.31-3.76-.68-3.82-3,0-.79,0-1.37,0-1.83,0-.91.07-1.2-.67-1.67A3,3,0,0,1,87,11.88a2.63,2.63,0,0,0-1.69-2.06,7.89,7.89,0,0,0-4,0,9.39,9.39,0,0,1-3.9.06A9.79,9.79,0,0,1,75,8.92h0a12.48,12.48,0,0,0-2.59-1c-1.22-.37-1.51-.24-1.85-.1C70,8,69.37,8.3,67,7.75c-1.12-.26-1.9-.48-2.51-.64a9.5,9.5,0,0,0-4.28-.39,22.83,22.83,0,0,1-3.56,0h0a11.21,11.21,0,0,0-2.24,0,6,6,0,0,0-2.05.66,8.33,8.33,0,0,1-3.12.91A6.21,6.21,0,0,1,46,7.85a4,4,0,0,1-1.91-2.06h0a38.13,38.13,0,0,1-1.42-4,6.62,6.62,0,0,1-1.21-.48A10.5,10.5,0,0,0,37.17.08c-.63,0-1.2,0-1.75,0a9,9,0,0,0-5.19,1,17.65,17.65,0,0,0-4.44,3.37,18.12,18.12,0,0,1-2,1.74c-1.35,1-1.35,1-1.34,2.13v.63c0,.43,0,.77,0,1.05h0c.07,1.5.11,2.06-1.54,2.89h0a7.21,7.21,0,0,1-2.41.54c-1.16.12-2.32.25-2.62,1.09a10.13,10.13,0,0,0-.35,1.4c-.32,1.59-.61,3-2.82,3.35a37.79,37.79,0,0,1-4.22.24,16.73,16.73,0,0,0-4,.31h0A15.42,15.42,0,0,0,1.05,22.1c-.63.6-1.09,1.22-1,1.71a18.93,18.93,0,0,0,.63,3.56,4.38,4.38,0,0,0,.91,1.83c.31.29,1.58.25,2.94.21,1.86-.06,3.85-.12,4.71.79a2.91,2.91,0,0,1,.56,2.6,3.23,3.23,0,0,0,.71,2.86,18.69,18.69,0,0,0,3.21,2.52c1.28.87,2.39,1.61,2.73,2.43a20.65,20.65,0,0,1,1.24,4.53A3.48,3.48,0,0,1,17.13,48a5.91,5.91,0,0,1-1.59,1h0c-.61.31-1.13.57-1,1,.43,1.36,4.92,10,5.11,10.4.58.22,1.72.69,3.13,1.34a5,5,0,0,1,2.35,2.58,3,3,0,0,0,1.16,1.46c.63.28,1.41-.22,2.24-.75A7.59,7.59,0,0,1,30.7,64c1.44-.36,2,.59,2.57,1.52h0c.27.44.53.88.83.95a11.94,11.94,0,0,0,2.95.07,13.4,13.4,0,0,0,3-.5c.57-.2.89-.8,1.23-1.44a4.64,4.64,0,0,1,1.65-2,3.28,3.28,0,0,1,2.76-.25,9.76,9.76,0,0,0,2.73.25c1.21-.06,3.54-1.16,5.93-2.3,3-1.42,6.12-2.9,7.79-2.63h0c2.1.34,3.14,2.81,4.17,5.26h0A18.06,18.06,0,0,0,68,66.21c1.21,1.7,6.09,2.53,9.09,3a13.54,13.54,0,0,1,2.55.56h0a1.08,1.08,0,0,1,.49.52l0-.09Z"/></g></g></svg>