<svg xmlns="http://www.w3.org/2000/svg" viewBox="0 0 82.66 52.18"><defs><style>.cls-1{fill:#bfbfbf;fill-rule:evenodd;}</style></defs><title>gaziantep</title><g id="Layer_2" data-name="Layer 2"><g id="map"><path class="cls-1" d="M81.55,45.53c-4,1.65-8.33,4.05-11,4.6-3.59.75-3.74-.3-6.28.9l-2.4,1.14C60.69,49.84,59,47,57.15,45.49A20.43,20.43,0,0,1,55.4,43.8a8.28,8.28,0,0,0-5.94-3.15,9.19,9.19,0,0,0-4.88.75,6.83,6.83,0,0,1-4.63.46,21.46,21.46,0,0,0-4.6-.51c-2-.06-3.45-.11-4.08-1.3a3.32,3.32,0,0,1-.39-2.17,2.38,2.38,0,0,0-1-2.56c-1.27-1.06-1.78-.8-2.24-.56-.09,0-.18.09-.46-.13A3.66,3.66,0,0,1,26.27,33c-.42-1.18-.82-2.29-2.21-2.16a3.39,3.39,0,0,0-2.43,1.45,5.12,5.12,0,0,0-.93,3h0v.27c0,1.63,0,2.58-2.6,3.85-1.54.76-3.14,1.55-4.44,2.24h0a14.75,14.75,0,0,0-2.76,1.71,7.34,7.34,0,0,0-1.15,2.85c-1.24-1.34-2.47-2.64-3-3a4.67,4.67,0,0,0-2.29-1A5,5,0,0,1,4,42a6.61,6.61,0,0,1-1.29-.86c-.76-.59-1.63-1.35-2.25-1.93A3,3,0,0,0,0,38.9c.16-1,.93-5.29,2.12-7.12l.16-.25A28.17,28.17,0,0,1,6.36,26.2a7.49,7.49,0,0,0,1.75-3A9.85,9.85,0,0,0,11.46,23l.16,0c1.6-.48,4.68-1.4,6.23-3.1a24,24,0,0,0,1.59-2.08c1.15-1.62,2.44-3.42,3.29-3.45a4.51,4.51,0,0,1,1.9.24,4.83,4.83,0,0,1,1.64,1.16,5.47,5.47,0,0,1,.95,2.88A8.8,8.8,0,0,0,28,21.38a7.6,7.6,0,0,0,1.84,2.35,2.93,2.93,0,0,0,3,.53c1.24-.45,2.45-2.33,3.66-4.21a18.28,18.28,0,0,1,2.51-3.38,35.72,35.72,0,0,1,3.85-2.87,40.52,40.52,0,0,1,4.32-2.5h0c1.62-.79,3.37-.49,5.13-.19a16.33,16.33,0,0,0,3.16.33C57.6,11.37,58,10,58.52,8.07a14.14,14.14,0,0,1,1.23-3.27,12.12,12.12,0,0,1,2.31-3.23A6.72,6.72,0,0,1,64.52.27c1.19-.41,1.33-.3,1.78.06a9,9,0,0,0,1.44,1,11.37,11.37,0,0,0,3.62,1.15,25.57,25.57,0,0,0,4,.26A4.73,4.73,0,0,1,78,3.28a3.2,3.2,0,0,1,1,1.09,13.17,13.17,0,0,0-2.38,2.75h0c-.49.65-1.08,1.44-1.81,2.37s-1.1,1.37-1.44,1.79a12.3,12.3,0,0,0-.9,1.19,8,8,0,0,0-.73,1.82l-.15.46h0c-.74,2.21-.42,2.54.42,3.44a7.77,7.77,0,0,1,1,1.23c.63,1,.5,1.32.33,1.78A4,4,0,0,0,73,23.36c.25,1.91,1,2.7,2.51,4.42.43.48.93,1,1.5,1.71,1.55,1.82,1.5,2.06,1.36,2.74a7.23,7.23,0,0,0-.15,2c.11,2.13.6,2.24,1.64,2.5a4.31,4.31,0,0,1,1.86.9c.93.75.84,1,.71,1.36a3.29,3.29,0,0,0,0,2.57A3.27,3.27,0,0,1,82,44.65c-.15.27-.3.56-.45.88Z"/></g></g></svg>