<svg xmlns="http://www.w3.org/2000/svg" viewBox="0 0 60.51 69.39"><defs><style>.cls-1{fill:#bfbfbf;fill-rule:evenodd;}</style></defs><title>giresun</title><g id="Layer_2" data-name="Layer 2"><g id="map"><path class="cls-1" d="M6.47,11.88A7.48,7.48,0,0,0,9,12c4.71-.45,4.34-1.57,5.9-1.2s3.22,2.32,5.46,2.32,6.13,1.5,8.37-.6S30,7.05,32.9,8.17s1.95,3.66,3.74,2.24,2.65-3.62,5-4.15,3.36.67,4.26-.67-.07-2,2.47-1.87,4.18.45,5.76-.22S56.86.58,59.4.06a2.55,2.55,0,0,1,1,0,9,9,0,0,1-1,3.44l0,.11a9.71,9.71,0,0,0-.45,5l0,.32a2.73,2.73,0,0,1-.45,1.54,3.63,3.63,0,0,0-.51,2.8A19.47,19.47,0,0,0,59.25,17a9.72,9.72,0,0,0,1.27,2.06c-1.08.93-3.5,2.87-5.1,3-1,.09-1.21-.13-1.47-.37a2.64,2.64,0,0,0-2-.83c-1.07-.07-1.47.31-1.52,1a4.29,4.29,0,0,0,.47,1.71h0a7,7,0,0,1,.6,2c.09,1.13-2.24,2.73-4.49,4.28-.94.64-1.86,1.28-2.63,1.89a9.78,9.78,0,0,0-2.68,3.51,13.91,13.91,0,0,0-1.23,4.78c-.13,1.86,2,3.06,4.47,4.5,1,.57,2.09,1.2,3.1,1.9a18.65,18.65,0,0,0,5.33,2.41c1.14.36,2,.63,2.2,1,0,0-.22.19-.59.4s-1,.51-1.7.8a17.8,17.8,0,0,0-3.46,1.81c-2.29,1.7-2.28,2.72-2.25,5.33,0,.2,0,.43,0,1a6.93,6.93,0,0,0,2.09,5.2c.26.3.52.62.79,1a5.07,5.07,0,0,1,1.14,2.06c.05.47-.24.93-1.07,1.47A1.8,1.8,0,0,1,48,68.83a11.5,11.5,0,0,0-1.24-.77,6.4,6.4,0,0,0-4.18-.4,20.57,20.57,0,0,1-2.08.19c-2.26.07-2.36,0-4.72-1.49l-.35-.22c-2.75-1.73-3.51-1.69-4.83-1.6l-.36,0a8.59,8.59,0,0,0-2.72.81h0a17.81,17.81,0,0,1-2.87,1c-1.13.27-2.77-1.41-4.28-2.94a11.08,11.08,0,0,0-3.1-2.57,9.42,9.42,0,0,1-2.65-1.39h0a3.3,3.3,0,0,1-1.26-2.26,30.54,30.54,0,0,1-.08-4c0-1.1,0-2.15,0-3.05A5.4,5.4,0,0,0,12,47.35,4.21,4.21,0,0,1,11,45,11.69,11.69,0,0,0,10,40.54v0c1.19-.79,1-1.59.7-2.7a5.41,5.41,0,0,1-.23-1.4c0-1.26-.72-1.63-1.82-1.63a11.65,11.65,0,0,0-1.75.2,6.52,6.52,0,0,1-3.35,0c-.93-.41-.78-.8-.49-1.53a8.19,8.19,0,0,0,.68-3.18A3,3,0,0,0,1.69,27,2.78,2.78,0,0,1,.14,25.7c-.46-1,.31-2.46,1.06-3.9s1.39-2.68,1.23-3.86c-.14-1,1.29-2.72,2.71-4.42.46-.55.92-1.1,1.33-1.64Z"/></g></g></svg>