<svg xmlns="http://www.w3.org/2000/svg" viewBox="0 0 66 59.4"><defs><style>.cls-1{fill:#bfbfbf;fill-rule:evenodd;}</style></defs><title>gumushane</title><g id="Layer_2" data-name="Layer 2"><g id="map"><path class="cls-1" d="M51.62,53.94c-1-.35-2.71-1-4.19-1.77a10.81,10.81,0,0,1-2.74-1.69c-.83-.89-.67-1.24-.39-1.86a2.35,2.35,0,0,0,.24-1.07,11.81,11.81,0,0,0-.09-1.31,8.05,8.05,0,0,1,.1-2.83c.3-1.55,1.49-2.16,2.95-2.91a15.88,15.88,0,0,0,2.09-1.22c.49-.36,1-.71,1.58-1.06,1.72-1.11,3.48-2.25,3.72-3.74.18-1.07-.61-1.91-1.37-2.72h0a5.68,5.68,0,0,1-1.46-2.1c-.55-1.79.29-3.67,1.41-6.17l.26-.58A18.87,18.87,0,0,1,56.13,19a8.28,8.28,0,0,1,2.69-2.41,8.89,8.89,0,0,1,3.84-.12,8.35,8.35,0,0,0,3.18,0c.33-.16.11-.81-.16-1.57a6.49,6.49,0,0,1-.51-2.36,4.82,4.82,0,0,1-1-.92,11.57,11.57,0,0,1-1.54-3.11,1.76,1.76,0,0,0-.7-1h0a.71.71,0,0,0-.49-.07,1.4,1.4,0,0,0-.58.3,1.77,1.77,0,0,0-.64,1,2.51,2.51,0,0,0,.31,1.35,3.83,3.83,0,0,1,.4,2.5h0a1.55,1.55,0,0,1-.76,1.09,2.17,2.17,0,0,1-1.28.24h0a3.82,3.82,0,0,1-1.29-.37,3.1,3.1,0,0,1-1.73-1.86c-.24-.92-.86-1.3-1.77-1.83-.43-.25-.91-.54-1.42-.91-1.44-1-1-1.9-.35-3a4.3,4.3,0,0,0,.67-2,1.07,1.07,0,0,0-.18-.69h0A.67.67,0,0,0,52.42,3h0a1.75,1.75,0,0,0-.77.09A3.16,3.16,0,0,0,50,4.41a10,10,0,0,0-.85,4.26,11.35,11.35,0,0,1-.49,3.24,5.14,5.14,0,0,1-1.88,2.38,4.9,4.9,0,0,1-2.88.82c-1.2,0-2.32-1.23-3.46-2.45s-2.08-2.24-2.92-2.22c-2.2,0-3.2-.64-6.6-3l-.55-.38h0c-1.35-.92-3.06-2-4.73-3.06-2.48-1.57-4.86-3.07-6-4-1.12,1-3.84,3.16-5.8,3.35a2.39,2.39,0,0,1-2.35-.68,1.69,1.69,0,0,0-1.26-.52c-.24,0-.32-.06-.32,0a4,4,0,0,0,.38,1.2h0A8,8,0,0,1,11,5.67C11.16,7.44,8.57,9.22,6,11c-.91.63-1.82,1.25-2.56,1.84a8.71,8.71,0,0,0-2.37,3.11A12.62,12.62,0,0,0,0,20.28c-.08,1.16,1.72,2.2,3.9,3.45,1,.59,2.13,1.22,3.19,2a17.67,17.67,0,0,0,5,2.26c1.38.44,2.42.76,2.84,1.52s-.05,1.39-1,1.94c-.48.27-1.12.55-1.8.84A17.2,17.2,0,0,0,8.9,33.93c-1.83,1.36-1.82,2.22-1.8,4.42v1a6,6,0,0,0,1.83,4.47c.27.32.55.66.83,1a5.82,5.82,0,0,1,1.36,2.61,2.18,2.18,0,0,1,0,.54l.3.07A14.28,14.28,0,0,1,16,49.78h0a19.63,19.63,0,0,0,2.78,1.49c1,.46,2.24,1.06,4.13,2.07l.37.2A68.91,68.91,0,0,0,31,57.29c1,.42,1.58.72,2,.93a3.34,3.34,0,0,0,.7.31,4.39,4.39,0,0,0,1.41-.21l.43-.09a12.76,12.76,0,0,0,2-.59h0a2.92,2.92,0,0,1,2.67,0,5.59,5.59,0,0,1,1.73,1.11c.55.46,1,.84,1.84.54a19.68,19.68,0,0,0,3.42-1.83c.74-.46,1.49-.92,2.19-1.28a9.92,9.92,0,0,0,2.29-2.24Z"/></g></g></svg>