<svg xmlns="http://www.w3.org/2000/svg" viewBox="0 0 80.02 56.19"><defs><style>.cls-1{fill:#bfbfbf;fill-rule:evenodd;}</style></defs><title>hakkari</title><g id="Layer_2" data-name="Layer 2"><g id="map"><path class="cls-1" d="M57.82,2c.12.11.47.08,1.24-.14,2.92-.82,1.87-3.07,4.26-1s3.07,1.57,3.22,3.66-4,3-2.76,4.86,2.69.3,3.36,2.39-.84,1.33-.76,2.75,1,1.75.86,3.18.56.67.34,2.62-2.21,2-.26,2.65,2.5-1,3.18.79-.64,2.73,1.76,2.58,3.21,1.08,3.55,1.79,2.13-.6,3.33,1.46.9,2.05.75,3.55-2.54,1.42-2.24,3.51,1,2.47.82,3.44-4,0-5.38-.08-.82-2.62-2.09-1.57S63.46,48,61.26,49.35s-4.23-.71-4.37,1.16,1.27,5.23-.52,5.61a4.93,4.93,0,0,1-5.24-3.29c-.9-2.47-2.91-1.65-2.61-4.19s.3-3.44,1.42-4.18,1.72.14,2-1.42A5.75,5.75,0,0,0,50,37.21a12.09,12.09,0,0,0-6.2-2.92c-1.65-.07-5.23-.52-6.43.23s-4.19,4-4.11,5.16.37,2.24-1,2.32-1.94,1-3.81-.15-3.22-2.17-6-1.2-2.69,2.84-4.34,2.1-2.39-3.89-4.34-2.84-2.24,2.7-3.89,1.5-1.49-2.84-2.84-2.84-1.34-1-3.74-1.34l-.17,0a6.66,6.66,0,0,0-.93-3A4.43,4.43,0,0,0,.37,32.39h0L0,32.19H0C0,32.14,0,32,.27,31.62a3.76,3.76,0,0,1,1.14-1.08h0c.7-.46,1.13-.75,1.13-2.46a4.49,4.49,0,0,0-.61-2.18c-.41-.82-.78-1.57.44-3.42a11.23,11.23,0,0,1,3.43-3.24,7.27,7.27,0,0,0,2.65-2.56c1-1.93.65-5.07.45-6.29.6-.11,1.55-.4,2.68-.74C14,8.93,17.17,8,19.14,8h1A35.05,35.05,0,0,0,29.5,7a12.72,12.72,0,0,0,7.08-4.33A13.92,13.92,0,0,1,38.46.91c1.05-.75,1.35-1,1.38-.9a5.05,5.05,0,0,1,.37.79c.11.28.24.59.39.93.54,1.18-.06,2.37-.59,3.43a4.81,4.81,0,0,0-.73,2.27c0,1.07.3,1.63,1,1.8a5.3,5.3,0,0,0,2.54-.47h0C44,8.4,45.06,8,46.35,7.69S49,7,50.72,6.69a12.47,12.47,0,0,0,6.59-4.12l.43-.44L57.82,2Z"/></g></g></svg>