<svg xmlns="http://www.w3.org/2000/svg" viewBox="0 0 49.52 78.96"><defs><style>.cls-1{fill:#bfbfbf;fill-rule:evenodd;}</style></defs><title>hatay</title><g id="Layer_2" data-name="Layer 2"><g id="map"><path class="cls-1" d="M47.47,13.25a3.19,3.19,0,0,1-.46,1c-1,1.34-1.95,1.49-1.95,2.69s1.72,1.5.3,3.29-2.32,1.87-2,3.89,1.27,4.86.3,5.9-2.84,1.72-2.47,3.29-1.61,2.43.64,4.37,2.84.6,3.07,2.69-1.12,1.94.3,3.07,2.24-.07,2.61,1.72,1.42.9,1.65,2.92.15,3.14-1.8,3.29-1.72.75-4.56-.3-3.89-1.35-5,.45-.9,2.62-2.09,1.79-.3-1.49-2.17-2-2.54-1-2.24,2.32-.3,3.14.45,5.31,1,3.14.82,5,.3,2.39-.82,2.91-2.76-2.24-3.44-1.12.86,4.75-.63,4.45-3.14-3.22-3.59-1.57-.67,2.69-1.79,3.66S23,78.88,21.81,79s-2.24-2.69-4.26-3.29-3.06,1.42-4.49-.6,1.42-3.66-.9-3.81-2.77.67-3.74.67,2.13-3.78,2.28-5.57S10,63.14,8.84,60.6,2.56,51.18,1.51,49.16s-2.17-1.65-1-3.29a15.63,15.63,0,0,1,4.19-4.71c2.77-2.24,1.76-1.61,3.63-4s2.61-2.24,4.63-3.74,2.76-2.84,4.63-4.11a21.14,21.14,0,0,1,3.29-1.79C22.49,26.62,22,27,23,25s1-1.87.45-3.06-1.57.67-1-2.32.52-4.78-.45-6S15.23,6,14.71,5.91s-2.76-.22-3.44.6c-.33.41-1,1.28-1.93,2.28A6.91,6.91,0,0,1,7.25,6.51C7.15,6.15,8.58,4.75,10,3.39h0a15.48,15.48,0,0,0,2.65-3,6.42,6.42,0,0,0,3-.06A6.49,6.49,0,0,1,16.85.12a2.94,2.94,0,0,1,1.71.46,4,4,0,0,0,2.57.58A7.89,7.89,0,0,0,23.35.48,2.83,2.83,0,0,1,25.68.15a1.17,1.17,0,0,1,.6.79c.3.84.62,1.75,3.22,2.17h0l1.15.19c3,.48,5.45.87,6.33,1.69.63.59,1.53,1.38,2.33,2a7.29,7.29,0,0,0,1.6,1,5.21,5.21,0,0,0,.7.18,3.72,3.72,0,0,1,1.8.79c.62.51,2.55,2.6,4.06,4.26Z"/></g></g></svg>