<svg xmlns="http://www.w3.org/2000/svg" viewBox="0 0 82.15 76.85"><defs><style>.cls-1{fill:#bfbfbf;fill-rule:evenodd;}</style></defs><title>isparta</title><g id="Layer_2" data-name="Layer 2"><g id="map"><path class="cls-1" d="M66.2,5.15a19,19,0,0,1-5.11-1.93A3.28,3.28,0,0,1,59.64.56h0A1.52,1.52,0,0,0,59.53,0c-.68-.1-1.36.13-3.45.82l-2.43.8c-2.14.69-2.29,1.11-2.52,1.79a6.18,6.18,0,0,1-1.9,2.86,7.19,7.19,0,0,1-3.29,2,4.07,4.07,0,0,0-2.21,1.51,30.74,30.74,0,0,1-5.52,4.33,42.57,42.57,0,0,1-7,3.85l-.41.14h0c-2.65.93-7.6,2.67-9.44,4.17a8.15,8.15,0,0,0-1.9,3,12,12,0,0,1-2.95,4.44h0a10.41,10.41,0,0,1-4,2.14,13,13,0,0,0-3.59,1.7c-2.46,1.7-3.18,3.57-4,5.72-.18.46-.36.94-.57,1.44a6.86,6.86,0,0,1-2.79,3.26A5.91,5.91,0,0,0,0,45.48a1,1,0,0,0,1.07.63A3.1,3.1,0,0,0,3.2,44.78a4.18,4.18,0,0,1,2.6-1.66c.56-.06,1.15-.07,1.74-.08a8.82,8.82,0,0,0,4.54-1,6,6,0,0,0,1.55-1.34h0c.86-1,1.28-1.44,3-.2a9.68,9.68,0,0,0,1.09.68c1,.57,1.28.7,3.23,4.49h0l.45.87c2,3.9,2.58,5,6.75,6.16,1.35.37,2.36.55,3.17.7,2.26.42,3,.56,4.07,2.74A6.41,6.41,0,0,1,36.08,59a6.07,6.07,0,0,0,1.24,3.55c.81,1.26,1.45,2.38,2,3.4a24.24,24.24,0,0,0,2.92,4.37,12.53,12.53,0,0,1,1.8,2.73c.18.34.36.67.55,1a5.77,5.77,0,0,0,.69.94h0a4.6,4.6,0,0,0,1,.81h0l.48.3h0c1.47.95,1.78,1.14,3-.35h0l.48-.58c1.44-1.74,2.2-2.65,5.82-3.35A9.45,9.45,0,0,0,58.5,71c1.59-.75,2.55-1.2,7,.85l.08,0a34.57,34.57,0,0,0,1-4.63,16.73,16.73,0,0,0,.22-4.38A2.28,2.28,0,0,0,66,61.55c-.88-.84-1.53-1.46.26-3.92A15.76,15.76,0,0,1,70.52,54c1.61-1.07,3.08-2,3.5-3.43s-.68-3.19-1.7-5.05c-1.13-2.08-2.21-4.06-1.47-5.43A4.73,4.73,0,0,0,71.33,38a4.19,4.19,0,0,1,2.12-3.83A7.62,7.62,0,0,1,78,33.06c1.48,0,2.82,0,3.46-1.2a4.73,4.73,0,0,0,.6-3,6,6,0,0,0-1.44-3c-.81-1-5-4.86-8.2-7.83-1.73-1.6-3.15-2.93-3.58-3.35a9.48,9.48,0,0,1-1.72-3.56,24.77,24.77,0,0,1-1-5.22,2.76,2.76,0,0,1,0-.74Z"/></g></g></svg>