<svg xmlns="http://www.w3.org/2000/svg" viewBox="0 0 138.25 89.14"><defs><style>.cls-1{fill:#bfbfbf;fill-rule:evenodd;}</style></defs><title>mersin</title><g id="Layer_2" data-name="Layer 2"><g id="map"><path class="cls-1" d="M125.51,43.65h-.12c-1.49,0-.6-2.39-3.44-3.59s-5.08-2.55-8.37-1.64-6,1.79-7,3.74a16.18,16.18,0,0,1-6.13,5.68c-2.39,1.2-4,1.34-6.13,2.84s-6.91,7.52-8.78,9.76-4,1-5,4.11,2.54,4.94.3,6-4.18-1-4.63,1.42-.22,5.24-1.94,5.31.6-3.81-1-5.09-1.72-1.94-3.59-1.49-1.5,4-3.59,5S62.56,77,61.29,78.75s.63,3.25-1.16,3.7-.15-4.11-2.54-4.11-2.92,3.29-4.34,4,.37.45-2.77-.3-3.14-1.34-4.71-.45-.45-.23-4-.23S39,83.2,37.17,83.12s-1.87-.45-3.66-.22S31,81.4,30,82.3s-.22,4-2.39,3.51-.82-.75-3.22-.9-2.84-1-5.61-.3S13.81,88.47,12,89s-1.64-.44-3.29-.75S5.14,88.1,4,87a8.77,8.77,0,0,0-4-2.76,7.91,7.91,0,0,0,2.37-3.45,18,18,0,0,0,0-5.86c0-.41-.09-.87-.13-1.26-.09-.86-.09-1.27-.1-1.51h0a2,2,0,0,0-.06-.55,5.77,5.77,0,0,0-.29-.77h0c-.16-.39-.4-1-.75-1.89L.51,67.53l-.23-.62a82.19,82.19,0,0,0,8.35-2.55c2.49-.91,4.66-1.89,5.3-2.66h0c.68-.82,3.59-.78,6.24-.75a17.3,17.3,0,0,0,4.65-.28c1.7-.59,2.47-2.54,3-4a5.46,5.46,0,0,1,.61-1.29,18.35,18.35,0,0,1,3,1.33c1.8.87,3.7,1.8,4.62,1.51h0a1.25,1.25,0,0,0,.5-.29h0a1.27,1.27,0,0,0,.24-1.32,4.51,4.51,0,0,0-.65-1.27,10.82,10.82,0,0,0-2.72-2.7c-.81-.51-2.62-1.92-4.59-3.53s-4-3.34-5.42-4.64a6.24,6.24,0,0,1-1.74-3.71,10.08,10.08,0,0,1,.43-5c.2-.37.61-.24,1.28,0a9.81,9.81,0,0,0,2.37.49c1.73.11,2.06-.3,2.5-.86a2.23,2.23,0,0,1,1-.76c.61-.27,1.17.45,1.64,1.06s1,1.31,1.77,1.14c.91-.21,1.45-1.39,2-2.53a10.75,10.75,0,0,1,.69-1.37h0c.42-.64,2.17-1.4,4.38-2.36,1-.45,2.17-.95,3.36-1.52a5.69,5.69,0,0,1,4.81-.3,16.06,16.06,0,0,0,3.9.65c3,.11,3.35-.77,3.82-2h0a3.55,3.55,0,0,1,1.44-1.88c1.35-.9,2-.58,3.18-.07a12.85,12.85,0,0,0,3.91,1.2c3.07.42,6.32-2,9.55-4.43A37.16,37.16,0,0,1,78.53,19c1.55-.8,2.77-1.49,3.88-2.12a48,48,0,0,1,7-3.39,28.76,28.76,0,0,1,7-1.71,26,26,0,0,0,4.61-1c1.87-.62,2.06-1.82,1.64-3.1a10.35,10.35,0,0,0-1.38-2.45,6.69,6.69,0,0,1-.61-1c0-.14.59-.45,1.48-.86a45.6,45.6,0,0,1,5.29-1.89l.6-.18h0c3.15-1,6.32-1.94,9.53-.87,1.44.48,1.37,1,1.26,1.75a4.63,4.63,0,0,0,1,4c1.73,2.23,4.44,2.12,6.59,2,1.15,0,2.11-.09,2.41.24.63.71,0,1.69-1,3.17-.35.52-.74,1.09-1.11,1.69-1.2,2-.6,4.58-.15,6.55a6.83,6.83,0,0,1,.31,2c-.2.88,0,1.26.65,1.39a3.31,3.31,0,0,0,1.18-.07,10.58,10.58,0,0,1,1.86-.19,9.78,9.78,0,0,0,2.13-.25,2.7,2.7,0,0,1,2.16.18c.71.39.22,1.82-.38,3.56a25.47,25.47,0,0,0-.87,2.93c-.43,2,1.38,4.34,2.91,6.32h0c1,1.32,1.92,2.46,1.75,2.84-.29.68-1,.69-1.78.71a7.33,7.33,0,0,0-2,.24,13.1,13.1,0,0,0-1.67.64h0a5.78,5.78,0,0,1-3,.68,4.48,4.48,0,0,0-3,1.39,14.25,14.25,0,0,0-1.3,1.32Z"/></g></g></svg>