<svg xmlns="http://www.w3.org/2000/svg" viewBox="0 0 93.71 53.74"><defs><style>.cls-1{fill:#bfbfbf;fill-rule:evenodd;}</style></defs>
<title>istanbul</title><g id="Layer_2" data-name="Layer 2"><g id="map"><path class="cls-1" d="M70.93,26.89c3.74.75,4.34,3,8.37,3.14s3.74-.45,6.73.75,2.54.6,6.58,1.49l.73.16c.51,2.1.74,3.87-.91,4.86a12.47,12.47,0,0,1-3.57,1.27,10.81,10.81,0,0,0-4.57,1.92c-.56.45-1,.87-1.43,1.22-1.08,1-1.56,1.38-2.17,1a4.13,4.13,0,0,1-.94-1.34c-.8-1.46-1.65-3-3.66-2a17.67,17.67,0,0,1-2.42.92c-2.32.78-4.85,1.62-5.28,3.73a12.26,12.26,0,0,0-.22,2.82,5.22,5.22,0,0,1-.48,2.71,16.37,16.37,0,0,1-2.42,3h-.2c-2.24.07-2.32,2.24-3,.52s.67-3.59-1-4.48-3.66-.9-5-2.92-1.65-2.84-3.51-4-1.29-3.31-.77-4.5,2.69-3.1,2.88-4.49-1-1.91-.26-3a8.66,8.66,0,0,1,3.66-3.22c1.64-.64,1-1.35,4.82-1a56.47,56.47,0,0,1,8,1.46ZM17.32,4.47C20,6,23.15,7.91,27.64,10.6s8.82,5.08,10.77,6.88,1.65,1.79,6.43,3.74,2.84,1.94,6.73,2.24,3.09.17,3.46.91-2.84,2.51-3,4,.49,2.09.26,3.63-1.79,2.8-2.47,4-.26,1-.93,2.32-3.81,2.76-6.21,2.91S41.86,40,37.6,40s-5.53,2.39-6.8.75-.75-3.59-1.72-5.46S27.81,32.34,27,32.78s1.27,3.29.37,4.71-1.49,1.72-3.44-.3-1-3-4.78-3.29-3.81-1.27-6.51-2.17A10.56,10.56,0,0,0,5.08,32,29.13,29.13,0,0,0,.72,33.55,10.65,10.65,0,0,1,0,29.12a10.32,10.32,0,0,1,1.71-5.05,19.42,19.42,0,0,0,1.7-3.76A20.17,20.17,0,0,0,4,17.81c.21-1.15.29-1.62,1.78-2.92A19.5,19.5,0,0,0,9.5,10.7a5.28,5.28,0,0,0,1-3.67,3.58,3.58,0,0,0-1.61-2.3h0c-.41-.32-.74-.56-.51-1.11A14.69,14.69,0,0,1,11.6,0a45.11,45.11,0,0,0,5.72,4.47Z"/></g></g></svg>
	
	
