<svg xmlns="http://www.w3.org/2000/svg" viewBox="0 0 115.8 100.3"><defs><style>.cls-1{fill:#bfbfbf;fill-rule:evenodd;}</style></defs><title>izmir</title><g id="Layer_2" data-name="Layer 2"><g id="map"><path class="cls-1" d="M52,98.91a1.87,1.87,0,0,0,.54-1.39c-.07-1.34.82-1.2.15-2.62s-1.87-2.84-2.84-2.84-.9,1.57-3.29.22-5.83-6-8.22-6.35-2.92-.67-3.66.07-.75,2.32-1.35,2.32-.45-.45-1.42-1.95.26-5.72-.94-6.84-2.84-.6-3.07-1.72.9-1.57-.37-2-5.61-2-6.05-.75.22,2.39-.6,3.21a7.72,7.72,0,0,0-2,2.47c-.37,1-.67-.6-1.79-1.2s-1.87,1.2-2.54-.3.07-2.09-.75-3-3.66-1.8-3.81-3,.3-2.47-.67-2.69S7.59,73,6.09,72.07s-2.84-2.54-3.74-2.69S-.49,70,.11,68.63s1.72-.15,3.06-1.34,1-3,2.47-2.62.9,4.11,2.76,2.69,3.07-2.62,4.19-2.77,1.12-1.87,1.65-3.14,1.42.37,1.72-.75-3-5.08-3.74-4.56-.82,2.91-1.34,1.94,1.2-2.69.22-4.78-1.31-1.68-1.76-5.87-.3-3.29,2-3.59,4.86,0,6.05,1.27,1.42,3.51,3,5.9S22.5,52.29,23,54.46s-.75,2.62-1.65,3.66-1.94,2.09-.3,3.89,1.34,1.87,2.17,4,1.87,4.63,2.32,2.54-1.87-3.74-.75-6.05,1.42-3.89,2.47-2.62-.3,6.65,3.36,6,1.2-1.27,6.28-1.49,3-1,7.33-.45,4.86,1.95,5.31,0-1.34-1.34-3.14-2.62-1.87-2-3.66-1.87-1.27,2.92-3.51,1.8-.3-1.12-2.09-3.89-4.34-2.09-3.81-3.81,3.36-3.22,1-3.89-3.81-.6-4.26-1.72.45-1.49-.38-3.14-.9-3.36.22-4.11a5.53,5.53,0,0,1,4.78-1.2c2.32.52,1.8,3.07,3.82,1.72s2.84-.37,2-2.32-3-2.62-1-3.22,2.47,1,3.22-.15-.9-1.42,1.49-1.72,1.87,2.24,2.84-.67,1.57-4.94.6-4.94-2.39,3.07-3.07,2.17-.75-2.54-2.24-2.24-1.5,1.87-3.22,1.27a5.66,5.66,0,0,1-4-3.7c-.6-2.09-1.79-2.61.3-4s5.16,0,4.78-2.84-3.29-4.41-5-6.43a8.08,8.08,0,0,1-.66-.88C36,10.49,38,9.06,40,7.66c2.68-1.83,5.46-3.61,7-4.43.64-.34,1.17-.63,1.68-.91C51.14,1,52.93,0,56.37,0c3.15,0,6.77,1.49,8.86,2.36A16.39,16.39,0,0,0,66.85,3h0c.23.06.36.76.52,1.64a8.49,8.49,0,0,0,1.42,3.84,1.81,1.81,0,0,1,.31,1.91,7.87,7.87,0,0,0,.34,5.1,24.48,24.48,0,0,1,1.32,5.7,23.67,23.67,0,0,1,0,3.95,4.86,4.86,0,0,1-1.67,2.69A14,14,0,0,1,65,30.6a7.78,7.78,0,0,1-2.9.22,18.55,18.55,0,0,0-3.11.05c-2.75.32-2.92.81-3.51,2.63h0l-.09.26a6.07,6.07,0,0,1-.86-.72A4.28,4.28,0,0,0,53,32c-.63-.17-1.13.05-1.38,1-.13.5-.21.81-.28,1.08A14.19,14.19,0,0,1,50,37.61a2.67,2.67,0,0,1-1.1,1.21c-.79.49-1.09.68-.22,2.16a4.42,4.42,0,0,0,2.52,1.66c1.15.43,2.35.89,2.5,2.3a23.63,23.63,0,0,1,0,2.78c0,2.27-.1,4.55,1.25,6.46,1.08,1.54,4.32,2.59,7.43,3.6,2.46.8,4.84,1.57,5.77,2.43a8.92,8.92,0,0,1,1.54,1.87,3.61,3.61,0,0,0,2.48,1.85,4.91,4.91,0,0,0,2.56.09,1.65,1.65,0,0,1,2,.83,28.13,28.13,0,0,1,2.06,4c1.36,3,2.84,6.27,4.35,6.56h0l.31,0h0A2.48,2.48,0,0,0,85.69,74a9.47,9.47,0,0,0,1-2.83,12,12,0,0,0,.21-1.8,4.57,4.57,0,0,1,.45-2h0a1.06,1.06,0,0,1,.32-.36.6.6,0,0,1,.35-.09h0a1.59,1.59,0,0,1,.73.25A5.91,5.91,0,0,1,90,68.31a3.67,3.67,0,0,0,3.49,1.48,6,6,0,0,0,2.61-.92c.52-.3.84-.48,1.2.07a3.87,3.87,0,0,1,.14,2.25c-.19,1.82-.38,3.6,2.15,3.83a7.24,7.24,0,0,0,3.23-.32,3.31,3.31,0,0,1,2.14-.07,17.77,17.77,0,0,1,4.37,2,21.3,21.3,0,0,1,4,3.06h0A13.52,13.52,0,0,1,115.54,82a2.88,2.88,0,0,1,.23,1.78,7.18,7.18,0,0,1-1,2.62,2.64,2.64,0,0,0-.52,1.67,7.75,7.75,0,0,0,.34,1l-.83.14-1.52.26a4.44,4.44,0,0,1-3.06-.87c-1-.59-1.86-1.11-3-.59-1.57.72-2.12,2.67-2.63,4.51-.16.57-.32,1.13-.5,1.64-.43,1.17-1.68,1.08-3.19,1h0c-.51,0-1.05-.07-1.59-.07S96.91,95,96.08,95h0c-2.41-.18-5.3-.4-6.88.58-1.35.83-2.68.78-4.69.71-.68,0-1.43,0-2.19,0l-1.66,0c-2.7.05-5.17.1-6.89-1.25a12,12,0,0,0-4.23-2.07,9.12,9.12,0,0,0-4.32-.21c-1.25.29-3,1.94-4.77,3.66-2,1.87-4,3.83-5.23,3.92A3.64,3.64,0,0,1,52,98.94l0,0Z"/></g></g></svg>