<svg xmlns="http://www.w3.org/2000/svg" viewBox="0 0 80.1 72.62"><defs><style>.cls-1{fill:#bfbfbf;fill-rule:evenodd;}</style></defs><title>kars</title><g id="Layer_2" data-name="Layer 2"><g id="map"><path class="cls-1" d="M71.64,0A5,5,0,0,1,74.5,2.74c.9,2.54.41,4.67,1.31,6.39s3,2.54,3.29,5.16-.53,1,.15,3.29a7,7,0,0,1-.82,5.61c-.68.75-1.5,1.94-2.84,3.66s-2.17,3.07-3.51,4.71-2.62,2.09-.52,3.66,3.62,3.1,2.58,5.57,4.63,4.49,4.49,6.73-1.34,1-.22,2.69,2.47,2,1.2,3.44a4.17,4.17,0,0,1-2.17.9,5.39,5.39,0,0,0-2.16.74,4.48,4.48,0,0,1-2,.56A5.46,5.46,0,0,0,70,57c-.84.61-2.21-.07-3.4-.66-.33-.17-.66-.33-1-.46-1.13-.48-2.06-.59-2.53.53a2.54,2.54,0,0,0,.18,2.32c.25.56.48,1.06-.87,2a8,8,0,0,0-2.09,2c-.46.61-.73,1-2.77,1.28a13.62,13.62,0,0,1-3.45.09,10.84,10.84,0,0,0-5.49.76A24.33,24.33,0,0,0,44.32,67a21.82,21.82,0,0,1-5.81,2.7,41.64,41.64,0,0,0-4.06,1.5c-2.56,1.06-4.52,1.88-7.07,1a3.58,3.58,0,0,1-2.52-2.44,5.17,5.17,0,0,0-3.2-3.3,13.64,13.64,0,0,0-3.86-1c-1.59-.21-2.67-.35-3.54-2.47a22,22,0,0,1-.8-2.35c-.61-2.08-.79-2.7-4-3.08a24.89,24.89,0,0,1-4.67-.81,4.59,4.59,0,0,1-2.68-2.05A10.89,10.89,0,0,0,.66,52.91c-.64-.69-1-1.08-.25-2C1.58,49.57,2.37,49.46,5,49.11l2.05-.28a18.53,18.53,0,0,0,8.77-3.57h0l.06,0,.21-.15c1.81-1.25,4.39-3,4.63-5.38a8.28,8.28,0,0,0-.46-3,8.76,8.76,0,0,1-.31-5,16.4,16.4,0,0,0,.55-3.7c.08-1.27.14-2.15.79-2.35a26.19,26.19,0,0,1,4.19-.28c3.22-.08,7.11-.19,8.44-1.06,1.76-1.16,2.29-4,2.68-6h0c.09-.47.17-.91.25-1.25a16.17,16.17,0,0,0,.22-3c0-1.9.07-4,.75-4.85h0a6.66,6.66,0,0,1,2.71-1.6,15.94,15.94,0,0,1,4.29-.9,18.54,18.54,0,0,1,2.14,0,11.41,11.41,0,0,0,4-.4h0A4.13,4.13,0,0,0,53.33,5c.3-.31.47-.48,2,0,.64.19,1.16.37,1.62.53,2,.71,2.88,1,6-.41.68-.3,1.34-.55,2-.79A14,14,0,0,0,71.64,0Z"/></g></g></svg>