<svg xmlns="http://www.w3.org/2000/svg" viewBox="0 0 90.44 80.3"><defs><style>.cls-1{fill:#bfbfbf;fill-rule:evenodd;}</style></defs><title>kastamonu</title><g id="Layer_2" data-name="Layer 2"><g id="map"><path class="cls-1" d="M0,11.69a27.44,27.44,0,0,0,3.22-.76C9.8,9,11.3,6.89,15.33,6s4.49.3,8.22-2.09S27-.14,30.74,0s4.93.9,10.61,2.84S48.08,4.8,55.26,4.8,61.84,3,66,3.9c3.25.7,3.35,2.29,5.88,2.76.66,1.1,1.28,2.19,1.65,2.91a11.39,11.39,0,0,1,.94,3.65,38.41,38.41,0,0,1,.2,4.33,4.23,4.23,0,0,1-.94,2.57h0a2.1,2.1,0,0,0-.43.81c-.09.58.18.9,1.1,1.05a16.55,16.55,0,0,0,2.86,0c2.82-.13,7.09-.34,11,.89a4.57,4.57,0,0,1,1.61.82h0a1.55,1.55,0,0,1,.57,1.43,4.49,4.49,0,0,1-.94,2A19.73,19.73,0,0,1,85.25,31c-2.91,2.06-2.94,2.17-3.46,4-.14.48-.32,1.11-.63,2-1,2.71,0,4.92.86,6.94a11.87,11.87,0,0,1,.91,2.61c.14.83-.32.94-1.13,1.12A9,9,0,0,0,77,50.19c-1.44,1.44-2.69,2.53-3.76,3.45a17,17,0,0,0-3.72,3.91,10.89,10.89,0,0,0-1.58,3.8,7.46,7.46,0,0,0,1.21,5.15,29.19,29.19,0,0,0,2.06,2.94c1.31,1.69,2.28,2.94,2,5.24-.27,2.61-4.44,2.65-7.66,2.67-.63,0-1.23,0-1.74,0l-1.09,0c-2.63.09-3.25.11-5.44,1.88a6.4,6.4,0,0,1-4,1,11.87,11.87,0,0,1-5.16-1.16c-.84-.48-.53-1.08-.1-1.9a7.43,7.43,0,0,0,.91-2.55,10.49,10.49,0,0,0,0-2.38,7.8,7.8,0,0,1,.17-2.58h0l0-.23c.56-2.78.76-3.8-3.1-5.19a16.09,16.09,0,0,0-6.26-.61,35.64,35.64,0,0,0-8,1.5c-2.83.88-2.88,2.14-2.93,3.47a2.33,2.33,0,0,1-1,2.14c-.38.27-.62.19-.81-.07a9,9,0,0,1-.84-1.94c-.63-1.79-1.38-3.9-3.22-4.57a11.84,11.84,0,0,0-4.36-.55,14.28,14.28,0,0,1-6.3-1.08,8.38,8.38,0,0,1-4.72-5.66A4.25,4.25,0,0,0,7,55.52,1.79,1.79,0,0,0,6.35,55l-.24-.73A6.26,6.26,0,0,1,5.77,50c.47-1.79,1.35-2.41,3-3.56.49-.34,1-.74,1.67-1.22a9.66,9.66,0,0,1,3.35-1.58c1.31-.4,2.35-.71,3-2.05.76-1.53.11-1.91-.81-2.46a2.57,2.57,0,0,1-1.46-1.93,3.71,3.71,0,0,1-.07-1.74h0c.12-.49.2-.87-.47-3-.59-1.89-.93-2.88-1.57-3.46s-1.51-.67-3.08-.67a6.8,6.8,0,0,0-3.4.91,4.64,4.64,0,0,1-2.41.66c-1.34,0-2.2-.08-2.71-.11a4.05,4.05,0,0,0-.29-1.1c-.3-.78.86-2.2,2.09-3.71.61-.75,1.24-1.53,1.74-2.28,1.41-2.15.66-3-.87-4.62a23.18,23.18,0,0,1-1.55-1.79A9.38,9.38,0,0,1,.2,12.43c-.06-.25-.13-.5-.2-.75Z"/></g></g></svg>