<svg xmlns="http://www.w3.org/2000/svg" viewBox="0 0 106.57 104.05"><defs><style>.cls-1{fill:#bfbfbf;fill-rule:evenodd;}</style></defs><title>kayseri</title><g id="Layer_2" data-name="Layer 2"><g id="map"><path class="cls-1" d="M96,49.78c.3-1.06,1-3.92.56-5.72a5.73,5.73,0,0,0-1.32-2.16c-1-1.19-2-2.4-1.69-4.63.33-2.44,2-3,3.67-3.59a6.31,6.31,0,0,0,2.19-1.08h0a3.05,3.05,0,0,0,.87-1.85c.28-1.3.67-3.07,3.27-6a12.24,12.24,0,0,0,2.8-4.78,4.26,4.26,0,0,0,.09-2,2.47,2.47,0,0,0-.79-1.34,3.31,3.31,0,0,0-1.38-.68,33.71,33.71,0,0,1-4-1.18A9.79,9.79,0,0,1,97.53,13a5.15,5.15,0,0,1-1.45-2.89c-.26-1-.48-1.88-1.41-1.77-1.42.17-4.13,1.78-6.45,3.17a32,32,0,0,1-3.57,2,2.35,2.35,0,0,1-3.08-.58A5.83,5.83,0,0,0,80.29,12a1.77,1.77,0,0,0-1.94,0A13.81,13.81,0,0,1,75,13.07a27.11,27.11,0,0,1-6.1.21,59.89,59.89,0,0,1-8-1A5,5,0,0,1,58,10.54,4.62,4.62,0,0,0,56.47,9.3a5.67,5.67,0,0,0-2.65-.13c-1.38.14-2.68.26-3.53-.69-1-1.18.17-2.23,1.5-3.37.81-.69,1.66-1.42,1.82-2.07.24-1-.94-1.64-2-2.21A12,12,0,0,1,50.48.2l.14-.2c-3.67,2.57-9.09,6.27-11.25,6.8a13.13,13.13,0,0,1-3.62.09,16.24,16.24,0,0,0-2.63,0c-.8.09-1.34.39-1.25,1.18a20.35,20.35,0,0,0,.94,3.79c.5,1.54.85,2.65.06,3.12l-.79.45C30,16.6,24.5,19.7,23.23,21a4,4,0,0,1-3,1.35,9.4,9.4,0,0,1-3.4-.76,10.58,10.58,0,0,1-2.23-1.16h0a5.57,5.57,0,0,0-2.8-1,33.58,33.58,0,0,0-3.4-.22c0,.25-.06.47-.06.65,0,.64-.57,3-1.16,5.64A69.74,69.74,0,0,0,5.64,33.4c0,.2.63.49,1.28.8,1,.5,2.22,1.06,2.53,2.16a2.65,2.65,0,0,1-.11,1.93,5.18,5.18,0,0,0-.25,2.58A7.48,7.48,0,0,0,10,43.62,5,5,0,0,1,10.66,47c-.36,2.37-4.28,7.1-5.51,8.58h0l-.3.36h0c-.41.51-1.29.48-2.28.44S.17,56.29,0,57a4.44,4.44,0,0,0,.82,2.85,29.52,29.52,0,0,0,2.69,3.67,13.9,13.9,0,0,1,2.75,5.1h0c.22.63.48,1.34.86,2.3a11,11,0,0,1,.71,3C8,74.87,8,75.23,10,75.31l1.34,0h0c3.09.1,5.06.16,6.52,1.7.76.79,1.49,3.29,2,6a36.5,36.5,0,0,1,.85,8.3,9.27,9.27,0,0,0,0,1.67c.05,1,.08,1.57-1.23,3.65-.89,1.41-1.54,2.44-2,3.25-.12.24-.22.45-.31.65a20.53,20.53,0,0,1,8.61.22,14.08,14.08,0,0,1,4.51,2.13c1.2.78,2.12,1.37,3,1a4.51,4.51,0,0,0,2-2.41,10.91,10.91,0,0,0,.81-4.39,4.12,4.12,0,0,0-.82-2.31,2.89,2.89,0,0,1-.15-3.65c.39-.7.67-1.28.89-1.75.73-1.52,1-2.06,2.46-2.2a5.4,5.4,0,0,1,1.47.09,2.81,2.81,0,0,0,2.57-.65,12.33,12.33,0,0,0,1.35-1.19,8.07,8.07,0,0,1,2.63-1.78,22.09,22.09,0,0,1,3.21-1.21c1.62-.53,3.14-1,3.77-1.84a29.33,29.33,0,0,0,1.9-2.73,17.76,17.76,0,0,0,1.71-3.79,20.58,20.58,0,0,1,2.42-4.54,51,51,0,0,1,4.29-5.62,19.42,19.42,0,0,1,2.69-2.24,12.53,12.53,0,0,1,2.71-1.57c.94-.32,1.6.12,2.62.8A15.62,15.62,0,0,0,74,62.17a3.77,3.77,0,0,0,1.55.44c.71,0,.88,0,1.83,1.64A38.12,38.12,0,0,1,80,71a5.55,5.55,0,0,1,1-.5h0c.4-.17.63-.27,1.18-1.25.33-.6.77-1.57,1.27-2.68,1.05-2.37,2.38-5.34,3.7-6.87,1.11-1.28,2.89-1.62,4.46-1.91,1.19-.22,2.25-.42,2.48-.94s-.1-1.2-.44-1.88h0c-.55-1.12-1.11-2.26-.16-3.47a4.31,4.31,0,0,1,2.34-1.65h0l.24-.06Z"/></g></g></svg>