<svg xmlns="http://www.w3.org/2000/svg" viewBox="0 0 62.83 58.38"><defs><style>.cls-1{fill:#bfbfbf;fill-rule:evenodd;}</style></defs><title>kirklareli</title><g id="Layer_2" data-name="Layer 2"><g id="map"><path class="cls-1" d="M6.48,6.58c1,.53,1.4.91,1.83-.16.6-1.49-.15-2.54,1.2-2.84s1.34-2.09,2.84-2.39,2.24.6,3.59,1.49,3.59,2.39,4.18.75.75-4,1.95-3.29,5.08,1.34,5.68,4.78,2.69,6.43,4.79,6.88,3.14.9,3.74,2.39,1-1,3.44-1.65,3,0,4.19-.3.9-2.69,2.84-.6,1.95,1,4.34-.45,2.54.15,4.94.9,4.19.45,4.19,1.5v4.33c0,.75-2.69-1.49-3.29.3s-2.69,3.29-.6,6,2.69,1.95,3,4.34,1.95,1.34,2.69,4.19-1.34,2.39.45,5.53c.12.2.25.4.39.61-2,.32-4.74.72-7,.88a13,13,0,0,0-6.54,2.63,14.4,14.4,0,0,1-2.09,1.23,19.16,19.16,0,0,1-4.58,1.14h0c-.92.15-1.91.32-2.94.54-2.7.59-3.87,2.07-5.2,3.75h0c-.28.36-.57.72-.87,1.07h0c-1,1.16-1.15,2.81-1.31,4.37-.14,1.33-.27,2.57-.87,3.13s-2.08.77-3.59.75h0a30.18,30.18,0,0,1-4.39-.44c-1-.17-1.91-1.83-2.73-3.32-.73-1.34-1.41-2.56-2.26-2.86-1.14-.4-3.4-.26-5.38-.14-.85.05-1.65.1-2.28.1A4.63,4.63,0,0,1,7.9,50.49a20.56,20.56,0,0,0-1.73-1.16A11.08,11.08,0,0,0,3,48,14.61,14.61,0,0,0,.28,47.7c-.07-.6-.13-1.24-.22-2.13L0,45c-.15-1.6,1.6-4.08,3.2-6.32,1.25-1.76,2.42-3.4,2.63-4.59.43-2.43-.46-2.63-1.69-2.9h0a4.71,4.71,0,0,1-.89-.26h0c-.28-.13-.3-.37-.13-.71h0a15,15,0,0,1,2-2.59A9.37,9.37,0,0,0,7,22.76a34.84,34.84,0,0,0,.19-6c-.09-2.41-.29-6.26-.68-9.92l0-.25Z"/></g></g></svg>