<svg xmlns="http://www.w3.org/2000/svg" viewBox="0 0 64.47 65.44"><defs><style>.cls-1{fill:#bfbfbf;fill-rule:evenodd;}</style></defs><title>kirsehir</title><g id="Layer_2" data-name="Layer 2"><g id="map"><path class="cls-1" d="M37,65.44c.47-1.68,1.64-5.36,3.15-6.38,1.21-.81,2.2-.3,3.42.32a6.38,6.38,0,0,0,3.3.94c1.6-.08,1.68-1.15,1.76-2.32a6.36,6.36,0,0,1,.45-2.29,3.1,3.1,0,0,1,2.61-1.82,4.21,4.21,0,0,0,1.88-.78c.26-.22.22-.39.09-.55a5.5,5.5,0,0,0-.42-.43c-.69-.67-1.42-1.37-.77-2.46s1.38-1,2.38-.87a4.43,4.43,0,0,0,2.33-.13c.47-.16.57-.33.51-.5a4.66,4.66,0,0,0-.66-1,4.63,4.63,0,0,1-1-2c-.26-1.83.71-2,2.58-2.42l1-.22.78-.2h0a2.09,2.09,0,0,0-.08-.23,3.07,3.07,0,0,1-.23-1.47c.14-1.38,1.41-2.2,2.72-3,.4-.26.81-.53,1.16-.79a1.42,1.42,0,0,0,.52-1.25,2.12,2.12,0,0,0-.12-.61,2,2,0,0,0-.27-.51.9.9,0,0,0-.73-.43,6.44,6.44,0,0,0-2.29,1.06,10.11,10.11,0,0,1-3.57,1.55c-1.18.16-1.65-.19-1.75-.91A4.21,4.21,0,0,1,56.06,34h0a11.22,11.22,0,0,0,.49-2,9.73,9.73,0,0,1,1.63-3.66,29.57,29.57,0,0,1,3.06-3.88c-3.3-2.49-6.46-4.72-7.92-5.55S51.59,17.34,52,16.67h0a3.46,3.46,0,0,1,1.49-1.1h0c.54-.28,1.08-.55,1.08-.72,0-.73-.2-.85-2-1.94-.56-.33-1.25-.74-2.19-1.32-2.13-1.32-2.21-2.21-1.72-3a3.48,3.48,0,0,1,.58-.67c.31-.3.63-.61.32-1-.47-.61-.7-.52-1.26-.3a11.5,11.5,0,0,1-5.74.67c-4.67-.4-4.49-2.49-4.31-4.49h0A3.32,3.32,0,0,0,38,.86c-.66-1.07-1.66-.91-2.78-.73-.39.06-.79.13-1.2.16.07.51-.07.73-.51.87h0a1.46,1.46,0,0,1-.58,0,3.61,3.61,0,0,0-2.11.42h0l-.53.27h0C28.1,3,27.14,3.43,25.84,5.78a16.62,16.62,0,0,0-1.26,3.29,12.87,12.87,0,0,1-2.63,5.37c-1.49,1.63-1.91,1.66-2.56,1.7a3.32,3.32,0,0,0-1.76.65A2.89,2.89,0,0,0,16.06,19a2.72,2.72,0,0,1-1.16,2,2.36,2.36,0,0,1-2.62.09A3.41,3.41,0,0,0,10,20.82a4.62,4.62,0,0,0-2.78,1.89,22.32,22.32,0,0,1-1.91,2,20.52,20.52,0,0,1-4.13,3c-.41.23-.79.45-1.15.7a8.7,8.7,0,0,1,.62,3c0,.86.45,1,1.06,1.28a6.15,6.15,0,0,1,2.22,1.41,2.41,2.41,0,0,1,.87,2.77,2.5,2.5,0,0,0,.07,1.68c.39,1,1.26,1.08,2.27,1.2a7.31,7.31,0,0,1,2.46.59,8.86,8.86,0,0,1,2.73,2.44c.63.75,1.2,1.42,1.73,1.56A2.93,2.93,0,0,1,15.87,46a2.46,2.46,0,0,0,.76.94h0a2.54,2.54,0,0,0,1.54.07A6.41,6.41,0,0,1,20.09,47a2.31,2.31,0,0,1,.84-.12,1.18,1.18,0,0,1,.9.43h0a1.44,1.44,0,0,1,.3.86q0,.11,0,.23a15.3,15.3,0,0,1,3.31,1.17c.86.53.89,1.1.94,2.07a9.74,9.74,0,0,0,.21,1.73c.17.79.91,1,1.7,1.15a4.18,4.18,0,0,1,2.44,1.22,27.82,27.82,0,0,1,2.5,4.18c.78,1.46,1.6,3,2.4,4.17A5.25,5.25,0,0,0,37,65.44Z"/></g></g></svg>