<svg xmlns="http://www.w3.org/2000/svg" viewBox="0 0 48.38 40.75"><defs><style>.cls-1{fill:#bfbfbf;}</style></defs><title>kocaeli</title><g id="Layer_2" data-name="Layer 2"><g id="map"><path class="cls-1" d="M.08,27.54C.32,27.32,0,27,0,26.81a1.2,1.2,0,0,0,1.1-.89l.24.2c.11,0,.22-.07.33,0,.08-.73-1.37-.05-1.24-.71a.3.3,0,0,0,.21.12c0-.08-.24-.53,0-.48-.27.25.3.47.48.48a.6.6,0,0,0,.52-.84c-.13-.23-.6-.47-.46-.79s.76-.16,1.1-.11c0-.31.32-.47.45-.72s-.18-.65-.38-.88.05-.61.19-.85.18-.78.53-1,.75-.25,1.1-.45.41-.62.67-.88.66-.36.88-.68.29-.64.65-.61c-.13-.49-.86-.78-.66-1.35a1.19,1.19,0,0,1,.77-.72c.32-.1.73-.06.94-.37.47-.72.73-1.55,1.24-2.25.23-.31,0-.67-.16-1a1.37,1.37,0,0,1,.3-1.24c.78-1.16,2.45-.94,3.54-.39,1.65.82.9,4.49,3.67,4,.77-.14,1.19-.85,1.73-1.34.35-.31,1.17-.56,1-1.18s-.91-.74-.52-1.32c.79-1.19,2.45.08,3.31.5,3.54,1.69,4.71-2.4,5.93-2.86.62-.23,1.59-.12,1.86-.88-.3,0-.72-.08-.81-.43s.36-.36.55-.49c-.37-.08-.72.14-1.09.05s-.43-.5-.44-.8.29-.53.5-.73-.05-.71-.11-1c.31.13.65,0,1,.06s.45.4.75.28S30.85,4,31,4.55a1.37,1.37,0,0,1,1-.18,9.33,9.33,0,0,0,1.52-.21c.61-.08,1.94.41,1.89-.11a3.17,3.17,0,0,0,1.22.2A10.32,10.32,0,0,1,38.2,4c.6,0,1.93.51,2.33-.18.14-.24.19-1.26.65-1.11.22.07.46.43.68.15.08-.1.14-.23.28-.27s.36,0,.43-.2c-.55-.23-.16-.93.14-1.19s.61-.43.86-.7S44,0,44.29,0C45-.05,46.2,1.41,46.74.33c.73,1.21.91.66,1.63,1.15a2.37,2.37,0,0,0-.93,1.62C47.23,3.89,46.5,4.35,46,5a22.24,22.24,0,0,1-1.27,2c-.45.5-1.2.73-1.46,1.4s.22,1.65,0,2.47-.86,1.59-.34,2.36c.81,1.21,2.51.89,2,3.7-.51,2.61-4.44,2.26-2.44,8A6.58,6.58,0,0,0,43.64,27c.44.52,1.19,1.19.8,1.94-.64,1.23-2.23.58-3.31.78-1.25.23-1.51,1.65-1.87,2.65,0,.11-2.18,4.21-2.31,4.35-.9,1-2.36.7-3.47,1.25s-1.35,2-2.47,2.6c-1.37.69-2.26-1-4.07-2-7-3.78-10.21.25-11.94.59-.39.08-1.12.16-1,.72-.18-.19-.44-.08-.66-.09a4.52,4.52,0,0,1-1.17-.12.75.75,0,0,0,.1-.47,2.11,2.11,0,0,1,.22-.59c.09-.25,0-.53.1-.77s.29-.35.28-.58-.15-.36-.09-.56.29-.05.33-.24,0-.78-.34-.73c.72-.1,1.08-.83,1.65-1.2A5.22,5.22,0,0,1,17,34.05a22.43,22.43,0,0,0,6.12-1.38,6.14,6.14,0,0,1,2.7-.57c.43,0,1.27.1,1.29-.52,0-1-1.72-.81-2.57-.37a.85.85,0,0,1-1,0,.07.07,0,0,1,.11-.05c0-.26-.31-.3-.48-.4s-.28-.51-.43-.75-1.68-.68-2-.77a17.25,17.25,0,0,0-2.55.07c-.74-.07-1.48-.64-2.23-.3-.33.15-.58.44-.93.57a3.24,3.24,0,0,1-1.2,0c-.37,0-.67.27-1,.27a1.19,1.19,0,0,1-.44-.17,2.19,2.19,0,0,0-.47-.05c-.32-.06-.48-.39-.78-.49-.92-.33-2.14,1.34-2.6.31-.36.48-1,.34-1.51.63-.29.18-.47.5-.81.61-2.09.71-1.27-2-2.56-2.07.08-.35.51-.44.63-.77a1.07,1.07,0,0,0-.65-1.18c-.54-.23-1,.21-1.57.25s-1.19-.13-1.69.22c.11-.07.11,0,.06,0,.17-.09,0,0,0,0s.08-.07,0,0c.11-.06.1-.06,0,0l.08,0C.23,27.19.38,27.55.08,27.54Z"/></g></g></svg>