<svg xmlns="http://www.w3.org/2000/svg" viewBox="0 0 165.26 165.43"><defs><style>.cls-1{fill:#bfbfbf;fill-rule:evenodd;}</style></defs><title>konya</title><g id="Layer_2" data-name="Layer 2"><g id="map"><path class="cls-1" d="M115.14,40.62c-.12-2.77-2-5.47-3.34-7.42a19.14,19.14,0,0,1-1.19-1.84h0c-.68-1.32-.44-1.92.17-3.39a27.65,27.65,0,0,0,1.43-4.41,14.6,14.6,0,0,0,.43-6.14A17.51,17.51,0,0,0,110.39,12c-1.23-2.19-2.43-2.42-4.13-2.75h0a15.19,15.19,0,0,1-5.61-2.06,33.15,33.15,0,0,1-6.06-4.89C93.22,1,92.23,0,91.39,0s-.86.46-1.05,1.06a3.78,3.78,0,0,1-1.62,2.37,2.33,2.33,0,0,1-2.84-.32h0c-.16-.11-.31-.21-.42-.27s-.38-.07-.64.44A15.78,15.78,0,0,0,84,5.12a5.78,5.78,0,0,1-2.38,3.3A20.46,20.46,0,0,1,79,10a15.11,15.11,0,0,0-2.6,1.64,57.06,57.06,0,0,1-7.39,4.93,23.71,23.71,0,0,1-6.16,2.5c-3.27.69-6-1.41-8.17-3.14-1.27-1-2.37-1.85-3.16-1.85a12.91,12.91,0,0,0-3.9,1.31c-2.65,1.15-5.75,2.5-8.22,1.81-2.73-.76-3.16-2.68-3.65-4.91A12.46,12.46,0,0,0,34.7,8.9c-1.09-2-1.46-2.15-2.15-2.43a8,8,0,0,1-1.43-.73,3.58,3.58,0,0,0-.71,1.6A10.09,10.09,0,0,1,30,8.6c-.72,1.93-1.41,1.7-3.09,1.15-.33-.11-.72-.24-1.18-.36h0a8.85,8.85,0,0,1-2.91-1.32c-.33-.21-.69-.44-1.16-.69a20.9,20.9,0,0,1-.46,3.53c-.15.84-.31,1.69-.4,2.43-.11,1,1.48,1.52,2.89,2s2.88.94,2.72,2.14c-.19,1.38-1.21,1.35-2.54,1.32a5.07,5.07,0,0,0-2.67.44h0c-.51.29-.59.45-.51.58h0a3.92,3.92,0,0,0,.39.5,3.68,3.68,0,0,1,1,1.77A11.31,11.31,0,0,1,21,27,9.85,9.85,0,0,1,18.42,31a11.8,11.8,0,0,1-1.57.92c-1,.5-1.66.86-1.49,2.14.11.89,1.26,1.48,2.31,2,1.3.67,2.5,1.29,2.4,2.57-.12,1.53-1.19,2.08-2.76,2.89A20.34,20.34,0,0,0,14.75,43C12,45,11.22,45.41,7.85,47.43h0A31.13,31.13,0,0,1,4.73,49C2.61,50,.85,50.82.93,52.16a23.74,23.74,0,0,0,1,5,8.59,8.59,0,0,0,1.44,3.09c.46.46,1.86,1.76,3.55,3.33,3.21,3,7.45,6.92,8.3,7.92a7.19,7.19,0,0,1,1.69,3.61,5.82,5.82,0,0,1-.74,3.68c-1,1.73-2.61,1.75-4.43,1.78a6.74,6.74,0,0,0-4,.87,3.27,3.27,0,0,0-1.65,3,5.64,5.64,0,0,1-.61,2.55c-.45.84.49,2.56,1.47,4.37,1.13,2.06,2.31,4.23,1.78,5.93s-2.17,2.84-4,4a14.84,14.84,0,0,0-4,3.39c-1.21,1.67-.86,2-.4,2.44a3.22,3.22,0,0,1,1.17,2,17.62,17.62,0,0,1-.22,4.72,35.26,35.26,0,0,1-1.09,5c2.12,1,3.94,2.15,5.52,3.12,2.43,1.48,4.29,2.62,5.68,2.58a13.28,13.28,0,0,0,4.41-1.34A11.05,11.05,0,0,1,19.41,122,5.32,5.32,0,0,1,22.49,123,12,12,0,0,1,25.42,126h0c.48.67,1.22,2.09,2.14,3.82a69.19,69.19,0,0,0,5.73,9.65h0a49.13,49.13,0,0,0,4.6,5.2,21.61,21.61,0,0,0,5.3,3.76A39.44,39.44,0,0,0,47,150c1.77.68,2.79,1.06,3.4,2.28a2.24,2.24,0,0,1,.09,1.89c-.16.54-.32,1.07,1.26,2.33a21.81,21.81,0,0,0,2.51,1.76,6.56,6.56,0,0,1,2.46,2.32,10.37,10.37,0,0,1,1.2,2.59c.22.68.43,1.43.62,2.22.87-.44,1.92-1,3-1.5,3-1.44,6.42-3.14,8.33-4.33.81-.5,2-1.12,3.23-1.8,2.92-1.57,6.35-3.4,6.7-4.41.44-1.27-4-4.56-5.55-5.67l-.15-.12a7.57,7.57,0,0,1-2.67-3.09c-.65-1.57-.66-3.69,1.15-6.46a33.61,33.61,0,0,1,3.74-4.81,4,4,0,0,0,1.34-2.14,5.12,5.12,0,0,0-.11-1.86,2.48,2.48,0,0,1,.48-2.55c.62-.66,2-.77,3.51-.89,1.71-.14,3.71-.3,4.86-1.19a23.91,23.91,0,0,0,3.23-3.43,33.13,33.13,0,0,1,4.62-4.79c.68-.53,1.24-1,1.71-1.45a7.61,7.61,0,0,1,1.72-1.31c1-.45,1.66,0,2.44,1.78.23.52.4,1,.54,1.32.57,1.44.69,1.76,2.38,1.28a5.18,5.18,0,0,1,3.45.24,3,3,0,0,0,2.26.15c.85-.33,1.59-1.9,2.39-3.61s1.79-3.81,3.19-4.94a16.57,16.57,0,0,1,4.49-2.37,17.79,17.79,0,0,1,5.21-1.19,4.63,4.63,0,0,1,2.92.91,6.53,6.53,0,0,1,2.1,3.37,49,49,0,0,0,3,6.6c.51,1,1,1.86,1.25,2.53a9.07,9.07,0,0,1,.5,1.52c.26,1,.45,1.72,2.49,2.6l1.09.46h0c2.67,1.13,4.42,1.87,4.9,3.15a6.91,6.91,0,0,1,.48,1.91,8.62,8.62,0,0,1-.24,2.6,10.28,10.28,0,0,0-.14,2.78,5.8,5.8,0,0,1-.14,2.1h0c-.1.3-.2.55-.29.77a2.2,2.2,0,0,0-.22,1.59,20.88,20.88,0,0,0,.84,2.21c1.12-.6,2-1.11,2.85-1.58a48.92,48.92,0,0,1,7.12-3.46,30,30,0,0,1,7.27-1.78,25.3,25.3,0,0,0,4.42-.92,1.2,1.2,0,0,0,.92-1.69,9.49,9.49,0,0,0-1.24-2.15,3.69,3.69,0,0,1-.82-1.6.87.87,0,0,1,.1-.39,3,3,0,0,1,0-1.49,2.72,2.72,0,0,0-.38-2.15,15.45,15.45,0,0,0-1.34-2,7.78,7.78,0,0,1-1.93-4c-.15-1.2-.28-2.28-.34-3.28a11.43,11.43,0,0,1,.12-2.76,10.12,10.12,0,0,1,1.53-2.82c1.19-1.81,2.67-4.06,2.46-5.62h0c-.06-.48-.11-.91-.16-1.34-.22-2-.4-3.73-2-4.9-.64-.47-1.54-1-2.52-1.6-2.25-1.35-5-3-6.62-5a9,9,0,0,1-1.85-3.47,3.71,3.71,0,0,0-1.28-2.1,11.23,11.23,0,0,0-3.6-1.93,9.15,9.15,0,0,0-3.76-.43l-2.05.22c-5.36.58-17.79,1.91-20.11,2l-1.57.09a19.56,19.56,0,0,1-4.82,0,14.68,14.68,0,0,1-3.28-3,29.69,29.69,0,0,1-3.17-4.1c-.68-1.21-2.55-4.59-3.88-7.58a16,16,0,0,1-1.5-4.56,21.12,21.12,0,0,1,.41-5.24,17.93,17.93,0,0,1,1.6-4.69c.38-.73.76-1.52,1.17-2.35,1.5-3.08,3.32-6.84,5.37-8.79l.35-.33a23.2,23.2,0,0,1,5.11-4.07Z"/></g></g></svg>