<svg xmlns="http://www.w3.org/2000/svg" viewBox="0 0 92.21 75.86"><defs><style>.cls-1{fill:#bfbfbf;fill-rule:evenodd;}</style></defs><title>kutahya</title><g id="Layer_2" data-name="Layer 2"><g id="map"><path class="cls-1" d="M74.81,16.91a11.59,11.59,0,0,1-4.81.51h0a24.64,24.64,0,0,1-4-1.15,51.92,51.92,0,0,1-4.88-2.11c-2.86-1.4-2.66-1.87-2.07-3.27a6,6,0,0,0,.56-2.28,7.94,7.94,0,0,0-.85-4.08h0a7.64,7.64,0,0,1-.47-1.2c-1.26.09-3,0-4.68,0-1.09,0-2.19-.08-3.22-.08-1.91,0-3.28-1.18-4.42-2.16C45.15.37,44.48-.21,44,.07c-.66.42-.79,1.67-.94,3.05a10.28,10.28,0,0,1-1,4,6.2,6.2,0,0,1-3.38,2.67,8.29,8.29,0,0,0-2.41,1.43,16.13,16.13,0,0,0-2.65,4.16h0a14.41,14.41,0,0,1-2.21,3.53c-1.54,1.46-1.71,1.43-4.29.88l-1-.21a17.63,17.63,0,0,1-3.34-1,4.34,4.34,0,0,0-1-.32c0,.06,0,.12,0,.19a1.94,1.94,0,0,1-.32.74,3,3,0,0,1-1.88,1.11c-.83.23-1.68.47-1.76,2.33a19.61,19.61,0,0,1-.78,4.69h0a17.92,17.92,0,0,1-1.84,4.26,12.23,12.23,0,0,1-3.71,3.47A10.78,10.78,0,0,1,7,36.79c-.92.09-2,.09-3,.09-2.06,0-4,0-4,.61A5.11,5.11,0,0,0,1.14,39.9h0A7.58,7.58,0,0,1,2.62,43a1.55,1.55,0,0,1-.79,1.77c-.3.21-.62.42-.12,2.09a11.89,11.89,0,0,1,.5,3c0,.68,0,.85,1.12.82a16.07,16.07,0,0,0,2.43-.32c1.79-.33,3.47-.64,4.87.35h0a10.07,10.07,0,0,1,2.29,2.18,8.47,8.47,0,0,1,1.29,2.52,1.63,1.63,0,0,1-.38,1.87c-.12.14-.24.27.19.84a12.44,12.44,0,0,0,1.34,1.47c.92.9,1.66,1.62,1.53,2.81a2.47,2.47,0,0,1-.77,1.44c-.35.39-.65.73.51,1.73l1,.84c1.81,1.54,2.57,2.18,2.57,4.21A7.19,7.19,0,0,1,20,72c.59.06,1.43.19,2.39.35h0c2.92.47,7.06,1.14,8.22.38a3.14,3.14,0,0,0,1-1c.53-.81,1-1.46,4.17-1.89,1.06-.14,1.88-.22,2.55-.29a9.4,9.4,0,0,0,5.3-1.81A5.4,5.4,0,0,0,45.55,66c.59-.85.86-1.24,4.19-1.44a54,54,0,0,1,8.77.15h0l1.91.15c1,.07,1.8.05,2.43,0a5.43,5.43,0,0,1,1.7.11c.7.24.88.7.55,1.64S63.79,68,62.84,68.53h0c-.81.42-1.57.82-1.47,1.18s1.31.37,2.35.28a4.37,4.37,0,0,1,2.23.13,2.88,2.88,0,0,1,1,1.87,28.53,28.53,0,0,1,.51,3.67l0,.19a31.24,31.24,0,0,1,3.84-3.59c.52-.43,1.08-.89,1.69-1.43s1.38-1.16,2.16-1.79a29.38,29.38,0,0,0,4.93-4.61c.88-1.25,1.41-4.68,1.82-7.28a27.21,27.21,0,0,1,.57-3c.45-1.41,2.05-1.77,3.71-2.15h0a12.63,12.63,0,0,0,2.06-.59c1.58-.67,3.54-3.49,4-4.12-.88-1.7-4.61-9-5-10.24s.48-1.81,1.57-2.36h0a5,5,0,0,0,1.3-.83,2.67,2.67,0,0,0,.19-1.9,19.11,19.11,0,0,0-1.16-4.24,7.42,7.42,0,0,0-2.32-1.92,19.52,19.52,0,0,1-3.41-2.69,4.18,4.18,0,0,1-1-3.74c.07-.68.13-1.3-.26-1.71s-2.24-.49-3.85-.44a8.24,8.24,0,0,1-3.44-.3Z"/></g></g></svg>