<svg xmlns="http://www.w3.org/2000/svg" viewBox="0 0 98 83.48"><defs><style>.cls-1{fill:#bfbfbf;fill-rule:evenodd;}</style></defs><title>malatya</title><g id="Layer_2" data-name="Layer 2"><g id="map"><path class="cls-1" d="M55.89.17A30.48,30.48,0,0,0,51.74,0a2.13,2.13,0,0,0-1.87,1,21.84,21.84,0,0,1-2,1.9h0C45.74,4.76,45,4.55,43.38,4.09a13.45,13.45,0,0,0-2-.46c-2.64-.37-2.64-.37-5.07.4l-1.49.47c-2.52.78-3.39.5-4.22.24a3.23,3.23,0,0,0-2-.08c-1.2.27-1.19.71-1.15,1.6a9.79,9.79,0,0,1-.29,3.15c-.62,2.32-1,2.86-2.14,2.55a6.43,6.43,0,0,1-1.11-.47c-.47-.23-1.06-.51-1.83-.8s-1.57-.61-2.13-.84a12.88,12.88,0,0,0-4.16-1.15,4.94,4.94,0,0,0-2.38,0c-.31.18-.42.68-.36,1.7A13.24,13.24,0,0,1,12.68,15l-.17.82h0l0,.12a4.62,4.62,0,0,0-.2,1.51,4.49,4.49,0,0,0,.45,1h0c.13.24.29.54.55,1.06A13.66,13.66,0,0,0,15.08,22c1,1.23,1.93,2.3,1.77,3.56-.19,1.49-.7,1.61-1.81,1.86a8.41,8.41,0,0,0-1.8.59A18.27,18.27,0,0,0,10,30,16.12,16.12,0,0,0,7.3,32.54a15.43,15.43,0,0,0-1.6,2.54,5.64,5.64,0,0,1-1.55,2.14c-.4.26-.42.68-.44,1.16h0a4.9,4.9,0,0,1-.15,1.17h0a5.18,5.18,0,0,1-1.28,1.93,12,12,0,0,0-1.51,2h0A5,5,0,0,0,0,45.27c0,.25.47.38,1.82.32a10.85,10.85,0,0,1,4.58.63h0A17.11,17.11,0,0,1,11,49.15c2.69,2.23,3.38,2.35,5.87,2.78l2.1.39c3.44.69,4.13,2.11,4.93,3.75A9.16,9.16,0,0,0,25,57.91c1,1.31,1.72,4,1.65,6.65-.06,2.24-.66,4.43-2,5.64A16.78,16.78,0,0,1,22.18,72c-1.31.82-2.2,1.38-2.29,3.21-.13,2.65.09,3,.93,4.59h0l.35.65h0c.58,1.1,1.57,1.24,3.08,1.46a19.9,19.9,0,0,1,4.23,1c2.53.91,2.84.74,4,.12a19.27,19.27,0,0,1,3.28-1.47,65.38,65.38,0,0,0,8.58-3.66h0l1.15-.57c1.06-.51.91-1,.6-1.91h0a15.43,15.43,0,0,1-.46-1.64,7.28,7.28,0,0,0-1.37-2.53h0a8.54,8.54,0,0,1-.86-1.34,1.34,1.34,0,0,1,.75-2.07,18.59,18.59,0,0,1,2.35-.86h0a30.49,30.49,0,0,0,5-2,22.75,22.75,0,0,0,3.4-2.17c1.55-1.15,2.72-2,4.53-1.85,2,.17,4.91,2.19,7.36,3.88,1,.68,1.88,1.31,2.6,1.73a16.25,16.25,0,0,0,4.45,1.69c.83.22,1.71.45,2.7.8a4.43,4.43,0,0,1,3.08,3.13,11.36,11.36,0,0,0,1,2c.4.61.54.77.58.75a2.84,2.84,0,0,0,.47-.53,6,6,0,0,1,1.78-1.67h0c1.22-.69,3.08-1.55,5-2.44,1.39-.64,2.81-1.29,4.06-1.91a9.9,9.9,0,0,0,3.91-3.71c.22-.33.43-.64.64-.91v0a3.88,3.88,0,0,1-.12-1.16A4.27,4.27,0,0,0,96.71,61h0c-.4-.89,0-1.74.55-2.68a3.94,3.94,0,0,0,.69-2.65,16.44,16.44,0,0,1-.3-1.62c-.14-1-.24-1.63-1-1.77a4.56,4.56,0,0,0-2.16.65,7.12,7.12,0,0,1-4.52.91c-1.35-.32-3.07-2.18-4.8-4S81.57,45.9,80.62,46a3.32,3.32,0,0,0-1.9,1.08,2.8,2.8,0,0,1-3,1c-1.41-.38-6.09-1.78-10.13-3.38a24.74,24.74,0,0,1-5.82-3A11.89,11.89,0,0,1,56.48,38a5.13,5.13,0,0,1-.28-4,6.26,6.26,0,0,1,2.71-3.09,6,6,0,0,0,2-2,3.09,3.09,0,0,0,.37-1.79A2,2,0,0,1,62.2,25a12,12,0,0,1,3.27-2h0a3.15,3.15,0,0,1,2.68,0c.35.2.68.42,1,.62s.67.44.87.54a5.74,5.74,0,0,1,.27-1.13,8.76,8.76,0,0,0-.66-7.23,30.69,30.69,0,0,0-2.07-3.64c-1-1.55-1.24-1.91-.29-3.35A2.58,2.58,0,0,1,69,7.55c.3-.08.57-.14.86-1a7.5,7.5,0,0,0,.53-2,.43.43,0,0,0-.19-.42A29.34,29.34,0,0,0,66.49,2.2a7.07,7.07,0,0,0-2.39-.66,12.21,12.21,0,0,0-1.88.23c-1.63.29-3.34.58-4.62-.51A5.23,5.23,0,0,0,56.52.54a3.79,3.79,0,0,1-.63-.37Z"/></g></g></svg>