<svg xmlns="http://www.w3.org/2000/svg" viewBox="0 0 99.39 91.49"><defs><style>.cls-1{fill:#bfbfbf;fill-rule:evenodd;}</style></defs><title>manisa</title><g id="Layer_2" data-name="Layer 2"><g id="map"><path class="cls-1" d="M80.84,22.13c-1.78,0-5.34.11-8.7.44a31.23,31.23,0,0,0-5.9,1,25.82,25.82,0,0,0-3.75,1.59c-1.62.8-2.84,1.4-4.48,1.2s-2.32-1.3-3.23-2.75a13.47,13.47,0,0,0-2.82-3.44,23.69,23.69,0,0,0-2.89-2C47.11,17,45.7,16.1,45.47,13.77a20.46,20.46,0,0,1,.05-3.14c0-.71.09-1.42.09-2.1,0-1.47-.23-2.62-1.3-2.62a4.21,4.21,0,0,0-2.95,1.15A3.11,3.11,0,0,1,39.3,8a2.55,2.55,0,0,1-2-1.23,3.18,3.18,0,0,0-2.66-1.42,4.69,4.69,0,0,0-2.27.49c-.8.38-1.31.61-2.72-.2h0a19.71,19.71,0,0,1-3-2.43C25.1,1.79,23.43.27,22.19,0,20.56-.29,19,2.21,18.57,3A7.09,7.09,0,0,1,19,4.73a7.56,7.56,0,0,0,1.2,3.35A2.73,2.73,0,0,1,20.76,11a6.86,6.86,0,0,0,.32,4.46,25.63,25.63,0,0,1,1.37,6,24.66,24.66,0,0,1,0,4.13,5.84,5.84,0,0,1-2,3.43,15.39,15.39,0,0,1-4.49,3,8.48,8.48,0,0,1-3.33.28,18,18,0,0,0-2.93.05c-2,.24-2.15.58-2.57,1.86h0l-.1.29H7c-.25.77-.72.92-1.31.73h0a4.48,4.48,0,0,1-1.38-1,4.09,4.09,0,0,0-1-.82s0,.06,0,.17L3,34.61A15,15,0,0,1,1.6,38.43,3.69,3.69,0,0,1,.08,40.1c-.11.07-.15.09.16.63a3.67,3.67,0,0,0,1.94,1.17c1.47.55,3,1.13,3.22,3.24a23.71,23.71,0,0,1,.05,2.91c0,2.08-.09,4.18,1,5.79.87,1.23,3.92,2.22,6.85,3.17,2.58.84,5.08,1.65,6.19,2.69a9.73,9.73,0,0,1,1.73,2.08,2.7,2.7,0,0,0,1.87,1.38,3.94,3.94,0,0,0,2,0c1.1-.19,1.93-.34,3.12,1.28a28,28,0,0,1,2.17,4.25c1.24,2.74,2.6,5.74,3.53,5.92h0l.13,0h0c.43,0,.82-.36,1.15-.92a8.28,8.28,0,0,0,.84-2.47,10.91,10.91,0,0,0,.19-1.62,5.64,5.64,0,0,1,.6-2.56h0a2.17,2.17,0,0,1,.68-.74,1.71,1.71,0,0,1,1-.27,2.69,2.69,0,0,1,1.25.41,6.86,6.86,0,0,1,1.58,1.33A2.75,2.75,0,0,0,44,69a5.07,5.07,0,0,0,2.15-.78c1.09-.62,1.77-1,2.71.43a4.54,4.54,0,0,1,.32,3c-.13,1.24-.26,2.46,1.13,2.59a6.17,6.17,0,0,0,2.8-.27,4.26,4.26,0,0,1,2.74-.09,19,19,0,0,1,4.67,2.08,22.21,22.21,0,0,1,4.26,3.23h0a14,14,0,0,1,2.3,2.62,3.76,3.76,0,0,1,.37,2.42,8,8,0,0,1-1.08,3.06,5.74,5.74,0,0,0-.43.87,9.09,9.09,0,0,0,.4,1.1,9.63,9.63,0,0,1,3.83.07l.62.16a9.64,9.64,0,0,1,4.31,2,21.76,21.76,0,0,0,3.55-3.67l.64-.89c1.46-2.05,2.89-4.07,5.37-4.63A10.19,10.19,0,0,1,86.85,82l-.06-1.26a3.48,3.48,0,0,0-1.85-2.86,7.61,7.61,0,0,1-2.42-2.58c-1.25-2.32-.82-2.61,0-3.17a2,2,0,0,0,.68-.67,6.92,6.92,0,0,1,.59-.84h0c.64-.81,1.31-1.66,1.65-6,.41-5.3,1.54-7.42,2.55-9.3l.31-.6c.77-1.47,2.58-1.66,4.47-1.85A10.25,10.25,0,0,0,96,52.23a5.53,5.53,0,0,0,2.32-2.36,8.31,8.31,0,0,0,1.09-3.78c0-1.52-.64-2.06-2.17-3.35l-1-.86c-2-1.76-1.35-2.49-.6-3.33a1.61,1.61,0,0,0,.49-.81c.07-.64-.5-1.2-1.2-1.89a13,13,0,0,1-1.45-1.6c-1-1.3-.58-1.74-.13-2.25a.7.7,0,0,0,.16-.79A7.32,7.32,0,0,0,92.35,29a8.93,8.93,0,0,0-2-1.94h0c-1-.71-2.46-.45-4-.16a17.17,17.17,0,0,1-2.6.34c-2.16.06-2.18-.33-2.27-1.88A11,11,0,0,0,81,22.66c-.06-.19-.1-.36-.14-.53Z"/></g></g></svg>