<svg xmlns="http://www.w3.org/2000/svg" viewBox="0 0 78.52 92.62"><defs><style>.cls-1{fill:#bfbfbf;fill-rule:evenodd;}</style></defs><title>kahramanmaras</title><g id="Layer_2" data-name="Layer 2"><g id="map"><path class="cls-1" d="M73.55,71a4.46,4.46,0,0,0-1-1,4.9,4.9,0,0,1-1.81-2.37,13.09,13.09,0,0,1-.52-1.49c-.18-.6-.2-.67-1.41-.63-.44,0-.88.07-1.3.11-1.8.19-3.26.35-4.58-1.72h0c-.21-.33-.4-.62-.59-.9-1.34-2-2.65-4-1.78-6.46a7.18,7.18,0,0,1,2.27-3.23,18,18,0,0,1,3.38-2.1c.68-.35,1.37-.65,2-.93,1.54-.66,2.82-1.22,3.43-2.35a49.21,49.21,0,0,0,2.13-5,3.66,3.66,0,0,1-.59-.84h0l-.35-.64h0c-1-1.77-1.21-2.21-1.07-5.18.12-2.41,1.2-3.1,2.81-4.11a16,16,0,0,0,2.31-1.67c1.1-1,1.59-2.87,1.64-4.82.06-2.37-.51-4.8-1.41-5.92a10,10,0,0,1-1.22-2.05c-.66-1.36-1.24-2.55-4.13-3.13-.82-.17-1.49-.28-2.07-.38-2.73-.48-3.48-.61-6.4-3A15.9,15.9,0,0,0,59,8.42h0a9.9,9.9,0,0,0-4.13-.56c-2.19.1-2.94-.44-3-1.39a5.13,5.13,0,0,1,.92-2.37h0a12.56,12.56,0,0,1,1.64-2.2,4.62,4.62,0,0,0,1-1.49h0A2.67,2.67,0,0,0,55.53,0C51.23.28,34.37,1.36,32.28,1.43A3.8,3.8,0,0,0,29.86,2.8h0c-.72.7-1.31,1.27-2.17,1a3,3,0,0,0-1.62-.1h0A3.22,3.22,0,0,0,24.33,5c-.51.65-.11,1.47.29,2.27h0c.46.93.91,1.85.46,2.84s-1.8,1.3-3.3,1.58-3,.56-3.81,1.54c-1.2,1.39-2.49,4.29-3.52,6.59-.51,1.15-1,2.16-1.31,2.78C12.39,23.89,12,24,11.39,24.3h0a4.65,4.65,0,0,0-1.18.68c-.91.69-1.1,1.37-1.48,2.73-.2.72-.45,1.6-.87,2.77a12.79,12.79,0,0,0-.74,6.09c0,.63.08,1.32.09,2.16,0,2.28-.3,2.68-.84,3.31a5.14,5.14,0,0,0-1.05,1.9c-.49,1.4-.15,1.74.24,2.13a3,3,0,0,1,1.06,2.11v.2a6.09,6.09,0,0,1-1.29,3.7A6.18,6.18,0,0,1,3.88,53.5a3.23,3.23,0,0,1,0,3.95,6.71,6.71,0,0,1-2.25,2.07C.84,60,.1,60.54,0,61.26S.45,62.46,1.13,63a8.75,8.75,0,0,1,1.94,2.12c1.23,2,1,2.29.11,3.64-.22.32-.48.7-.77,1.2a5.8,5.8,0,0,1-1.17,1.49c-.34.32-.43.4-.25,2.6.15,1.86.34,3.91.6,5.55s.53,2.64.85,2.84c0,0,0-.09.07-.19A4.06,4.06,0,0,1,6,80.51a13.82,13.82,0,0,1,2.76.07,4.35,4.35,0,0,0,3-.61,6.56,6.56,0,0,1,3.73-.5,7.7,7.7,0,0,1,4,1.58,28,28,0,0,1,1.72,3.6,12.59,12.59,0,0,1,.83,2.88,11.49,11.49,0,0,1-.42,3.83,8.37,8.37,0,0,0,2.68-.2l.16,0c1.5-.45,4.38-1.31,5.72-2.78a23.14,23.14,0,0,0,1.5-2c1.3-1.83,2.75-3.86,4.16-3.93a5.56,5.56,0,0,1,2.35.32,5.81,5.81,0,0,1,2,1.42,6.18,6.18,0,0,1,1.26,3.51,8,8,0,0,0,.63,2.45,6.57,6.57,0,0,0,1.54,2,1.89,1.89,0,0,0,1.88.35c.88-.32,2-2,3.09-3.76a18.75,18.75,0,0,1,2.71-3.61,36.82,36.82,0,0,1,4-3,40.37,40.37,0,0,1,4.44-2.57h0c1.94-.94,3.88-.61,5.81-.29a16,16,0,0,0,2.95.31c1.38,0,1.67-1.06,2.08-2.55A15.1,15.1,0,0,1,72,73.54a18.88,18.88,0,0,1,1.6-2.5Z"/></g></g></svg>