<svg xmlns="http://www.w3.org/2000/svg" viewBox="0 0 104.13 53.9"><defs><style>.cls-1{fill:#bfbfbf;fill-rule:evenodd;}</style></defs><title>mardin</title><g id="Layer_2" data-name="Layer 2"><g id="map"><path class="cls-1" d="M95.17,35.07l-.43.15c-2.84,1-.9,2.39-5.23,2.54s-10.62,0-12.71.75-4,2.25-5.24,2.1-1.34-1.94-3.14-1.94-10.76-1.5-12.11-1.5-2.09,1.8-4.49,1.94-4.49-1.2-5.38-.6S37.24,44.72,35,45.17s-2.09-.45-3.74.75-4.49,2.24-6.88,4.93c-1.15,1.29-2.06,2.28-2.88,3.05A83.39,83.39,0,0,1,15.42,46a5.3,5.3,0,0,1-.84-4.58,15.86,15.86,0,0,0,.32-3.05c0-2.79-.54-3-1.87-3.53a8,8,0,0,1-2.24-1.25A9.11,9.11,0,0,1,8.26,31a10.05,10.05,0,0,1-.84-3.47,7.68,7.68,0,0,1,0-2c.19-1.57.26-2.16-3.53-4.92C1.1,18.5.69,17.19.24,15.7c-.08-.25-.15-.5-.24-.76a42.43,42.43,0,0,1,8.1.56c2.69.56,3.1-.21,3.66-1.28a3.19,3.19,0,0,1,1.11-1.34c1-.67,1.48-.39,2.34.11h0a12,12,0,0,0,2.48,1.16c2.89.94,3.66.75,6.54,0L25,14h0c2.05-.49,2.67-2.08,3.32-3.75.53-1.35,1.08-2.77,2.55-3.48s2.16-.13,2.76.56a3.49,3.49,0,0,0,5.86-.13,9.59,9.59,0,0,0,1.19-3.93l.06-.47h0c.27-2.16.37-3,2-2.78A9.87,9.87,0,0,1,45.68,1.2a20.57,20.57,0,0,0,6.63,2.35c3.32.51,5.15-1.21,6.44-2.42A4.24,4.24,0,0,1,59.81.27c-.61,1.2-1.12,2.12-1.12,2.13l1,.54s.48-.87,1.07-2.05a24.87,24.87,0,0,1,2.62,4.34l.68,1.28A16.81,16.81,0,0,1,65.2,9.33c.53,1.6.92,2.78,2.45,3.34A19.22,19.22,0,0,0,73,13c3.64-.11,8.07-.5,10.06-.72a7.12,7.12,0,0,0,4-1.54h0a15.34,15.34,0,0,0,2.78-3.5A15.34,15.34,0,0,1,94.66,3.3C97.07,1.9,99.52.9,100.34,1a4.72,4.72,0,0,1,2.13,1.16A5.32,5.32,0,0,1,104,4.25c.34,1-.05,1.77-1,3.55l-.23.42c-.92,1.73-.45,2.34,0,3a1.18,1.18,0,0,1,.33.74c0,.94-1.77,1.91-3,2.6l-.22.12h0c-.4.22-.9,0-1.44-.26A3.49,3.49,0,0,0,95.61,14a7.79,7.79,0,0,0-1.59.75,6.15,6.15,0,0,1-2.1.8c-2,.5-2,1.07-1.85,2.61a11.63,11.63,0,0,1,0,2.62l-.11.8h0c-.44,3.29-.85,6.34.88,7.92,1.23,1.11,2.25.29,3.24-.51.55-.45,1.1-.89,1.45-.64.64.45.27,2.76-.13,5.32-.07.46-.15.94-.22,1.41Z"/></g></g></svg>