<svg xmlns="http://www.w3.org/2000/svg" viewBox="0 0 132.2 89.1" >
<defs>
<style type="text/css">
	.cls-1{fill:#BFBFBF;}
</style>
</defs>
<title>mugla</title>
<g id="Layer_2">
	<g id="map">
		<path class="cls-1" d="M104.5,89c-3.3-1.9-4.6-0.9-5.8-3s-2.8-2-2.1-3.7s2-0.7,1.2-2.4s-1.5-0.8-1-3.7s1.9-3.5,0.5-4.3
			s-4.6,0.7-4.8-1.1s-1.6-2.8,0-3.6s4.5,1,4.6-1.8s-2.7-2.1-5.1-4.3c-1.1-0.9-2-1.9-2.8-3.1c-1-1.3-0.8,1.2-2.4,2.2
			s-3.3,0.5-2.8,2.2s3.4,0.5,2.6,1.9c-0.8,1.4-5,6.1-4.6,2.8s1.3-3.5-0.3-4.6s-4.6-1.8-6.7-2.1s-4,1-3.6-1.7s1.4-3.8,0.2-5.5
			s-3-3.2-3.5-2.1s-0.1,2.9-1.6,1.4s-2-0.2-2-2.2s1.7-3.8-0.3-3.5s-0.9,1.3-2.8,1.4s-3.2,0.7-2.2,1.4s3.6,1.9,1.8,2.5
			s-4-0.5-5.2-2.1s-1-3-2.2-1.8s-2.8,2.5-2.1,4s3,2.4,3.1,3.4s0.6,0.6-2,1.2s-2.5,1.3-4.2,2.1c-1.4,0.7-2.5,2-3,3.5
			c-0.7,1.6-1.2,2.9-2.4,2.8s-0.7-1-0.5-3s0.1-0.7-0.5-3.1s-0.9-3.4,0.4-2.9s1.2,2.2,2,1.3s0.1-0.2,0.7-2.2s1.2-0.8,0.9-2.4
			s0.6-2.9-1-2.2s-1.9,4.3-3.1,2.7s0.3-2.8,0.1-3.6s-2.5-1-1.6-2s2.3-0.1,2.2-1.6s-2.4-2.6-1-3.6s1.5-1.2,3.4-0.8s2.5,2.4,3.6,1.6
			s1.3-1.3,2.3-2.2s0.5-1.6,2.1-2.1s1.3,0.4,2.7-0.9s2.8-0.8,2.7-1.9S52.1,35,49,35.9s-2.2,1.9-4.9,0.6s-3.1-1.9-4.6-1.1
			s-2.1,0.5-4.1,0.4s-1.5,0.5-4.3,0.8s-3.9-0.2-6.1-0.4s-2.2,1-4,0.9s-2-1-3.1-0.9S16.7,37,15,36.8s-2.4-4-4.6-3.6s-1,2-2.4,1.7
			S6.2,33.5,5.3,34s-0.1,3.2-1.7,3.3s-1.9-0.1-2.5-2.6s-1.8-2.5-0.8-4.7s1.9-1.3,2.5-2.8s2.2-1.5,2.9-1.5s1.2-1.9,2.5-0.5
			c1,0.8,1.8,1.8,2.6,2.8c0.8,1.1,0,2.9,1.3,1.9s0.7-1.6,2.3-1.7s3.6,0.5,3.8-0.3s-0.5-1.7-0.9-3s-0.8-2,0.3-2s2.8,2.8,3.2,1.3
			s-1.5-1.1-1.1-2.7s2.7-0.8,2.1-2.6s-4.6,2.2-5.5,1.7s2.2-2.3,0.2-2.5s-2.1,1.3-3.2,1s4.4-5.4,2.3-5.5s-3.3,2.4-4.3,1.8
			s-2.8-0.8-0.9-2.3s2.9-3,1.7-4.2c-0.4-0.3-0.9-0.3-1.2-0.1c-0.3-1.3-0.5-2.6-0.4-3.9V4.7l0,0c0.3-0.8,0.4-1.2,2.3-2.4
			C13.6,2,14.2,1.5,14.7,1c0.8-0.7,1.4-1.2,2.3-0.9l0,0c0.5,0.2,0.9,0.4,1.3,0.6c1.4,0.8,2.9,1.2,4.5,1.3c1.7,0.1,3.3,1,4.4,2.4
			c0.4,0.5,0.9,1,1.5,1.6c1.1,1.2,2.7,1.7,4.3,1.5c1.1-0.1,2.2,0,3.3,0.2C38.5,8,40.8,8.2,43,8.2c0.6,0,1.3,0,2.2,0.1
			c2.6,0.1,6.1-1.7,8.8-3.1c0.9-0.4,1.7-0.9,2.3-1.1c0.9-0.4,1-0.4,1-0.2c0.2,0.8,0.7,1.5,1.4,2c1.2,1,1.6,0.9,2.1,0.4
			c0.1-0.1,0.2-0.2,0.2-0.3c0.4-0.6,1-1,1.7-1c1.2-0.2,1.4,0.5,1.8,1.5c0.5,1.5,1.5,2.9,2.7,3.9c1.6,1.3,2.3,1.4,2.7,0.9
			c0.2-0.3,0.3-0.6,0.3-0.9c0.1-0.5,0.1-1.1,0.8-1.3c1-0.4,2-0.4,3,0l0.7,0.2c0,0.3-0.1,0.7-0.2,1c-0.3,1-0.3,2.1,0.2,3.1
			c0.5,1,1.3,1.9,2.2,2.6c0.6,0.4,1.1,1,1.5,1.6c0.4,0.8,0.8,1.7,0.9,2.7c0.2,0.8,0.4,1.6,0.7,2.4c0.7,1.5,1.6,2.8,2.7,4
			c0.9,1,2,1.9,3.2,2.6c0.9,0.4,1.8,0.7,2.7,1c2,0.6,4.1,1.3,5.6,3.3l0,0l0,0l0,0c2.2,2.9,2.7,3.6,3.2,7.8v0.4
			c0.5,4.3,0.9,7.5,3.4,9l1,0.6c1.9,1.2,3.2,2.1,4.8,1c1.3-1.2,2.4-2.6,3.3-4.2c0.8-1.2,1.5-2.4,2.1-3.7c0.9,0.5,2.8,1.6,2.8,2.2
			c-0.2,0.9-0.6,1.7-1.2,2.4c-0.4,0.5-0.7,1-0.9,1.5c-0.4,0.7-0.2,1.5,0.4,2c0.4,0.3,0.9,0.5,1.4,0.6c0.6,0.1,1.3-0.2,2.2-0.8
			c0.7-0.4,1.5-0.8,2.2-1.2c1.8-1,3.6-2.2,5.2-3.6c0.8-0.7,1.6-1.3,2.5-1.8l0,0l0.1,0c0.9-0.1,1.8,0.2,2.5,0.7
			c1.1,0.6,1.9,1.4,2.6,2.4c0.2,0.3,0.3,0.5,0.4,0.8c0.4,1.3,0.1,1.4-0.3,1.7c-0.7,0.5-1.2,1.1-1.6,1.9c-0.4,0.9-0.9,1.7-1.5,2.4
			c-0.7,0.9-1.3,1.9-1.7,3c-0.3,0.8-0.5,1.7-0.6,2.6c-0.2,2.3-1.1,4.4-2.6,6.1c-1.4,1.7-2.9,3.4-4.5,5c-1.3,1.3-2.9,2.5-4.5,3.4
			c-1.1,0.6-2.3,1.1-3.5,1.6c-1.8,0.7-3.2,1.3-3.8,2.5c-0.5,0.8-0.6,1.8-0.3,2.7l0,0c0.1,0.2,0.1,0.5,0,0.8
			c-0.1,0.2-0.1,0.3-0.2,0.4c-0.5,1-0.7,2.1-0.4,3.2C106.7,87.8,105.7,88.3,104.5,89L104.5,89L104.5,89z M31.2,51.3
			c2.7-1.5,2.6-2.8,5.2-1.2s3,1,4.1,1.6s1.7,0.2,2.5,1.7s-6.5,1.5-7.4,0.5c-0.9-1-2.2-0.6-3.6-1C30.6,52.4,29.7,51.9,31.2,51.3
			L31.2,51.3z M12.6,55c2.5-1,1.6-3,4.3-3s2.1,1.6,5.2,0.5s2.9-2.8,4.5-3.1s4,1.9,4.3,2.5s-4.1,5.4-4.4,6.2s-2.2-1.4-4.8-1.3
			s-2.3,1.3-4.6,1S12.3,56.5,12.6,55z"/>
	</g>
</g>
</svg>
