<svg xmlns="http://www.w3.org/2000/svg" viewBox="0 0 86.02 66.94"><defs><style>.cls-1{fill:#bfbfbf;fill-rule:evenodd;}</style></defs><title>mus</title><g id="Layer_2" data-name="Layer 2"><g id="map"><path class="cls-1" d="M3,11.57A17.63,17.63,0,0,0,0,14c-.09.15,0,.2.22.51a17.45,17.45,0,0,1,1.13,1.46,21,21,0,0,1,1.95,4.36,24,24,0,0,0,1.83,4.21c1.28,2,1.86,2.24,4.64,3.27l.39.14c3.38,1.26,3.12,2,2.32,4.19-.1.27-.21.57-.3.85h0c-.55,1.64-1.72,2-3,2.35a5.44,5.44,0,0,0-2.77,1.43c-1,1.1-.95,1.56-.81,2.39a9.64,9.64,0,0,1,0,3.3,8,8,0,0,1-1,3.25,3.15,3.15,0,0,0-.43,2,8.23,8.23,0,0,0,1,3.52A12.18,12.18,0,0,1,6,53.4a8.74,8.74,0,0,1,3.58.06,5.63,5.63,0,0,1,2.91,1.89,12.67,12.67,0,0,1,1.92,2.86,15.16,15.16,0,0,1,1.15,3.85,9.9,9.9,0,0,0,2.71,4.89l.52-.09A11.44,11.44,0,0,0,21.69,66a2.68,2.68,0,0,0,1.73-2.4h0a3.47,3.47,0,0,1,1-2.16c.91-.86,1.86-.82,3.15-.77A11.12,11.12,0,0,0,31,60.41a20.76,20.76,0,0,0,2.68-.88,12.49,12.49,0,0,1,4.18-1c1.38-.12,3-.11,4.57-.1,2.32,0,4.51,0,5.51-.39a2.47,2.47,0,0,0,1.38-1.81,15.56,15.56,0,0,0,.32-3.81c0-2.38.83-2.53,1.69-2.69A.77.77,0,0,0,52,49.4h0c.06-.12.15-.12.12-.13h0a4.37,4.37,0,0,0-.92-.22h0a13.18,13.18,0,0,1-2.39-.61c-1.63-.61-1.9-1.26-1.62-2h0a3.15,3.15,0,0,1,.64-.92,4.66,4.66,0,0,0,.47-.58c.55-.86,1.8-.95,3.42-1.06a19.32,19.32,0,0,0,3.46-.48c1.66-.42,1.61-1,1.54-1.8a5.2,5.2,0,0,1,0-1.46A2.58,2.58,0,0,1,57.92,38a12.89,12.89,0,0,1,3.87-1.1,14.51,14.51,0,0,0,4-1.47,9.24,9.24,0,0,1,4.74-1.31c1.31,0,2.1.07,2.78.1,1.15.06,2,.1,4.26,0a35.13,35.13,0,0,0,5.81-.79c.84-.17,1.72-.33,2.64-.48a4.24,4.24,0,0,1-2-2.91,24.29,24.29,0,0,1-.45-2.68,8.8,8.8,0,0,0-.85-3.32,6.08,6.08,0,0,0-.85-1.1c-.85-.94-1.57-1.75-1.28-4.48a20.09,20.09,0,0,1,.49-2.65c.35-1.51.56-2.41-.67-3.46-1.08-.92-1.77-1.54-2.34-2.12a18.24,18.24,0,0,1-1.62-1.92A10.73,10.73,0,0,0,75,6.85a12.35,12.35,0,0,1-2.66-3A8.2,8.2,0,0,0,69.35,1.2,8,8,0,0,0,65.6,0a5.77,5.77,0,0,0-2.95,1.32,9.06,9.06,0,0,0-2.56,2.92,34.35,34.35,0,0,0-1.38,3.54,32.88,32.88,0,0,1-2.13,5.15,16.09,16.09,0,0,1-4.33,4.27,16.71,16.71,0,0,1-5.45,2.69,43.45,43.45,0,0,0-5.09,1.66,33,33,0,0,1-5.43,1.69,16.91,16.91,0,0,1-3.94.2A12.94,12.94,0,0,1,29,22.75c-1.25-.43-2.65-2.49-4.07-4.58A20.33,20.33,0,0,0,21.68,14c-.4-.3-.77-.61-1.11-.9h0a7.08,7.08,0,0,0-5.45-2.1,15.76,15.76,0,0,0-4.11.56A10.59,10.59,0,0,1,7,12c-.56-.06-1.08-.09-1.55-.12A9.87,9.87,0,0,1,3,11.57Z"/></g></g></svg>