<svg xmlns="http://www.w3.org/2000/svg" viewBox="0 0 44.65 72.9"><defs><style>.cls-1{fill:#bfbfbf;fill-rule:evenodd;}</style></defs><title>nevsehir</title><g id="Layer_2" data-name="Layer 2"><g id="map"><path class="cls-1" d="M24.1,0a28.25,28.25,0,0,0-3,3.81A8.8,8.8,0,0,0,19.62,7a12.21,12.21,0,0,1-.54,2.19h0a4.27,4.27,0,0,0-.29,1.2,3,3,0,0,0,.49,0,9.32,9.32,0,0,0,3.14-1.41,6.87,6.87,0,0,1,2.81-1.21,2,2,0,0,1,1.69.87,3.13,3.13,0,0,1,.43.82,3.37,3.37,0,0,1,.18.93h0a2.51,2.51,0,0,1-1,2.2c-.4.3-.82.57-1.23.84-1.08.69-2.13,1.37-2.21,2.21a2.1,2.1,0,0,0,.17,1,3.08,3.08,0,0,1,.12.36h0c.18.74,0,1.17-1.61,1.55l-1,.23c-1.18.25-1.8.38-1.69,1.16a4,4,0,0,0,.83,1.45,5.24,5.24,0,0,1,.83,1.34c.28.81.07,1.49-1.21,1.93a5.49,5.49,0,0,1-2.87.17c-.56-.09-1-.15-1.24.33-.19.32.2.7.58,1.07a6.13,6.13,0,0,1,.51.53h0a1.31,1.31,0,0,1-.25,2.14,5.18,5.18,0,0,1-2.35,1A2.2,2.2,0,0,0,12.1,31a5.56,5.56,0,0,0-.35,1.89c-.12,1.7-.23,3.25-2.83,3.37a7.27,7.27,0,0,1-3.86-1.06c-.89-.45-1.62-.82-2.28-.38-1.31.87-2.41,4.66-2.78,6L.13,41a4.91,4.91,0,0,1,2.75,2.76,15.58,15.58,0,0,1,.74,3.42,17.57,17.57,0,0,0,.76,3.55c.53,1.58,2.74,3.37,4.55,4.84a10.3,10.3,0,0,1,2.76,2.71c.64,1.57.39,2.35-.19,4.08l-.09.28h0A7.28,7.28,0,0,1,10.1,64.8c-.4.5-.72.91-.66,1.19.1.44,1.91,1.74,3.65,3,1,.7,1.94,1.39,2.63,2h0a4.08,4.08,0,0,0,2.2,1.11,9.28,9.28,0,0,0,2.74-.34,9.89,9.89,0,0,1,3.45-.19,20.13,20.13,0,0,1,3.61.91c2.22.71,2.52.54,3.89-.25l.75-.42,1.21-.66a24.52,24.52,0,0,0,2.26-1.33c-.33-.46-.63-.92-.89-1.37a5.44,5.44,0,0,1-1-3.63c.32-1.61,2.14-1.54,3.69-1.49a5.24,5.24,0,0,0,1.36,0h0l.3-.36h0c1.18-1.43,4.95-6,5.26-8a4.06,4.06,0,0,0-.58-2.7A8.39,8.39,0,0,1,43,49,6.14,6.14,0,0,1,43.34,46a1.75,1.75,0,0,0,.08-1.25c-.17-.61-1.1-1.06-1.93-1.45s-1.74-.83-1.9-1.58.77-4.8,1.58-8.41c.58-2.57,1.11-4.9,1.14-5.45,0-.31.07-.71.13-1.18.22-1.67.56-4.22-.46-5.09a36.62,36.62,0,0,1-3-3c-1-1.13-2.12-2.42-3.16-3.79A5.28,5.28,0,0,1,34.61,11a4,4,0,0,0-1.13-3.17A83.28,83.28,0,0,0,25.3.92L24.1,0Z"/></g></g></svg>