<svg xmlns="http://www.w3.org/2000/svg" viewBox="0 0 63.95 70.5"><defs><style>.cls-1{fill:#bfbfbf;fill-rule:evenodd;}</style></defs><title>nigde</title><g id="Layer_2" data-name="Layer 2"><g id="map"><path class="cls-1" d="M17.86,0a4.6,4.6,0,0,0-.79,2.09c-.14,1,.91,2.85,1.9,4.57a13.12,13.12,0,0,1,1.76,3.8c.25,1.74-1.06,2.37-2.59,3.1A9.41,9.41,0,0,0,16,14.85a38.19,38.19,0,0,1-6.83,4C8.15,19.4,7.09,20,6,20.53a16.71,16.71,0,0,0-4.39,3.34A15.11,15.11,0,0,0,0,26L.23,26a12.28,12.28,0,0,1,4,2.13,4.63,4.63,0,0,1,1.65,2.64A8,8,0,0,0,7.49,33.9c1.54,1.85,4.16,3.42,6.34,4.73,1,.6,1.91,1.15,2.61,1.65,2,1.47,2.22,3.38,2.47,5.69h0c0,.43.09.87.15,1.31h0c.27,2-1.35,4.42-2.64,6.39a10.35,10.35,0,0,0-1.36,2.41,10.28,10.28,0,0,0-.11,2.49c.06.94.19,2,.33,3.21A6.87,6.87,0,0,0,17,65.19a16.67,16.67,0,0,1,1.44,2.11,3.69,3.69,0,0,1,.5,2.91c0,.1,0,.19-.05.29a8.61,8.61,0,0,1,1-.51A46.19,46.19,0,0,1,25.3,68l.59-.18h0c3.33-1,6.66-2,10.21-.86l.38.14c.67-.43,5.35-3.44,6.33-6.52.71-2.22-.31-4.42-1-6a7.27,7.27,0,0,1-.73-2c-.13-1.32.47-1.9,1.4-2.78a16.08,16.08,0,0,0,1.13-1.15c1-1.12,3-1.08,5.27-1a15.36,15.36,0,0,0,4.56-.33A19.06,19.06,0,0,0,57.94,45c1.25-.86,2.16-1.66,2.16-2a5,5,0,0,1,.7-2.27c.44-.85,1.1-1.9,2-3.34,1.13-1.78,1.1-2.2,1.06-3a10.1,10.1,0,0,1,0-1.85,35.7,35.7,0,0,0-.84-8c-.5-2.55-1.14-4.83-1.73-5.45-1.15-1.21-2.94-1.26-5.74-1.35l-1.35,0c-2.95-.12-3-.73-3.23-2.44a9.94,9.94,0,0,0-.64-2.7c-.34-.86-.62-1.65-.87-2.34h0A13,13,0,0,0,47,5.46c-.42-.51-.84-1-1.23-1.54a26.76,26.76,0,0,1-2.4,1.41L42.13,6l-.73.42c-1.73,1-2.1,1.2-4.8.34a19.38,19.38,0,0,0-3.41-.86A8.83,8.83,0,0,0,30.12,6,9.93,9.93,0,0,1,27,6.4h0A5.05,5.05,0,0,1,24.22,5h0c-.63-.53-1.59-1.22-2.56-1.91A21.43,21.43,0,0,1,17.86,0Z"/></g></g></svg>