<svg xmlns="http://www.w3.org/2000/svg" viewBox="0 0 54.36 55.91"><defs><style>.cls-1{fill:#bfbfbf;fill-rule:evenodd;}</style></defs><title>rize</title><g id="Layer_2" data-name="Layer 2"><g id="map"><path class="cls-1" d="M0,25.45A4.4,4.4,0,0,1,2.22,24c2.39-.75,5.12-2.13,8-2.73s2.24-1.12,4.41-2,2.77-.07,3.74-1.86.9-3.07,2.84-4.19,2-2.24,4-2.24,1,2.24,4.56,0S34,7.42,35.9,5.7a5.81,5.81,0,0,1,4.19-2C42,3.38,42.78,1.89,44.72.17L44.91,0A14.86,14.86,0,0,1,46.1,1.57a5.89,5.89,0,0,1,1,2.4h0l.06.54c.19,2,.34,3.53,2.81,5.17a14.59,14.59,0,0,0,2.28,1.22c1,.45,1.58.71,1.58,1.68a5.84,5.84,0,0,0,.36,1.86c.24.75.42,1.31-.75,2l-1.13.64c-1.94,1.08-3.56,2-4.2,3.61a5.24,5.24,0,0,0-.38,1.55c0,.36-.07.59-.7,1.26-.34.35-.68.67-1,1a10.89,10.89,0,0,0-3,3.8c-.13.31-.3.67-.46,1-.65,1.42-1.21,2.63-1,3.79a27.85,27.85,0,0,0-1.92,2.29,6,6,0,0,0-1,2.05,6.58,6.58,0,0,1-1,2.14c-.64.89-.66.89-1.15.83a12.84,12.84,0,0,0-2.76-.09c-2.74.16-3,.46-3.83,1.3A10,10,0,0,1,28.31,43c-2.12,1.51-2,2.23-1.88,3.2a2.78,2.78,0,0,1,0,1,2.9,2.9,0,0,1-1.16,1.7h0a13.4,13.4,0,0,0-1.57,1.63,1.61,1.61,0,0,1-1.79.71A7,7,0,0,0,19,51.4,9.77,9.77,0,0,0,15,54.08a5.56,5.56,0,0,1-2.61,1.79A5.17,5.17,0,0,1,10,55.63a4.86,4.86,0,0,1-1.87-1.36c-1-1.14-.85-3-.71-4.53l0-.36h0a5.29,5.29,0,0,1,.88-2,6.56,6.56,0,0,0,1.22-3.4c0-1.26-1.36-5.79-2.91-9.86C5.37,30.81,4,27.79,3,26.93A5.12,5.12,0,0,0,.4,25.55h0l-.4-.1Z"/></g></g></svg>