<svg xmlns="http://www.w3.org/2000/svg" viewBox="0 0 53.74 56.93"><defs><style>.cls-1{fill:#bfbfbf;fill-rule:evenodd;}</style></defs><title>sakarya</title><g id="Layer_2" data-name="Layer 2"><g id="map"><path class="cls-1" d="M24.21,0a13.46,13.46,0,0,0,1.55.69c4.34,1.64,2.54.75,7.78,1.5s6,3.44,9.57,4.48,3.59.15,8.53.9l.41.07,0,0c1.23,1.9,2,3.18,1.51,4.55-.15.37-.28.77-.42,1.17a10.41,10.41,0,0,1-3.16,5,25.32,25.32,0,0,0-3.31,3.34,6.53,6.53,0,0,0-1.51,3.62h0a5.55,5.55,0,0,1-.41,1.73,4,4,0,0,0-.17.54c-.17.8.1,1.15,1.55,1.46A3.5,3.5,0,0,1,48,30a5.12,5.12,0,0,1,.95,1.8,3.35,3.35,0,0,1,0,1.85c-.16.89-.31,1.66.46,2.39a23.79,23.79,0,0,0-1.35,4.65c-.46,2.53-1.68,3.25-3.7,4.47l-.15.09c-1.15.69-3.4.55-5.43.42a11.57,11.57,0,0,0-4,.13c-1.43.51-1.92,1.38-2.64,2.65a18.59,18.59,0,0,1-1.29,2c-1.35,1.82-1,2.57-.46,3.58a4.34,4.34,0,0,1,.5,1.39c.12.79-.79.94-1.73,1.08a6.76,6.76,0,0,0-1.72.43c-.58-.43-1.07-.82-1.49-1.2h0a11.53,11.53,0,0,1-1.91-2.24c-1-1.46-1.85-1.34-4.1-1.06a42.64,42.64,0,0,1-4.45.37c-4.43.12-4.78-.32-5.76-1.52h0c-.24-.29-.5-.63-.84-1-1.3-1.4-1.79-1.4-3.11-1.39h0a16.56,16.56,0,0,1-3.92-.41c-1.64-.35-2-.77-1.89-1.31a6.51,6.51,0,0,1,.55-1.31,7.58,7.58,0,0,0,1-3.73C1.54,40.3,1.06,39.49.3,39a2.28,2.28,0,0,1,.94-.89,11.39,11.39,0,0,1,3.9-.8,12.93,12.93,0,0,0,4.39-.92,11,11,0,0,0,3.22-2.83,20.07,20.07,0,0,0,2.8-4.41,4.79,4.79,0,0,0,0-3.23,4.08,4.08,0,0,1,0-2.81,5.14,5.14,0,0,1,2.19-2.34,12.52,12.52,0,0,0,1.88-1.46c1.23-1.17.28-3-.75-5-.83-1.62-1.72-3.36-1.38-4.6a16.82,16.82,0,0,0,.4-1.83c.14-.86.15-.93,1.89-2.37a16.32,16.32,0,0,0,3.84-4.38A10.86,10.86,0,0,0,24.21,0Z"/></g></g></svg>