<svg xmlns="http://www.w3.org/2000/svg" viewBox="0 0 112.08 57.08"><defs><style>.cls-1{fill:#bfbfbf;fill-rule:evenodd;}</style></defs><title>samsun</title><g id="Layer_2" data-name="Layer 2"><g id="map"><path class="cls-1" d="M31.62,6.26a9,9,0,0,0,3,.4c3.07.07,6.47-1.16,10.58-3.33S51-.26,51.94,0,55-.56,56.06.71s5.61,3.66,6.13,5.61a14.29,14.29,0,0,1,.52,5.31c-.15,1.95-1.87,1.8-.6,4s4.11,4.79,7.55,8.15,2.62,4.34,6.06,5.83,4.71,1.94,7.18-.15,3.66-6.13,4.41-6.51,1.07.06,3.83.69,5,0,8.18,1.2a21.77,21.77,0,0,1,7.1,4.26c1.68,1.49.49,4.49,1.76,5.46a13.21,13.21,0,0,0,3.9,2.28,5.17,5.17,0,0,1-2.84,3.36,3.64,3.64,0,0,1-2.32.42,3.85,3.85,0,0,0-3,.73h0c-1.74,1.16-1.51,1.67-1.07,2.65a3.55,3.55,0,0,1,.37,1.82,3.36,3.36,0,0,1-.81,2.29,5.47,5.47,0,0,0-1,1.67c-.51,1.43-5,1.42-7.42,1.42h-.27c-2,0-2.31.54-2.82,1.35a4.08,4.08,0,0,1-.77,1c-.6.53-1.56.4-2.6.25a8.07,8.07,0,0,0-2.66-.08A7.37,7.37,0,0,0,82,55.13a5,5,0,0,1-1.68.91,2.44,2.44,0,0,1-2.13-.84l-.45-.37h0a6.23,6.23,0,0,0-1.39-.65c-1.09-.42-2.54-1-3-1.95-.31-.66.28-1.18.77-1.61s1-.9.88-1.56V49c-.23-.64-2-1.07-4-1.25h0a20.35,20.35,0,0,0-4.81,0h0l-.29.08c-1.15.41-1.22.88-1.35,1.84A7.52,7.52,0,0,1,64,51.59a11.62,11.62,0,0,1-2,3.21,14.93,14.93,0,0,0-1.08,1.44,1.9,1.9,0,0,1-1.57.82,10.76,10.76,0,0,1-2.74-.29c-1.15-.22-2.68-.54-4.15-.85-1.21-.26-2.35-.51-3.13-.7a46.47,46.47,0,0,0-5.22-.61c-1.78-.15-3.61-.32-4.84-.51h0a3.87,3.87,0,0,1-2.93-2.39,9,9,0,0,0-.91-1.38c-.83-1-2-1-3.22-.92A4.23,4.23,0,0,1,30,49.1c-.46-.28-.37-.89-.29-1.48.14-1,.29-2-.94-2.65-1.62-.84-3.19-.58-5.75-.15l-1.47.24a8.09,8.09,0,0,0-3.36,1.14,2.26,2.26,0,0,1-1.34.42c-.92,0-1.28-.58-1.79-1.43a14.11,14.11,0,0,0-.9-1.34,10.34,10.34,0,0,1-.63-.92h0c-.73-1.16-1-1.67-3.59-1.54A13.17,13.17,0,0,1,5,40.29c-1.71-.69-3.15-1.52-3.4-2.11a9.67,9.67,0,0,1-.47-1.65A5.72,5.72,0,0,0,.2,34.09a1.33,1.33,0,0,1-.14-1.14,6.16,6.16,0,0,1,1.05-2.06,1.59,1.59,0,0,1,1.12-.6,3.23,3.23,0,0,0,1.64-.72,2.69,2.69,0,0,0,.84-1.45,3.28,3.28,0,0,1,1.57-2l.47-.31C8.61,24.52,10,23.6,12,24.28c1.23.41,1.53,1.32,1.94,2.55A13.12,13.12,0,0,0,15.36,30c1.66,2.59,3.25,2.33,5.14,2a14.07,14.07,0,0,1,1.42-.19,5.91,5.91,0,0,0,3.83-2.27,11.5,11.5,0,0,0,2.45-4.82c.55-2.44-.56-4-1.5-5.35a5.68,5.68,0,0,1-.9-1.57c-.21-.8,1.11-2.31,2.34-3.72a15.33,15.33,0,0,0,1.95-2.53h0A17,17,0,0,0,31.25,8c.14-.6.27-1.2.37-1.78Z"/></g></g></svg>