<svg xmlns="http://www.w3.org/2000/svg" viewBox="0 0 80.05 40.5"><defs><style>.cls-1{fill:#bfbfbf;fill-rule:evenodd;}</style></defs><title>siirt</title><g id="Layer_2" data-name="Layer 2"><g id="map"><path class="cls-1" d="M80.05,25.56a4.7,4.7,0,0,0-.59-.93,8.19,8.19,0,0,1-1.51-2.91,7.89,7.89,0,0,1-.35-2.27,2.69,2.69,0,0,0-.89-2.08c-1.33-1.58-4.11-1.28-6.13-1.05l-.48.05h0c-.79.08-.89.32-1,.59a2.49,2.49,0,0,1-1.77,1.55,1.61,1.61,0,0,0-1,1.38c-.24,1-.43,1.84-2.18,1.32-1.5-.45-1.62-1.38-1.74-2.45a2.85,2.85,0,0,0-1.05-2.2c-.61-.46-1.15-.92-1.69-1.37h0a12.67,12.67,0,0,0-4.55-2.87,25,25,0,0,1-3.66-1.24A12.41,12.41,0,0,1,48,8.82c-.61-.56-1.36-1.36-2.19-2.24-2-2.14-4.5-4.75-6-5.19h0l-.39-.12h0C37.59.73,36.57.42,35,1.35a13.58,13.58,0,0,0-2.61,2.29A8.64,8.64,0,0,1,29.71,5.8c-1.21.45-1.4-.2-1.64-1-.11-.38-.25-.85-1-.8a7.09,7.09,0,0,0-1.74.37h0a2.88,2.88,0,0,1-3.38-.58h0a7,7,0,0,1-1.12-1.21c-.26-.34-.33-.43-1.71-.6l-1-.12A6.61,6.61,0,0,1,14.94,1C14.2.64,13.3.25,12.68,0A2.69,2.69,0,0,1,12,.73a3.56,3.56,0,0,0-.9,1.16,9.22,9.22,0,0,0-.67,2.68,7.17,7.17,0,0,1-.82,2.87h0l-.29.46h0A8.22,8.22,0,0,1,6.44,11c-.69.48-1.38.87-2.05,1.25h0A13.85,13.85,0,0,0,.92,14.71C-.4,16.08,0,17.89.34,19.59c.07.34.14.67.2,1a3.07,3.07,0,0,0,1.26,2,10.26,10.26,0,0,0,3.05,1.34,17.18,17.18,0,0,0,4.34.29c2.66,0,5.37,0,6.34,1.26,1.17,1.56.23,2.37-1,3.4A6.92,6.92,0,0,0,13,30.53c-.62,1-.15,1.31.73,1.83.4.24.86.51,1.36.87h0c.45.33.59.38.63.32a2.76,2.76,0,0,0,.21-.47A2.2,2.2,0,0,1,17,31.68h0a2.06,2.06,0,0,1,2.2.29,11.16,11.16,0,0,1,2,2h0a2.51,2.51,0,0,1,.53,3,4.34,4.34,0,0,0-.22.78,7.08,7.08,0,0,1,1.6,1.06l.19.17c.55-.39,1.81-1.18,2.5-.92a5.59,5.59,0,0,1,1.29.8,16.11,16.11,0,0,1,1.53,1.34c.44.44.88.24,1.87-.23h0l.56-.26h0c.26-.12.47-.23.67-.34h0c1.2-.63,2-1.08,6.47-.49s5.21.31,6.89-.26h0l.71-.24c1.35-.43,2.69-2.34,3.93-4.1a22.85,22.85,0,0,1,2-2.56,12.92,12.92,0,0,1,3.73-2.68,12.15,12.15,0,0,1,4.34-1.16c2.46-.17,3.08.32,4.29,1.28a17.15,17.15,0,0,0,1.66,1.2A14,14,0,0,0,70,32.21c.71.2,1.5.42,2.49.77,2.49.87,2.77.62,3.27.16h0l.13-.12h0a18,18,0,0,0,1.43-2.76c.9-1.92,1.94-4.13,2.73-4.69Z"/></g></g></svg>