<svg xmlns="http://www.w3.org/2000/svg" viewBox="0 0 61.61 56.49"><defs><style>.cls-1{fill:#bfbfbf;fill-rule:evenodd;}</style></defs><title>sinop</title><g id="Layer_2" data-name="Layer 2"><g id="map"><path class="cls-1" d="M0,9.65c.46,0,1,0,1.55-.05,5.68-.45,5.83-2.24,8.67-2.24s6,3.18,10.2,2.73S29,9.33,30.6,7.32a42.39,42.39,0,0,0,4.19-6c.82-1.57,2.77-1.42,4-1.2s.6,1.95,2.54,4.26,3.89.07,4.93.9-3.36,2.17-3.36,4.34,2.39,5.53,3.81,7.4-1,4.19,3.51,6.51,6.36,1.49,9,4.34A17.87,17.87,0,0,0,61.61,30c-.12.67-.26,1.39-.43,2.1a15.91,15.91,0,0,1-1.07,3.29h0a14.59,14.59,0,0,1-1.8,2.31c-1.42,1.63-2.94,3.37-2.58,4.74a6.36,6.36,0,0,0,1.07,1.94c.81,1.15,1.76,2.5,1.32,4.45a10.32,10.32,0,0,1-2.2,4.33,4.85,4.85,0,0,1-3,1.89,13.22,13.22,0,0,0-1.54.2c-1.49.25-2.74.46-4-1.51A12.17,12.17,0,0,1,46,50.84c-.5-1.54-.88-2.68-2.65-3.27-2.55-.85-4.1.19-6.23,1.62l-.47.31a4.23,4.23,0,0,0-2,2.63,1.82,1.82,0,0,1-.5.92,2.34,2.34,0,0,1-1.13.48,2.51,2.51,0,0,0-1.8,1,8.21,8.21,0,0,0-1.07,1.92c-2.11-1.13-7.94-4.22-11.28-5.8a12.05,12.05,0,0,0-7.4-1.07l-.67.08a4.61,4.61,0,0,0-.06-.54,12.62,12.62,0,0,0-1-2.87C9,44.48,8.1,42.48,8.92,40.18c.32-.88.51-1.54.65-2,.42-1.44.44-1.54,3-3.37a20.86,20.86,0,0,0,4.49-4.14,5.58,5.58,0,0,0,1.16-2.51,2.61,2.61,0,0,0-.94-2.42h0a5.61,5.61,0,0,0-2-1c-4.06-1.28-8.46-1.07-11.36-.94a16.55,16.55,0,0,1-2.62,0h0l.07-.11h0A5.21,5.21,0,0,0,2.53,20.4a38.52,38.52,0,0,0-.21-4.45,12.43,12.43,0,0,0-1-4C1,11.34.51,10.52,0,9.65Z"/></g></g></svg>