<svg xmlns="http://www.w3.org/2000/svg" viewBox="0 0 146.23 131.29"><defs><style>.cls-1{fill:#bfbfbf;fill-rule:evenodd;}</style></defs><title>sivas</title><g id="Layer_2" data-name="Layer 2"><g id="map"><path class="cls-1" d="M74.54,127.42a1.83,1.83,0,0,1,.9-1.44,5.13,5.13,0,0,0,1.17-1.72,16,16,0,0,1,1.73-2.73,17,17,0,0,1,2.85-2.7,19.64,19.64,0,0,1,3.48-2.13,9.42,9.42,0,0,1,2-.67c.58-.13.86-.2.95-.91s-.66-1.67-1.52-2.7a14.39,14.39,0,0,1-1.94-2.74c-.17-.35-.37-.72-.54-1h0a4.77,4.77,0,0,1-.56-1.29,4.83,4.83,0,0,1,.2-2l0-.13h0l.17-.82a12.33,12.33,0,0,0,.34-4.27h0c-.09-1.52.18-2.33.93-2.75a5.38,5.38,0,0,1,3.06-.16,13.7,13.7,0,0,1,4.46,1.22c.58.23,1.26.51,2.11.83s1.43.6,1.92.84a6.55,6.55,0,0,0,.9.39c.24.07.38-.3.77-1.75A8.75,8.75,0,0,0,98.23,96c-.06-1.51-.09-2.27,2-2.74a4.11,4.11,0,0,1,2.54.1c.66.21,1.37.43,3.54-.24l1.48-.47c2.67-.85,2.68-.85,5.56-.45a14.56,14.56,0,0,1,2.2.49c1.21.35,1.78.51,3.48-1h0A20.86,20.86,0,0,0,121,89.93a3,3,0,0,1,2.63-1.33,30.68,30.68,0,0,1,4.12.14c.09-.24.22-.54.39-.91a5.85,5.85,0,0,0,.57-2.58,7.41,7.41,0,0,0-.58-2.58,3.07,3.07,0,0,1,.24-2.81,1.74,1.74,0,0,0,.26-1.27,3.67,3.67,0,0,0-.86-1.18c-.87-.95-1.8-1.95-1.15-3.67a9.75,9.75,0,0,1,1.8-2.84,3.13,3.13,0,0,0,.78-1.18l-.93-.36c-1.12-.45-2.57-1-3-2.53a3.5,3.5,0,0,1,0-2.5,1,1,0,0,0,0-.86c-.51-1.08-.25-1.38.2-1.92a2.91,2.91,0,0,0,.6-1,1.75,1.75,0,0,0-.31-1.47,6,6,0,0,1-.84-3.14,2.64,2.64,0,0,1,1.13-2.53c.37-.29.74-.59.74-1.8a5.53,5.53,0,0,0-.35-2.1h0c-.32-.89-.43-1.21.76-2.35a14.7,14.7,0,0,1,1.82-1.41c1.07-.75,2.08-1.44,2.28-2.41a2.49,2.49,0,0,0-.28-1.92,4.79,4.79,0,0,0-2-1.57c-.45-.22-.88-.39-1.24-.54-1.61-.65-2.29-.93-1.74-2.81a8.72,8.72,0,0,1,1.34-2.79,3.54,3.54,0,0,1,2-1.41,5.24,5.24,0,0,1,2.81.38,9.44,9.44,0,0,1,2.85,1.69c.59.53,1,.76,1.31.75a2.84,2.84,0,0,0,1.39-.83,9.07,9.07,0,0,0,1-1,2.66,2.66,0,0,1,2.39-1.19,4.73,4.73,0,0,1,2,.64c.76.37,1.49.74,2.08.24a3.61,3.61,0,0,0,1-2,9.17,9.17,0,0,0,.12-3H146c-2.61.08-2.72,0-5.35-1.66l-.35-.22c-2.44-1.54-3.07-1.5-4.16-1.43h0l-.36,0h0a8,8,0,0,0-2.35.73h0a18.69,18.69,0,0,1-3,1.05c-1.75.41-3.61-1.5-5.33-3.25a10.75,10.75,0,0,0-2.69-2.3,10.48,10.48,0,0,1-3-1.57h0a4.39,4.39,0,0,1-1.66-3,31.42,31.42,0,0,1-.08-4.16c0-1.06,0-2.07,0-2.95A4.52,4.52,0,0,0,116.59,7a5.06,5.06,0,0,1-1.28-3,10.58,10.58,0,0,0-.81-4,18.56,18.56,0,0,1-2.06.7c-2.54.73-4,1.33-4.89,2.09a4.88,4.88,0,0,0-1.44,3A8.08,8.08,0,0,1,105,9.14a3.9,3.9,0,0,1-3,1.31c-1.5.17-2.68-1-3.73-2a9.64,9.64,0,0,0-1.1-1c-.38-.27-.73-.32-1.05.14a5.45,5.45,0,0,0-.69,2.91,8.45,8.45,0,0,1-.12,1.27c-.22,1-.76,1.62-2.31,1.28A11.92,11.92,0,0,1,88.39,11a8.3,8.3,0,0,1-1.51,2.47,12,12,0,0,1-2.54,1.72,10,10,0,0,0-3.15,2.3A9.69,9.69,0,0,0,80.39,20c-.36,1.58-.73,3.19-1.76,3.84s-2.3,0-3.75-.71h0a9.54,9.54,0,0,0-3.32-1.22,6.7,6.7,0,0,0-2.4.18,6,6,0,0,1-3,0,7.53,7.53,0,0,1-3.26-1.85,4.67,4.67,0,0,0-2.76-1.43,5.17,5.17,0,0,0-2.9,1.06h0a10.46,10.46,0,0,1-2.45,1.23h0a5,5,0,0,1-1.89.42,4.51,4.51,0,0,1-.92-.2c-.5-.13-1.25-.34-2.58-.59a7.57,7.57,0,0,0-4.54.38,6.8,6.8,0,0,0-3.12,3,23.5,23.5,0,0,0-1.64,5.89h0c-.47,2.36-.93,4.67-1.73,5.95S35.78,38,33.78,38a26.93,26.93,0,0,1-6.07-.69h0c-3.35-.7-4.74-.51-8.42,0l-1.86.25c-3,.38-5.58.5-7.73.59-1.46.07-2.7.13-3.62.25a4,4,0,0,1-.43,1.17,1.72,1.72,0,0,0-.2,1.63A4.06,4.06,0,0,0,7,42.67a4.7,4.7,0,0,1,2.5,3,19.21,19.21,0,0,1,.37,2.37c.13,1.18.22,2.08.95,2.72a7.58,7.58,0,0,0,.82.62c1.22.85,2.42,1.68,2.81,5.12a11.76,11.76,0,0,1-.19,4.65h0a12.89,12.89,0,0,1-1.69,3.34,44.19,44.19,0,0,0-3.36,7.61h0l-.14.39a9.74,9.74,0,0,1-2.29,3.25h0A30.06,30.06,0,0,1,2.45,79.3L.55,80.61l-.23.16.71.39c1.45.77,3,1.6,2.59,3.47A6.07,6.07,0,0,1,1.45,87.3C.57,88-.23,88.74.06,89.06c.46.52,1.49.42,2.58.32a6.45,6.45,0,0,1,3.21.22A5.52,5.52,0,0,1,7.78,91.1a4,4,0,0,0,2.29,1.45,58.67,58.67,0,0,0,7.84.94,26.19,26.19,0,0,0,5.83-.19,12.93,12.93,0,0,0,3.06-1,2.64,2.64,0,0,1,2.92,0,6.92,6.92,0,0,1,1.52,1.11,1.46,1.46,0,0,0,1.91.37,32.45,32.45,0,0,0,3.41-1.88c2.42-1.44,5.24-3.12,6.9-3.32,1.9-.23,2.25,1.11,2.63,2.62a4.32,4.32,0,0,0,1.08,2.3A8.58,8.58,0,0,0,49.67,95a32.49,32.49,0,0,0,3.86,1.13,4.38,4.38,0,0,1,1.83.93A3.58,3.58,0,0,1,56.51,99a5.37,5.37,0,0,1-.09,2.52,13.34,13.34,0,0,1-3,5.24c-2.4,2.75-2.75,4.35-3,5.53a3.91,3.91,0,0,1-1.22,2.43h0a7,7,0,0,1-2.59,1.32c-1.35.47-2.68.93-2.92,2.68a4.51,4.51,0,0,0,1.44,3.75,6.56,6.56,0,0,1,1.54,2.61c.47,1.87-.13,4.64-.48,6a5.07,5.07,0,0,1,.83.19c.23.07.6-.29,1.06-.74a4.69,4.69,0,0,1,3.17-1.68c2-.07,19.32-1.18,23.36-1.44Z"/></g></g></svg>