<svg xmlns="http://www.w3.org/2000/svg" viewBox="0 0 76.41 61.29"><defs><style>.cls-1{fill:#bfbfbf;fill-rule:evenodd;}</style></defs><title>tekirdag</title><g id="Layer_2" data-name="Layer 2"><g id="map"><path class="cls-1" d="M65.37,35.23a4.14,4.14,0,0,0-.85,1A4.38,4.38,0,0,1,60,38.57c-1.72-.23-2.47-1.8-4.78-2.54s-2.32-1.12-5.83-.75-5.46,1.2-7.25.82-2.47-.67-3.22.67-.07,3.66-1.57,4.93.07,2.17-1.57,3.74S30.43,47.61,30,49.11s.45,1.87-1.79,3.59A29.44,29.44,0,0,1,23,56c-2.5,1.38-1.27,2.09-3.4,2.77s-1.76-.56-4.6.6c-2.42,1-2.18,1.43-3.12,1.89-.42-.28-.85-.52-1.25-.75-1.05-.59-1.9-1.06-1.54-1.89a5.78,5.78,0,0,1,2-2c1-.73,2-1.42,2.19-2.55,0-.22.09-.41.13-.6.38-1.72.68-3-1-4-1-.61-3-.78-4.78-.92a16.65,16.65,0,0,1-2.6-.33c-1.17-.35-2.5-.71-3-.85a11.76,11.76,0,0,0-.48-1.7c-.23-.64-.4-1.06-.55-1.39h0c-.4-.94-.51-1.18-.62-4.57-.08-2.59.37-3.32.83-4.07a5.87,5.87,0,0,0,1-2.56C2.55,31,1.66,30.46.81,30,.42,29.77,0,29.56,0,29s.7-.69,1.72-.82a9.4,9.4,0,0,0,3.37-.89,31.86,31.86,0,0,0,5.51-3.74,13.27,13.27,0,0,0,3.25-3.83,5.48,5.48,0,0,0,.37-5.11c-.19-.64-.41-1.41-.62-2.43-.3-1.52-.48-2.46-.61-3.27a13.21,13.21,0,0,1,2.32.3,10.09,10.09,0,0,1,2.83,1.17c.64.38,1.17.76,1.64,1.1A5.5,5.5,0,0,0,23.36,13c.63,0,1.46-.05,2.35-.11a17.66,17.66,0,0,1,4.94.07c.44.15,1,1.2,1.64,2.34.94,1.72,2,3.64,3.53,3.89a31.38,31.38,0,0,0,4.56.46c1.76,0,3.45-.22,4.36-1s1.08-2.3,1.24-3.84S46.29,11.86,47,11h0c.33-.39.62-.75.9-1.11h0C49.13,8.35,50.18,7,52.49,6.52c1.07-.24,2-.39,2.89-.54h0a20.16,20.16,0,0,0,4.84-1.22,15.46,15.46,0,0,0,2.26-1.32,12,12,0,0,1,6-2.44C71,.81,74.17.33,76.2,0l.21.23c-1.34,1.19-3,2.86-3.51,4-.56,1.34.07,1.83.87,2.43h0A2.62,2.62,0,0,1,75,8.28a4.23,4.23,0,0,1-.81,2.86,18.4,18.4,0,0,1-3.49,3.93c-1.79,1.56-1.89,2.14-2.15,3.57A19,19,0,0,1,67.94,21a18.56,18.56,0,0,1-1.62,3.54,11.31,11.31,0,0,0-1,10.67Z"/></g></g></svg>