<svg xmlns="http://www.w3.org/2000/svg" viewBox="0 0 110.29 61.63"><defs><style>.cls-1{fill:#bfbfbf;fill-rule:evenodd;}</style></defs><title>tokat</title><g id="Layer_2" data-name="Layer 2"><g id="map"><path class="cls-1" d="M27.64,61.63c1-.13,2.26-.19,3.77-.26,2.13-.1,4.74-.22,7.63-.59l1.85-.25c3.82-.51,5.26-.7,8.8,0h0a25.85,25.85,0,0,0,5.8.68c1.64-.06,3-.46,3.62-1.47s1.14-3.31,1.59-5.57h0A24,24,0,0,1,62.47,48a7.89,7.89,0,0,1,3.65-3.53,8.67,8.67,0,0,1,5.2-.45c1.38.25,2.16.47,2.68.61a4.71,4.71,0,0,0,.7.16,4.72,4.72,0,0,0,1.46-.37h0l0,0h0a9.44,9.44,0,0,0,2.21-1.11h0A6,6,0,0,1,81.92,42a5.48,5.48,0,0,1,3.48,1.69,6.68,6.68,0,0,0,2.77,1.61,5,5,0,0,0,2.5,0,8,8,0,0,1,2.74-.2,10.41,10.41,0,0,1,3.74,1.33h0c1.15.58,2.14,1.08,2.64.77s1-1.78,1.26-3.14A10.17,10.17,0,0,1,102,41.2c.63-1,2.15-1.89,3.55-2.69A11.69,11.69,0,0,0,107.83,37a7.65,7.65,0,0,0,1.43-2.5,6.21,6.21,0,0,1-1.94-4.66,9.82,9.82,0,0,1,2.09-5,6.14,6.14,0,0,0,.89-1.57h0c0-.13-.12-.24-.58-.33a22.42,22.42,0,0,0-5-.19,29.37,29.37,0,0,1-4.86-.11,12.47,12.47,0,0,0-2.6,0c-2,.13-3.26.21-4-2.63-.54-2.08-1.81-2.48-3.35-3a13.33,13.33,0,0,1-2.51-1c-.75-.42-1.33-.8-1.85-1.15a8.71,8.71,0,0,0-4.95-1.77,9.42,9.42,0,0,1-4.75-1.68A5,5,0,0,0,74,10.53c-1.17-.18-1.9-1.16-2.72-2.25A6.88,6.88,0,0,0,68.5,5.71a10.63,10.63,0,0,1-3.37-1.86A19.61,19.61,0,0,1,62,.13a5.66,5.66,0,0,1-2.66,0,7.36,7.36,0,0,0-2.3-.09,6.37,6.37,0,0,0-2.48,1.23,5.72,5.72,0,0,1-2.1,1.08,2.8,2.8,0,0,1-2.08-.32l-.59.5c-.54.44-.64.53-.22,1A11.37,11.37,0,0,0,52,5.14,15.19,15.19,0,0,1,54.8,7h0c.58.58.74,1.15.2,1.68h0c-.72.73-2,.65-3.13.59-.82,0-1.59-.09-1.77.12a5.21,5.21,0,0,0-1,1.79h0a2,2,0,0,0,0,1.36c.18.41.57,1.08,1,1.85.95,1.65,2.12,3.69,2.18,4.78.09,1.67-2,2.32-2.78,2.58l-.19.07h0c-.45.18-.83-.19-1.38-.72-.84-.81-2.27-2.21-3.79-2.08a17.45,17.45,0,0,0-3,.46c-.59.17-1,.34-1,.53s.32.5.7,1c.79,1.14,1.76,2.56,1.25,3.83h0c-.38.93-2.1,2-4,2.82a16.11,16.11,0,0,1-5.79,1.49A3.61,3.61,0,0,1,29.83,28,3.49,3.49,0,0,0,27.5,26.8c-.58,0-1.33-.13-2.1-.22-2.35-.25-5-.54-5.12-.32h0c-.21.43-.77,1.42-1.46,2.56-.54.9-1.16,1.89-1.75,2.78h0c-1,1.53-5.81,3.41-9.33,4.8-1.56.61-2.87,1.13-3.42,1.43-1.49.84-3.27,3.71-4,4.9h0L0,43.18H0a1.87,1.87,0,0,1,.11.27,13.59,13.59,0,0,0,1.65,3.49,6.25,6.25,0,0,0,2,2A8.13,8.13,0,0,1,5.73,50.5a6.25,6.25,0,0,0,4,2.11c.69.11,1.28.22,1.8.32h0c2.34.44,3.49.65,5.89-.84a6,6,0,0,1,2.14-.8h0a6.61,6.61,0,0,1,3.56.42,5.42,5.42,0,0,1,2.56,2.06,3.64,3.64,0,0,1,.51,1.32,19.6,19.6,0,0,1,.22,2.6,5.36,5.36,0,0,0,.86,3.42,2.86,2.86,0,0,1,.35.53Z"/></g></g></svg>