<svg xmlns="http://www.w3.org/2000/svg" viewBox="0 0 67.91 35.47"><defs><style>.cls-1{fill:#bfbfbf;fill-rule:evenodd;}</style></defs><title>trabzon</title><g id="Layer_2" data-name="Layer 2"><g id="map"><path class="cls-1" d="M2.48,2.15C3.45,2.87,4.1,4,5.39,3.9c2-.22,5.16-3.59,7.48-3.81S17.2,0,18.32,1.21,19.52,4.27,22.58,5s3.25-.19,4.3.19A27,27,0,0,0,31.59,6.7c1.79.3-.75,1.2,2.92,1.8s2.84-.3,5.53-1,4.11,1,5.31,1.87,1.57,1.27,3.89,1a24.52,24.52,0,0,0,8.22-3.22A6.06,6.06,0,0,0,58.74,6a8.14,8.14,0,0,0,.89.25h0a4.17,4.17,0,0,1,2.12,1.12c.82.73,2.13,3.58,3.33,6.72,1.52,4,2.84,8.31,2.84,9.45a5.68,5.68,0,0,1-1.06,2.82,6.06,6.06,0,0,0-1,2.51h0l0,.35c-.16,1.77-.35,3.87,1,5.38.15.18.32.34.48.49a19.5,19.5,0,0,1-2.15.28c-1.23.09-2.62.06-3.9,0-.72,0-1.4,0-2,0a31.28,31.28,0,0,1-4.8-.27A17.91,17.91,0,0,1,50.19,34a5.74,5.74,0,0,1-2.51-1.62,10.88,10.88,0,0,1-1.36-2.81A2.84,2.84,0,0,0,45.1,28h0a1.82,1.82,0,0,0-1.26-.18,2.52,2.52,0,0,0-1.06.53,2.93,2.93,0,0,0-1,1.76,3.36,3.36,0,0,0,.4,1.95,2.9,2.9,0,0,1,.32,1.83h0a.45.45,0,0,1-.21.32,1.06,1.06,0,0,1-.62.09,2.62,2.62,0,0,1-.91-.26,2,2,0,0,1-1.12-1.13c-.35-1.37-1.14-1.84-2.28-2.52-.4-.24-.84-.5-1.34-.86s-.37-.94,0-1.58a5.23,5.23,0,0,0,.81-2.52A2.13,2.13,0,0,0,36.33,24h0a1.76,1.76,0,0,0-1.13-.62h0a2.83,2.83,0,0,0-1.3.13,4.31,4.31,0,0,0-2.21,1.76c-.79,1.24-.91,3.09-1,4.79A11,11,0,0,1,30.26,33a4,4,0,0,1-1.46,1.86,3.82,3.82,0,0,1-2.23.63c-.72,0-1.68-1-2.65-2.09-1.2-1.29-2.42-2.6-3.76-2.58-1.84,0-2.77-.6-5.95-2.76l-.55-.37h0c-1.47-1-3.13-2.06-4.76-3.09a59,59,0,0,1-6.16-4.18,7.45,7.45,0,0,1-1.5-2.23A18.31,18.31,0,0,1,.06,14.62a2.7,2.7,0,0,1,.41-2A3.61,3.61,0,0,0,1,10.43l0-.32a8.83,8.83,0,0,1,.36-4.49l0-.11A11.25,11.25,0,0,0,2.48,2.15Z"/></g></g></svg>