<svg xmlns="http://www.w3.org/2000/svg" viewBox="0 0 86.34 56.18"><defs><style>.cls-1{fill:#bfbfbf;fill-rule:evenodd;}</style></defs><title>tunceli</title><g id="Layer_2" data-name="Layer 2"><g id="map"><path class="cls-1" d="M63.48,33.34a22.12,22.12,0,0,0-.33-2.3,16.61,16.61,0,0,0-.73-2.57c-.76-2-.52-2.45.38-4.08l0,0a4.44,4.44,0,0,0,.52-1.44,7.56,7.56,0,0,1,.82-2.29c.87-1.67,1.58-1.52,2.73-1.27a5.36,5.36,0,0,0,1.75.15A4.88,4.88,0,0,0,71.91,18l.77-.66A7.76,7.76,0,0,1,75.16,16a5.85,5.85,0,0,0,2.2-1.22c.2-.19.15-.33,0-.46s-.19-.18-.3-.28c-.76-.69-1.62-1.48-.55-3a22.35,22.35,0,0,1,3.54-3.67A15.81,15.81,0,0,1,83.9,4.86a18.61,18.61,0,0,0,2.44-1.14l-.43-.56A4.8,4.8,0,0,0,83,.94,46.58,46.58,0,0,0,76.35.56,13.57,13.57,0,0,0,72.42.9h0l-.36.32a6.5,6.5,0,0,1-5.76,2,17.06,17.06,0,0,0-3.31,0c-2.05.11-3.84.2-5.17-1.18a14,14,0,0,0-2-1.84A.77.77,0,0,0,55,.07a8,8,0,0,0-2,1.35c-.27.27-.45.54-.4.72s.12.37.19.55c.41,1.17.87,2.47-.64,3.18a8.58,8.58,0,0,1-1.88.52c-1,.2-2,.4-2.19.85-.08.18-.17.45-.27.75h0c-.46,1.42-1.1,3.39-3.65,3.54-1.88.11-2.15-1-2.45-2.31-.19-.79-.4-1.66-1.28-2-1.16-.42-1.92.26-2.71,1a5.18,5.18,0,0,1-2.37,1.44c-.59.13-1.3.34-2,.56-1.89.56-3.88,1.16-4.79.45a6.12,6.12,0,0,1-.76-.71c-.4-.43-.75-.8-1.28-.45a9.22,9.22,0,0,0-1.37,1.3c-1,1.07-2.1,2.24-3.35,2.24a8.21,8.21,0,0,1-1.48-.18c-1-.17-1.93-.34-2.68.45a7.11,7.11,0,0,0-1.1,2.3c-.61,1.7-1.24,3.47-2.9,3.7h0a9.23,9.23,0,0,1-3-.18C10,19,9.41,18.88,9.19,19h0c-.16.12-.11.77-.06,1.37.08,1,.15,1.94-.81,2a3.36,3.36,0,0,1-1.61-.59c-1-.55-2.39-1.29-3.15-.6a1.7,1.7,0,0,0-.41.56A2.24,2.24,0,0,0,3,23.25a3.35,3.35,0,0,0,.78,1.47,3,3,0,0,0,1,.72,6.9,6.9,0,0,0,1.59.49h0c1.13.24,1.72.37,1.72,1.89,0,1.25-.52,1.34-1.6,1.55a8.47,8.47,0,0,0-3.85,1.73A6,6,0,0,0,.06,34.9,6.15,6.15,0,0,0,.59,38.3a2.51,2.51,0,0,0,.81,1.17c.43.36.83.7,1.38,2.55a4,4,0,0,1,0,3.25A2.86,2.86,0,0,0,2.57,47a7.62,7.62,0,0,1,0,1.84c0,.19,0,.36,0,.51,0,.42.26.61,1.91.61a12.89,12.89,0,0,0,3.87-.65,11.68,11.68,0,0,1,4.7-.61,17.65,17.65,0,0,1,5.9,1.1l.37.12,1,.33a7.83,7.83,0,0,0,1.25.37,11.93,11.93,0,0,0,2,0h.13c.49,0,.94,0,1.32-.08,1.64-.13,2.24-.17,4.14,1.41a12.54,12.54,0,0,0,4.42,1.9,8.12,8.12,0,0,1,2.64,1h0a4.64,4.64,0,0,1,.8.84c.28.35.44.56,1.44.26a3.62,3.62,0,0,0,1.75-1.15,8.94,8.94,0,0,1,2.17-1.72c.48-.28.81-.48,1.07-.64a5.87,5.87,0,0,1,1.13-.61,14.87,14.87,0,0,1,2.51-.51l.12,0a6.22,6.22,0,0,1,2.57,0c.66.13,1.21.23,3.54-.64a9.63,9.63,0,0,0,4.06-2.48A8.44,8.44,0,0,0,59,44.76a19,19,0,0,0,.66-3,6.13,6.13,0,0,0-.15-1.86c-.08-.41-.46-.62-.81-.8-.86-.46-1.59-.85-.79-2.4.23-.43.39-.81.53-1.12a3.14,3.14,0,0,1,2.42-2.29h0a2.52,2.52,0,0,1,1.78,0,1.87,1.87,0,0,0,.84.08Z"/></g></g></svg>