<svg xmlns="http://www.w3.org/2000/svg" viewBox="0 0 127.59 87.87"><defs><style>.cls-1{fill:#bfbfbf;fill-rule:evenodd;}</style></defs><title>sanliurfa</title><g id="Layer_2" data-name="Layer 2"><g id="map"><path class="cls-1" d="M127.59,69.92a11.11,11.11,0,0,1-1.66,1.13c-1.65.9-3.29-.3-4.79.9a57.62,57.62,0,0,1-9.72,5.68c-3.44,1.49-3.74,3.14-6.58,3.14s-1.94-.75-4.34,0S91.08,83.62,87,85A61.71,61.71,0,0,1,75.83,87.8c-4,.6-4.49-3-9.42-2.39s-3.29,1.2-7.17,1.34a75.8,75.8,0,0,1-10,.15c-3.44-.3-4.41-6.36-9.49-8.3s-6.58-3.44-9-3.59-3,.9-6-.45S23,72.18,20.43,72.93s-2.24,4.33-7,5.38a20.65,20.65,0,0,0-2.55.76,4,4,0,0,0,.37-3.73,2.31,2.31,0,0,1,0-1.81c.3-.82.5-1.37-1.07-2.62a5.33,5.33,0,0,0-2.3-1.12c-.48-.12-.71-.17-.78-1.46a6.3,6.3,0,0,1,.13-1.74c.21-1.07.29-1.45-1.61-3.68C5,62.21,4.5,61.65,4.07,61.17c-1.39-1.54-2-2.25-2.24-3.81A3,3,0,0,1,2,55.73c.28-.76.5-1.33-.43-2.78a8.9,8.9,0,0,0-1.12-1.4C0,51-.21,50.81.31,49.24h0l.15-.45a7.32,7.32,0,0,1,.62-1.58,10.44,10.44,0,0,1,.82-1.06c.34-.42.8-1,1.46-1.82s1.33-1.73,1.82-2.38h0C6.43,40.29,7,39.53,7.62,39.26c.05,0,.14.09.25.24a2.39,2.39,0,0,0,2.41,1.16A4.88,4.88,0,0,0,12.36,40a1.77,1.77,0,0,1,2.09,0,1.67,1.67,0,0,1,.92,1.21h0a1.33,1.33,0,0,0,.18.48h0c.36.54.77.48,2-.37h0A4.47,4.47,0,0,0,19.32,39a2.3,2.3,0,0,1,2.21-1.67,22.61,22.61,0,0,1,3.32-.11c2.41,0,4.92.07,7.34-1.3.64-.36,1.34-.74,2-1.07a17.91,17.91,0,0,0,5.94-4.42A8.59,8.59,0,0,1,44.65,28,11.53,11.53,0,0,0,49,26c1.62-1.29,1.84-1.86,2-2.31.11-.29.2-.51,1.37-1.23a4.74,4.74,0,0,1,2.24-.72c1.12-.12,1.84-.19,2.77-2.37a5.46,5.46,0,0,0,.53-3.32,7.48,7.48,0,0,1,.46-3.68c.39-1.22.6-2.06.76-2.74.38-1.58.53-2.19,2.59-4.86a25,25,0,0,0,2-2.94C64.36.72,64.51.46,66.32.2A19.65,19.65,0,0,1,71.39.13a24,24,0,0,1,6.3,1.68l1,.39h0c4.23,1.7,7.27,2.94,10.54,5.93a14.26,14.26,0,0,1,2.28,2.63c1,1.41,1.2,1.72,3.8.93a9.07,9.07,0,0,0,3.38-1.81,3.62,3.62,0,0,1,2.32-1h.17c.72,0,1.32.71,1.77,1.72a13,13,0,0,1,.91,4.34,19.78,19.78,0,0,1,0,2.47,20.26,20.26,0,0,1-.58,3.44c-.56,2.4-1,4.16,1.15,7a9.9,9.9,0,0,1,1.71,3.51c.51,1.68,1,3.17,4.09,5.43s3.2,2.78,3.07,3.88a8.45,8.45,0,0,0,0,2.32,10.78,10.78,0,0,0,1,3.86A10,10,0,0,0,117,49.73a8.75,8.75,0,0,0,2.52,1.42c.81.32,1.15.45,1.15,2.48a14.71,14.71,0,0,1-.3,2.85,6.21,6.21,0,0,0,1,5.37,84.34,84.34,0,0,0,6.2,8.08Z"/></g></g></svg>