<svg xmlns="http://www.w3.org/2000/svg" viewBox="0 0 63.98 43.04"><defs><style>.cls-1{fill:#bfbfbf;fill-rule:evenodd;}</style></defs><title>usak</title><g id="Layer_2" data-name="Layer 2"><g id="map"><path class="cls-1" d="M64,11.38a4.48,4.48,0,0,1-.25-1.16,27.69,27.69,0,0,0-.48-3.52,2.84,2.84,0,0,0-.4-1.13,4.41,4.41,0,0,0-1.6,0c-1.48.13-3.12.27-3.53-1.08s.79-1.87,2-2.51h0c.76-.4,1.55-.81,1.72-1.28.06-.16.18-.19.14-.2A5.31,5.31,0,0,0,60.3.45c-.67,0-1.52,0-2.52,0L55.84.26A53.09,53.09,0,0,0,47.23.11c-2.78.17-3,.42-3.33,1a6.35,6.35,0,0,1-2.24,2,10.23,10.23,0,0,1-5.78,2c-.67.07-1.48.14-2.52.28-2.69.36-3,.82-3.37,1.39A4,4,0,0,1,28.66,8.1c-1.52,1-5.92.28-9-.22h0c-1.07-.17-2-.32-2.49-.36a10.16,10.16,0,0,1-.82,1.89,6.63,6.63,0,0,1-2.82,2.83A11.19,11.19,0,0,1,10,13c-1.59.16-3.1.31-3.58,1.25L6,14.84c-1,1.78-2,3.79-2.42,8.86-.37,4.7-1.15,5.69-1.89,6.64h0a5.67,5.67,0,0,0-.5.71,2.93,2.93,0,0,1-1,1c-.27.18-.41.28.36,1.7A6.65,6.65,0,0,0,2.68,36c1.17.87,2.2,1.64,2.29,3.72L5,41.06l1,.1c.76.08,1.62.17,2.73.2,2.14,0,6,.16,9.12.26l4,.12a8.75,8.75,0,0,0,3.47-.66,20.12,20.12,0,0,0,3-1.54,10.21,10.21,0,0,1,3.11-1.24,9.13,9.13,0,0,1,3.24-.11c1.2.18,2.79,1.52,4.28,2.79C40.19,42,41.39,43.06,41.86,43A1.43,1.43,0,0,0,43,42.31a10,10,0,0,0,.9-2,13.16,13.16,0,0,0,.35-3.76,25.6,25.6,0,0,1,.15-3.08c0-.31.06-.6.08-.81,0-.58.07-.82.43-1a1.29,1.29,0,0,1,.75-.11,9,9,0,0,0,1.9-.1c2-.3,2.84-1.31,4-2.72.46-.57,1-1.2,1.66-1.9a26.18,26.18,0,0,1,2.61-2.39,12,12,0,0,0,1.91-1.84c.84-1,.69-1.55.39-2.67a18.69,18.69,0,0,1-.51-2.42c-.29-2.11-.29-2.52.64-2.65h0a2.93,2.93,0,0,1,.45,0,4.86,4.86,0,0,0,2-.33c1.66-.63,1.82-.89,2.3-1.63a15.7,15.7,0,0,1,1-1.43Z"/></g></g></svg>