<svg xmlns="http://www.w3.org/2000/svg" viewBox="0 0 91.42 111.14"><defs><style>.cls-1{fill:#bfbfbf;fill-rule:evenodd;}</style></defs><title>van</title><g id="Layer_2" data-name="Layer 2"><g id="map"><path class="cls-1" d="M61.1,0a8.41,8.41,0,0,1,2.38,5.59c.15,2.61-.82,3,1.42,4.41s4.63.9,5.53,3.22-1.16,3.18-.71,4.52,2.09,1,1,2.92S68.3,22,69,24.17s1.27,4.71,2.84,6.06,2.92-.75,3.89,1.64,2.09,2.54.9,4.34-2.32,1.57-1.42,3.36,2.32.37,1.95,3-1.07,2.26-.09,2.9,1.61.64,1.76,2.21-.49,2.8.33,4,1.65,3.62,1.2,4.93-1.53,4.94-.41,5.83,2.62,2.24,4.26,1.35,1.94-2.09,2.69-1.72S90,63.51,88.88,66s-2.77,1-3.36,4.49,1.42,6.28.3,7.78-2,.75-2.09,2.47-1.2,1.2-1.8,3.07-.41,3.25-1.68,5.42-.52,1.87-.37,3.51-1,1.27-.67,2.54,1.42,2.84,3.21,2.32,1.12-2.47,3.29-1.2,1,.6,2.69,2.39c1.51,1.57,2.27,1,3,1.56a4.77,4.77,0,0,1-1,1.89l-.45.46a11.49,11.49,0,0,1-6,3.8c-1.74.34-3.18.68-4.45,1s-2.39.7-3.54,1.08h0A5,5,0,0,1,74,109c-.11,0-.15-.26-.18-.76a4.26,4.26,0,0,1,.61-1.72c.64-1.28,1.36-2.72.61-4.39-.16-.36-.28-.65-.38-.89a5.35,5.35,0,0,0-.49-1c-.65-.92-1.18-.62-3,.64a14.74,14.74,0,0,0-2,1.88,11.76,11.76,0,0,1-6.5,4,34.14,34.14,0,0,1-9.11,1h-1c-2.14,0-5.43,1-7.87,1.73a20.91,20.91,0,0,1-2.78.74c-.32,0-.93.11-1.73.22-2.64.38-7.43,1.05-9.81.5a13.56,13.56,0,0,1-2.31-.73,7.43,7.43,0,0,0-3.73-.55,62.69,62.69,0,0,0-6.53.54,27.22,27.22,0,0,0-3.16.59,5.45,5.45,0,0,0-.74-1.19A7.24,7.24,0,0,1,12.58,107a6.76,6.76,0,0,1-.3-2,3.6,3.6,0,0,0-1.15-2.78c-1.72-2-4.84-1.69-7.11-1.44l-.43,0A24.51,24.51,0,0,0,3.74,98a4.38,4.38,0,0,0-.62-2.73,16.3,16.3,0,0,1-1.06-2.39c-.5-1.36-.18-1.6.21-1.91A3,3,0,0,0,3.59,88.1c0-2.28-.92-2.61-1.88-3a1.56,1.56,0,0,1-1.14-1c-.08-.21,0-.3,0-.33a4.6,4.6,0,0,1,1.16-.12c1.1,0,2.28-.07,2.69-1.09.48-1.21.18-1.67-.76-2a8.61,8.61,0,0,0-.84-.27h0a16.26,16.26,0,0,1-1.56-.52c-.63-.25-.42-.78-.18-1.38.4-1,.83-2.07-.23-3.13-.76-.76-.68-1.65-.55-2.87a13.55,13.55,0,0,0,0-3.85,17.85,17.85,0,0,1-.29-3c.6-.67.77-1.15,1.87-1.15,1.49,0,.3-.6,1.95-1.2s.82,1.49,2.09,2.32,1.65-.3,2,1.49-.68,1.95.9,3.07-.38,2.54.82,3.06,1.12-1,3.22.22-.22,1.35,4,.6,4.71,1.27,4.49-.3-2.39-1.49-1.2-3.29S22.2,65.85,24,65.62s2.24,1.57,3.29-.52,3.29-2.32,1.95-4.41-.75-3.36-2.69-3.74-2.69,1.2-4.26-1,.37-3.51-2.32-2.54-4,3.07-3.81,1.2,1.94-1.5,2.84-3.74,2.24-2.77,2.24-4.79.67-3.06,2.39-4.34.38-1.12,1.87-2.69,2.73-.94,3.77-1,2.09-2.09,3.66-2.32,1.57,1.79,2.84-.6-.67-2.47,2.39-3.07,5.38-.82,4.64-1.87-1.2-2.17-3.14-2.17-7-1.34-8.9-.67a23.1,23.1,0,0,0-4.63,2.47c-1.8,1-1.57,1.57-3.89,1.65s-2.77.45-5.76.45a15.79,15.79,0,0,1-2.4-.21L14,31.68a11,11,0,0,1-2.19-1.9c-.62-.69-1-1.11-1.25-1.47a6.31,6.31,0,0,1-.61-1l0,0a2.63,2.63,0,0,0,.37-1.1,2.35,2.35,0,0,1,.55-1.27h0l.79-.9a28.33,28.33,0,0,1,3-3.15A13.25,13.25,0,0,0,17,18h0a29.73,29.73,0,0,0,1.69-3.09c.86-1.79.09-2.68-1-4-.27-.31-.56-.65-.84-1a2.82,2.82,0,0,1-.78-1.82,2,2,0,0,1,1-1.27,9.28,9.28,0,0,1,2.86-1,15.88,15.88,0,0,0,4.89-1.78c.58-.38,1.07-.72,1.47-1A4.9,4.9,0,0,1,29.4,1.84c1.16-.08,2.06,1.07,3.14,2.43a21.21,21.21,0,0,0,2,2.27C36.2,8.19,36.72,8,37.94,7.61a8.08,8.08,0,0,1,2.22-.46c1.33-.09,1.78,1.43,2.21,2.86s.87,2.93,2.24,3.12c2.16.29,2.64-1.41,3.23-3.46.17-.6.35-1.23.59-1.83s.43-1.2.61-1.77h0c.54-1.71,1-3.25,2.63-4.06A7.34,7.34,0,0,1,55,1.51,8.35,8.35,0,0,0,59.47.65,4.34,4.34,0,0,1,61.1,0Z"/></g></g></svg>