<svg xmlns="http://www.w3.org/2000/svg" viewBox="0 0 105.56 84.32"><defs><style>.cls-1{fill:#bfbfbf;fill-rule:evenodd;}</style></defs><title>yozgat</title><g id="Layer_2" data-name="Layer 2"><g id="map"><path class="cls-1" d="M1.65,29a9.87,9.87,0,0,0,1.29-.16c1.51-.25,2.87-.47,3.93,1.25a4.07,4.07,0,0,1,.32,2.59h0c-.13,1.45-.26,3,3.28,3.27a10.49,10.49,0,0,0,5.24-.61c1.13-.43,1.57-.6,2.56.68s.25,1.88-.42,2.52a3.16,3.16,0,0,0-.41.45c-.15.25,0,.62,1.36,1.44.84.52,1.58,1,2.17,1.31,2.33,1.38,2.59,1.53,2.59,2.91,0,.85-.85,1.28-1.69,1.72h0a3.2,3.2,0,0,0-1,.66h0c0,.09.17.29.93.72A120,120,0,0,1,31.93,55a84.33,84.33,0,0,1,8.34,7A5,5,0,0,1,41.68,66a4.35,4.35,0,0,0,.93,3.07c1,1.33,2.09,2.6,3.1,3.71a36.31,36.31,0,0,0,2.95,2.93c1.31,1.13,1.16,3.55.93,5.41.77,0,1.94.07,3.38.23a6.45,6.45,0,0,1,3.28,1.22h0a9.89,9.89,0,0,0,2,1.05,8.49,8.49,0,0,0,3,.69,2.93,2.93,0,0,0,2.17-1c1.38-1.45,7-4.6,9.11-5.82l.77-.44s-.22-.76-.56-1.81a21.36,21.36,0,0,1-1-4c-.2-1.65.77-2.26,2.24-2.44a16.79,16.79,0,0,1,2.83,0,12.45,12.45,0,0,0,3.29-.07c2.16-.53,8.34-4.86,11.89-7.34L93.9,60.1a29,29,0,0,0,4.18-3.39h0a8.76,8.76,0,0,0,2-2.84l.14-.39h0a44.59,44.59,0,0,1,3.46-7.83,12.29,12.29,0,0,0,1.56-3h0a10.81,10.81,0,0,0,.15-4.22c-.33-2.93-1.32-3.62-2.32-4.32a11.08,11.08,0,0,1-.93-.7c-1-.93-1.17-2-1.32-3.45a17.34,17.34,0,0,0-.35-2.23,3.77,3.77,0,0,0-2-2.33,4.89,4.89,0,0,1-2-1.89,2.62,2.62,0,0,1,.2-2.63c.25-.52.5-1,0-1.6-1-1.23-1.05-2.52-1.11-4.1a18.42,18.42,0,0,0-.21-2.45,2.55,2.55,0,0,0-.35-.92,4.32,4.32,0,0,0-2-1.62,5.47,5.47,0,0,0-2.95-.34h0a4.85,4.85,0,0,0-1.73.64c-2.78,1.72-4.06,1.48-6.69,1h0c-.53-.1-1.12-.21-1.77-.31a7.15,7.15,0,0,1-4.64-2.43,7.25,7.25,0,0,0-1.68-1.37A7.44,7.44,0,0,1,71.14,5a14.79,14.79,0,0,1-1.8-3.8c-.16-.52-1.2-.66-2.08-.76h0A3.79,3.79,0,0,1,65.66,0c-.79.09-1.59.17-2.37.24h0A24.78,24.78,0,0,0,58.16,1h0l-.44.15L57,1.46h0c-1.13.43-1.94,1-1.23,2.9a9.8,9.8,0,0,0,1,2h0c.73,1.14.89,1.4-.56,2.79A3.74,3.74,0,0,0,55,12.32c0,.36,0,.74,0,1.1-.09,1.07-1.44,2.06-3.22,2.77A15.21,15.21,0,0,1,46,17.26c-2.07-.1-2.38-1-2.68-1.93a1.15,1.15,0,0,0-1.21-1c-1.33-.07-4.91,1.41-8.23,2.78-2.89,1.2-5.59,2.31-6.69,2.31a3.71,3.71,0,0,1-2.51-1A6.7,6.7,0,0,0,21.29,17c-.63-.1-1.2-.21-1.72-.31-2.51-.48-4.23-.82-6,.91a7.25,7.25,0,0,1-4.93,1.94A8.22,8.22,0,0,0,6.31,20,63.48,63.48,0,0,0,.62,23l-.11.35C-.27,25.77,0,26.06.4,26.58h0a5.32,5.32,0,0,1,1.14,2.1l.11.34Z"/></g></g></svg>