<svg xmlns="http://www.w3.org/2000/svg" viewBox="0 0 48.38 36.82"><defs><style>.cls-1{fill:#bfbfbf;fill-rule:evenodd;}</style></defs><title>zonguldak</title><g id="Layer_2" data-name="Layer 2"><g id="map"><path class="cls-1" d="M0,28.74c2.09-2.5,5.13-4.69,5.13-6s1.8-3,.75-4.19-2.69-1.2-1.2-2.39,3.14,0,5.38-1.49.6-1.8,4.49-2.55,3.59-.45,6.88-2.54,3-4,6.73-4.79,4-2.09,8.37-4A13.23,13.23,0,0,1,38.6,0a33.17,33.17,0,0,1,5.72,3.35c.64.54.54.8.41,1.12h0a2.4,2.4,0,0,0,.12,2.37,4.4,4.4,0,0,0,1.59,1.72,1.88,1.88,0,0,1,1,1.47,3,3,0,0,1-.22,1.8,2.47,2.47,0,0,0,0,2.39,11.22,11.22,0,0,0,.65,1.12h0c.45.7.72,1.15.21,1.9a11.33,11.33,0,0,1-2.4,2c-1.46,1-3,2.13-3.55,3.28a7.71,7.71,0,0,0-.51,3.25h0a4.77,4.77,0,0,1-.23,1.89h0a6.14,6.14,0,0,1-1.22,1.42c-.74.73-1.46,1.42-1.46,2.2s1.27,3.29,1.78,4.21a14.36,14.36,0,0,1-2.38-.1,18.07,18.07,0,0,0-4.94.06,23.84,23.84,0,0,0-3.52.86,13.86,13.86,0,0,1-3.45.52A23.72,23.72,0,0,1,22,36.56a18.88,18.88,0,0,1-3.27-.76,20.75,20.75,0,0,0-3.91-.88c-1-.13-2.09-.19-3.18-.24a24.06,24.06,0,0,1-8.34-1.51c-2.51-1-2.8-2.31-3.11-3.69C.12,29.24.07,29,0,28.74Z"/></g></g></svg>