<svg xmlns="http://www.w3.org/2000/svg" viewBox="0 0 63.3 70.57"><defs><style>.cls-1{fill:#bfbfbf;fill-rule:evenodd;}</style></defs><title>aksaray</title><g id="Layer_2" data-name="Layer 2"><g id="map"><path class="cls-1" d="M42,68.19a16.21,16.21,0,0,1,2-2.59A17.83,17.83,0,0,1,48.63,62c1.06-.57,2.14-1.12,3.17-1.65a37.57,37.57,0,0,0,6.6-3.88A10.42,10.42,0,0,1,60.8,55c1.13-.54,2.09-1,2-1.93a12.69,12.69,0,0,0-1.62-3.4c-1.09-1.88-2.24-3.86-2-5.28a5.27,5.27,0,0,1,1.67-3.34,4.78,4.78,0,0,1,.81-1.28,6.36,6.36,0,0,0,1.13-1.88h0l.09-.28c.49-1.46.71-2.11.22-3.29a10.86,10.86,0,0,0-2.42-2.26c-1.93-1.56-4.28-3.47-4.91-5.37A18.31,18.31,0,0,1,54.88,23a14.42,14.42,0,0,0-.69-3.18A4,4,0,0,0,52,17.65,7.48,7.48,0,0,1,49,15.22c-.81-1.2-1.65-2.78-2.45-4.27A27.91,27.91,0,0,0,44.2,7a3.31,3.31,0,0,0-1.83-.86c-1.15-.28-2.22-.53-2.55-2a10.61,10.61,0,0,1-.24-1.91c0-.59,0-.95-.4-1.16a14,14,0,0,0-2.95-1c-.38.93-2.14,1.92-3.88,2.9a23.59,23.59,0,0,0-2.71,1.66,5,5,0,0,0-1.53,1.68,1.21,1.21,0,0,0,.15,1.25,6.23,6.23,0,0,0,1,1c.93.82,1.91,1.68,1.85,3.15h0c-.08,1.91-.09,2-1.63,5.11a12,12,0,0,0-1.18,3,15.69,15.69,0,0,1-.67,2.14,4.6,4.6,0,0,1-2.16,2.8,14.86,14.86,0,0,1-4.72,1.09l-2.3.29a8.78,8.78,0,0,0-4.39,1.31,21.38,21.38,0,0,0-5.51,4.25L8.22,32c-1.91,1.81-3.68,5.46-5.14,8.46-.43.89-.84,1.72-1.18,2.38a17,17,0,0,0-1.5,4.39,20.13,20.13,0,0,0-.38,5,15.37,15.37,0,0,0,1.4,4.16c1.32,3,3.16,6.3,3.84,7.49a29,29,0,0,0,3,3.9,16.64,16.64,0,0,0,2.78,2.73,21.48,21.48,0,0,0,4.4-.07h0l1.58-.09c2.28-.13,14.7-1.46,20.05-2l2-.22h0a9.74,9.74,0,0,1,2.83.13Z"/></g></g></svg>