<svg xmlns="http://www.w3.org/2000/svg" viewBox="0 0 54.71 39.81"><defs><style>.cls-1{fill:#bfbfbf;fill-rule:evenodd;}</style></defs><title>bayburt</title><g id="Layer_2" data-name="Layer 2"><g id="map"><path class="cls-1" d="M21.09,0a9.38,9.38,0,0,0,.39,1.3c.45,1.28.83,2.37-.42,3a8.49,8.49,0,0,1-3.77.13,8.67,8.67,0,0,0-3.27,0,7.23,7.23,0,0,0-2.27,2.08,17.82,17.82,0,0,0-2.23,3.69l-.26.58c-1,2.29-1.79,4-1.36,5.39a5,5,0,0,0,1.2,1.66h0c.95,1,1.93,2.06,1.66,3.68-.33,2-2.29,3.25-4.23,4.5-.53.34-1,.68-1.53,1a16.45,16.45,0,0,1-2.24,1.31c-1.19.61-2.16,1.1-2.36,2.11a7.2,7.2,0,0,0-.08,2.5A12.07,12.07,0,0,1,.4,34.37a3.37,3.37,0,0,1-.34,1.52c-.08.19-.13.29.19.63A10,10,0,0,0,2.66,38a40.87,40.87,0,0,0,4.45,1.84h0L8,38.65a17.54,17.54,0,0,1,2.5-2.88,18.67,18.67,0,0,1,5.07-1.65,29.46,29.46,0,0,1,5.83-.73c1.31,0,2.68-.08,4.06-.16a30.84,30.84,0,0,1,7.27.1,13.32,13.32,0,0,1,3.12,1.13,5.05,5.05,0,0,0,3.23.74c1.86-.36,7.17-5.3,9.55-7.51l.87-.8a40.77,40.77,0,0,0,3.72-4,7.58,7.58,0,0,0,1.48-2.27,1,1,0,0,0-.2-.6,1,1,0,0,0-.29-.25h0a.62.62,0,0,0-.3-.08.53.53,0,0,0-.33.12,1.67,1.67,0,0,0-.41.8c-.29.92-.55,1.73-2.05,1.23a5.48,5.48,0,0,1-2-1.45c-.53-.53-1-1-1.34-.87a6.38,6.38,0,0,0-.93.47h0a2.52,2.52,0,0,1-2.46.43,5.73,5.73,0,0,1-2-2,8.19,8.19,0,0,1-1.42-3,3.51,3.51,0,0,1,1.13-2.07,4.2,4.2,0,0,1,2-1.18,16.52,16.52,0,0,0,2-.53,2.59,2.59,0,0,0,.78-.34c0-.07-.44-.13-1.16-.48-.4-.2-.87-.43-1.37-.69s-.71-.35-1-.47c-1.42-.61-1.89-.81-1-3a9.59,9.59,0,0,1,1.56-2.81c.12-.17.27-.34.44-.59a3.74,3.74,0,0,0,.53-1.47,2.89,2.89,0,0,1-.75.19,6.29,6.29,0,0,1-3-.32,4.81,4.81,0,0,1-.61-.28,20.5,20.5,0,0,1-3.28.52c-1.25.09-2.69.06-4,0-.71,0-1.39,0-2,0a32.66,32.66,0,0,1-5-.28A18.92,18.92,0,0,1,21.88.35c-.29-.12-.55-.23-.8-.35Z"/></g></g></svg>