<svg xmlns="http://www.w3.org/2000/svg" viewBox="0 0 82.85 82.41"><defs><style>.cls-1{fill:#bfbfbf;fill-rule:evenodd;}</style></defs><title>karaman</title><g id="Layer_2" data-name="Layer 2"><g id="map"><path class="cls-1" d="M82.78,34.5a23.3,23.3,0,0,1-.93-2.43,3.08,3.08,0,0,1,.27-2.31c.09-.22.18-.46.27-.71h0a5.12,5.12,0,0,0,.08-1.69,11.23,11.23,0,0,1,.16-3.07A7.68,7.68,0,0,0,82.83,22a5.85,5.85,0,0,0-.41-1.61c-.31-.82-1.89-1.49-4.28-2.51h0L77,17.44c-2.55-1.09-2.8-2-3.14-3.35a8.18,8.18,0,0,0-.44-1.35c-.28-.63-.72-1.5-1.23-2.48a49.61,49.61,0,0,1-3.06-6.77A5.51,5.51,0,0,0,67.47.67,3.56,3.56,0,0,0,65.23,0a16.59,16.59,0,0,0-4.82,1.12,15.61,15.61,0,0,0-4.17,2.19c-1.19,1-2.06,2.82-2.87,4.54-.9,1.92-1.73,3.69-3,4.18a3.92,3.92,0,0,1-3-.13,4.23,4.23,0,0,0-2.78-.22c-2.66.76-2.86.27-3.74-2-.15-.37-.32-.81-.53-1.27-.44-1-.69-1.31-1-1.2a7.44,7.44,0,0,0-1.43,1.12c-.48.42-1,.93-1.76,1.49a31.68,31.68,0,0,0-4.45,4.64,24.77,24.77,0,0,1-3.41,3.59c-1.42,1.1-3.6,1.27-5.46,1.42-1.31.11-2.45.19-2.77.53s-.32.94-.19,1.57A6.1,6.1,0,0,1,20,23.85a4.78,4.78,0,0,1-1.62,2.74,32.47,32.47,0,0,0-3.62,4.66c-1.55,2.39-1.58,4.14-1.05,5.41A6.53,6.53,0,0,0,16,39.28l.15.12c1.69,1.23,6.67,4.9,6,7-.5,1.42-4.13,3.37-7.23,5-1.22.65-2.36,1.26-3.17,1.77-1.94,1.21-5.44,2.92-8.43,4.38C2,58.12.89,58.68,0,59.14c.23,1,.43,2,.62,3h0c.15.75.3,1.49.49,2.37.4,1.88.7,2.13.94,2.34.42.35.76.65,1,2.87a21.71,21.71,0,0,1-.59,7,14,14,0,0,0-.38,2.45c0,.42,0,.75,0,1C2,80.84,2,81,3.1,81.71a4,4,0,0,0,.88.43,1.37,1.37,0,0,1,.51.27A75.78,75.78,0,0,0,13,79.83c2.33-.85,4.33-1.73,4.81-2.32h0c1-1.23,4.22-1.19,7.12-1.15a17,17,0,0,0,4.27-.22c1.21-.42,1.87-2.09,2.36-3.35a5.29,5.29,0,0,1,.86-1.68c.65-.65,2.42.2,4.28,1.11,1.6.77,3.29,1.6,3.8,1.44h0a1,1,0,0,0,0-.22,3.39,3.39,0,0,0-.49-.93,9.54,9.54,0,0,0-2.4-2.39c-.85-.54-2.7-2-4.7-3.6s-4.06-3.39-5.48-4.69a7.3,7.3,0,0,1-2.09-4.37,11.33,11.33,0,0,1,.55-5.73c.63-1.2,1.38-1,2.6-.59a8.67,8.67,0,0,0,2.12.44h0c1.14.07,1.32-.14,1.55-.44a3.21,3.21,0,0,1,1.4-1.08c1.41-.61,2.25.47,3,1.41a3.56,3.56,0,0,0,.63.73c.36-.08.78-1,1.19-1.9a10.89,10.89,0,0,1,.78-1.53h0C39.78,47.86,41.65,47,44,46c1-.45,2.19-1,3.32-1.49a6.64,6.64,0,0,1,5.59-.38,14.74,14.74,0,0,0,3.64.63c2.2.07,2.43-.49,2.74-1.25h0a4.52,4.52,0,0,1,1.86-2.4c1.86-1.25,2.78-.83,4.27-.15a11.81,11.81,0,0,0,3.59,1.11c2.61.36,5.67-1.93,8.72-4.21a37.78,37.78,0,0,1,5-3.35Z"/></g></g></svg>