<svg xmlns="http://www.w3.org/2000/svg" viewBox="0 0 44.38 62.32"><defs><style>.cls-1{fill:#bfbfbf;fill-rule:evenodd;}</style></defs><title>kirikkale</title><g id="Layer_2" data-name="Layer 2"><g id="map"><path class="cls-1" d="M42,27.35h0a21.74,21.74,0,0,1,1.31-2.86,6,6,0,0,0,.88-4.69c-.2-1-.31-2.07-.42-3.16-.29-2.91-.59-5.9-2.75-7.36A21.44,21.44,0,0,0,38,7.54,9.76,9.76,0,0,1,34.38,5c-.51-.56-.83-1-1.08-1.28h0c-.68-.86-.69-.87-3.32-1.78S24.44.28,23.21,0C23,.66,22.63,1.75,22,3.3A5.12,5.12,0,0,1,20.05,6a8.54,8.54,0,0,0-1.59,1.52C17.24,9,17.52,11.1,17.78,13A20.57,20.57,0,0,1,18,15.19a1.73,1.73,0,0,0,.89,1.65c.63.4,1.06.69.59,1.7h0c-.6,1.27-3.83,2.87-6.69,4.27h0l-1.27.63c-2.1,1.05-2.94.46-3.65,0-.26-.18-.5-.35-.82-.23-.63.22-.61.87-.6,2a22.26,22.26,0,0,1-.07,2.57c-.22,2.2-.56,2.49-1.23,3.06A5.51,5.51,0,0,0,4,32.08a4,4,0,0,0-.49,3.27,17.45,17.45,0,0,1,.22,3C3.7,41.1,2.44,42.67,1.22,44.2c-.36.45-.71.89-1,1.37h0c-.44.66-.06,1.11.65,1.58h0c.3.19.61.38.95.58a15.6,15.6,0,0,1,2.34,1.59c.58.51,1.07.89,1.49,1.21a6.8,6.8,0,0,1,2.7,3.34h0a5.74,5.74,0,0,1,.11,3.48,4,4,0,0,0,.22,3h0c.44.71.82,1.35,1.13,2,.33-.21.68-.41,1-.63a19.48,19.48,0,0,0,3.93-2.85,22.17,22.17,0,0,0,1.83-1.92,5.47,5.47,0,0,1,3.36-2.25,4.36,4.36,0,0,1,3,.32,1.48,1.48,0,0,0,1.57,0,1.82,1.82,0,0,0,.69-1.3,3.84,3.84,0,0,1,2.1-2.94A4.35,4.35,0,0,1,29.57,50c.37,0,.6,0,1.78-1.33a12.07,12.07,0,0,0,2.39-4.94,17.71,17.71,0,0,1,1.35-3.51C36.57,37.53,37.62,37,40,35.81h0l.53-.27h0a4.58,4.58,0,0,1,2.7-.53l.17,0h0c.29-.09-.37-.12-.61-.92a4.29,4.29,0,0,0-.93-1.7h0c-.69-.83-1.07-1.28-.11-4.31.08-.27.17-.51.25-.75Z"/></g></g></svg>