<svg xmlns="http://www.w3.org/2000/svg" viewBox="0 0 42.89 72.05"><defs><style>.cls-1{fill:#bfbfbf;fill-rule:evenodd;}</style></defs><title>batman</title><g id="Layer_2" data-name="Layer 2"><g id="map"><path class="cls-1" d="M42.47,60.09a5.91,5.91,0,0,1,.25-.81,1.59,1.59,0,0,0-.35-1.91h0a10.53,10.53,0,0,0-1.76-1.82,1,1,0,0,0-1.08-.2h0c-.22.1-.35.45-.48.78a3.26,3.26,0,0,1-.36.74c-.43.59-1,.78-2.2-.08h0a12.82,12.82,0,0,0-1.26-.8c-1.52-.9-2.33-1.37-1.14-3.38a7.84,7.84,0,0,1,1.77-1.91c.76-.65,1.34-1.16.81-1.87S33.61,48,31.24,48a17.64,17.64,0,0,1-4.67-.34,11.16,11.16,0,0,1-3.4-1.51,4.16,4.16,0,0,1-1.71-2.74c-.06-.32-.12-.64-.19-.95-.42-2-.87-4.1.86-5.9a14.88,14.88,0,0,1,3.72-2.69h0c.64-.37,1.3-.74,2-1.2A7.34,7.34,0,0,0,30.45,30h0l.29-.46h0a6.39,6.39,0,0,0,.66-2.43,10.11,10.11,0,0,1,.77-3,4.51,4.51,0,0,1,1.15-1.5c.33-.31.52-.48.11-1.48a2.51,2.51,0,0,0-.76-1.16c-.42-.36-.68-.58-.77-2.31,0-.67,0-1.22-.05-1.68a4.19,4.19,0,0,0-.61-2.62,14.23,14.23,0,0,1-1.07-4.5,19.21,19.21,0,0,0-.63-3.3,5.12,5.12,0,0,0-1.79-2.14A4.07,4.07,0,0,1,26.48,2a14.93,14.93,0,0,1-.71-2,1.86,1.86,0,0,0-1.21.46A2.6,2.6,0,0,0,24,2h0a3.57,3.57,0,0,1-2.37,3.2,12.11,12.11,0,0,1-3.07.89c-.52.09-.81.14-.91.34h0a2.33,2.33,0,0,0-.16.77h0c-.09.91-.17,1.78-1.64,1.92a3,3,0,0,1-2-.71h0a3.23,3.23,0,0,0-.41-.25h0s0,0,0,.12c-.11.24.06.49.22.74h0c.54.84,1.05,1.64-1,3a6.72,6.72,0,0,0-2.29,2.78,13.92,13.92,0,0,0-1.2,4.58,25,25,0,0,0,0,3.62c.14,2,.41,4.1.59,5.25h0c.07.45.15.8.23,1.1h0c.3,1.25.47,1.94-.79,3.59S7.46,36.83,7,39.32H7l0,.15H7l-.17,1h0a8.61,8.61,0,0,1-1.31,3.93A6.74,6.74,0,0,1,3.3,46.54,6.3,6.3,0,0,0,1,48.75a8.21,8.21,0,0,0-1,2.87,1.56,1.56,0,0,0,1.08,1.64,3.59,3.59,0,0,0,2,.3c.87-.08,1.33-.12,1.73,1.13.3,1-.63,3.31-1.56,5.29a20.36,20.36,0,0,1,3.1,4.88L7,66.14a17.45,17.45,0,0,1,1.23,3c.43,1.3.75,2.26,1.76,2.63a18.77,18.77,0,0,0,4.95.24c3.59-.11,8-.49,10-.72A6,6,0,0,0,28.28,70h0a14.15,14.15,0,0,0,2.56-3.24A16.47,16.47,0,0,1,36,62.48c2.6-1.51,5.37-2.57,6.42-2.39Z"/></g></g></svg>