<svg xmlns="http://www.w3.org/2000/svg" viewBox="0 0 97.33 47.47"><defs><style>.cls-1{fill:#bfbfbf;fill-rule:evenodd;}</style></defs><title>sirnak</title><g id="Layer_2" data-name="Layer 2"><g id="map"><path class="cls-1" d="M91.36,27.47c-1.2.46-1.54,1.73-3,.91-1.95-1-.9-2.09-3-2.24s-2.24-1.5-4.19-1.5-1.65,1-3.89,1.5-2.69-1.2-3.59.89,0,4-2.84,3-3.59-.74-5.53-2.39-1.79-4-3.59-1.95S59,27.64,58.86,29.88s-2.24,3-3.14,4S55,36.76,53.47,39s1.79,2.69-1.5,3.29-3.88-.3-5.38,1A9.33,9.33,0,0,1,42.26,46c-2.09.6-1-1.5-1.79-2.84s-1.49-.9-.9-3.14,1.57-2.32-.53-2.92-1-1.94-2.24-2.39-2.24,1-3.29-.45-1-2.24-1.79-2.09-2.24,5.68-4.79,6.73-2.84,3.44-8.52,5.23-7.48,3.14-9.72,3.29c-1.68.11-1.85-.45-3-.3l.15-.94c.46-2.93.88-5.56-.34-6.41-1.05-.74-1.92,0-2.81.69C2,41,1.41,41.51.9,41-.4,39.86,0,37.1.38,34.11h0l.11-.8a12.51,12.51,0,0,0,0-2.85c-.07-.84-.09-1.15,1-1.42a7.31,7.31,0,0,0,2.4-.93,6.7,6.7,0,0,1,1.39-.66,2.59,2.59,0,0,1,2,.33A2.47,2.47,0,0,0,9.8,28h0l.22-.12c1.47-.81,3.59-2,3.59-3.58A2.1,2.1,0,0,0,13,22.87c-.26-.33-.52-.66.06-1.74l.22-.43c1.12-2.08,1.58-2.94,1.08-4.43a5.13,5.13,0,0,0-.91-1.55c.44-.31,1.14-.77,1.34-.7a4.65,4.65,0,0,1,1,.64,15.56,15.56,0,0,1,1.42,1.25c1,1,1.66.69,3.14,0h0l.55-.26c.27-.12.51-.25.74-.37h0c1-.54,1.72-.91,5.8-.37,4.65.61,5.55.31,7.4-.31h0l.7-.24c1.71-.55,3.16-2.61,4.5-4.52a22.32,22.32,0,0,1,1.86-2.43A11.76,11.76,0,0,1,45.33,5a11,11,0,0,1,3.94-1.05,3.92,3.92,0,0,1,3.51,1,17.76,17.76,0,0,0,1.76,1.27A14.92,14.92,0,0,0,59.1,8.16c.71.2,1.49.42,2.43.75,3.13,1.09,3.58.68,4.4-.07l.13-.12a14.64,14.64,0,0,0,1.7-3.12c.87-1.85,1.86-4,2.36-4.26A14.39,14.39,0,0,1,73.82.54,61.41,61.41,0,0,1,80.23,0a6.58,6.58,0,0,1,3.28.47A14.61,14.61,0,0,0,86,1.26c2.58.6,7.5-.1,10.22-.49l.87-.12c.19,1.09.55,4-.32,5.63a6.46,6.46,0,0,1-2.29,2.15A12.17,12.17,0,0,0,90.74,12c-1.58,2.39-1.07,3.41-.51,4.54a3.57,3.57,0,0,1,.49,1.68c0,1.11-.24,1.27-.63,1.52h0a4.84,4.84,0,0,0-1.44,1.37c-.84,1.18-.65,1.67,0,2.14h0a4.8,4.8,0,0,0,.43.26h0a3.43,3.43,0,0,1,1.46,1.34,5.57,5.57,0,0,1,.79,2.63Z"/></g></g></svg>