<svg xmlns="http://www.w3.org/2000/svg" viewBox="0 0 37.79 33.81"><defs><style>.cls-1{fill:#bfbfbf;fill-rule:evenodd;}</style></defs><title>bartin</title><g id="Layer_2" data-name="Layer 2"><g id="map"><path class="cls-1" d="M0,16.61a5.07,5.07,0,0,0,3.88-1.9c2.69-2.84-.3-4.49,5.38-6.28S13.44,8,16.44,6.48,20,2.37,24.59.87C28-.22,29.6.36,32.79,0c.09.29.17.58.24.87A10.35,10.35,0,0,0,35,5.05c.6.77,1.14,1.37,1.61,1.88,1.13,1.22,1.68,1.82.76,3.23-.48.72-1.08,1.47-1.67,2.19-1.44,1.77-2.8,3.44-2.27,4.83.22.59.28.92.11,1.17a7.33,7.33,0,0,1-2,1.36c-.54.31-1.09.58-1.63.85h0c-1.83.9-3.55,1.75-4.72,4a13,13,0,0,0-.8,1.93c-.31.92-.42,1.22-2.53,2.23a25.32,25.32,0,0,1-3.47,1.35,24.68,24.68,0,0,0-4.63,2,16.23,16.23,0,0,1-4.67,1.79c.17-.76-.19-1.33-.68-2.11h0c-.19-.3-.4-.63-.59-1a1.58,1.58,0,0,1,0-1.49,3.94,3.94,0,0,0,.28-2.4,2.83,2.83,0,0,0-1.44-2.21,3.4,3.4,0,0,1-1.24-1.32,1.45,1.45,0,0,1-.07-1.43h0c.29-.74.53-1.35-.74-2.4A27.36,27.36,0,0,0,0,16.61Z"/></g></g></svg>