<svg xmlns="http://www.w3.org/2000/svg" viewBox="0 0 63.89 61.39"><defs><style>.cls-1{fill:#bfbfbf;fill-rule:evenodd;}</style></defs><title>ardahan</title><g id="Layer_2" data-name="Layer 2"><g id="map"><path class="cls-1" d="M5.91,9.23A2.31,2.31,0,0,1,7,8C9.11,6.76,9.48,6.54,9.93,4.59S8.88,2,11.28,1.15s3.81,0,6.65-.3,4.49-1.57,4.94-.3S20,3.17,21,5.12s1.64,2.24,2.39,2.47,1-4,2.84-1.72,5.83,5.38,7.1,6.8,3.66.9,4.26,2.32,1.42,1.64,3.22,2.17-4.78,3.14-1.42,4,4.26-.45,4.34,1.42-4.49,3.29.9,2.77,3-2.84,6.13-2.39,5.9,2.62,5.9,4.11-.86,2.5-.49,3.55.6,3.29,2.32,3.81,2.92.3,4.19,1.27a6.34,6.34,0,0,0,1.22.66,13.12,13.12,0,0,1-5.95,3.76c-.66.24-1.34.5-2.05.82-2.74,1.23-3.45,1-5.19.37-.48-.16-1-.35-1.67-.55-2.22-.66-2.56-.31-3.17.31a3.16,3.16,0,0,1-1.76.95h0a10.56,10.56,0,0,1-3.7.37,19.15,19.15,0,0,0-2.25,0,17,17,0,0,0-4.62,1,7.74,7.74,0,0,0-3.18,1.93h0c-.94,1.1-1,3.46-1,5.56a15.74,15.74,0,0,1-.19,2.79c-.09.38-.17.82-.26,1.31h0c-.35,1.88-.82,4.41-2.19,5.3-1.06.7-4.77.8-7.84.88a35.88,35.88,0,0,0-4.13.24A6.06,6.06,0,0,0,14.38,59h0a10.49,10.49,0,0,0-3-4,8.09,8.09,0,0,0-4.58-2.41A12.46,12.46,0,0,1,3.15,51.3C.05,49.7,0,48.43,0,47.29c0-.26,0-.52,0-.77a9.27,9.27,0,0,1,.56-3.09A12.65,12.65,0,0,1,2,40.21a36.15,36.15,0,0,0,2.11-4.27C5.44,33.07,7,29.6,8.22,28.13A29.47,29.47,0,0,0,11,24.42a7.78,7.78,0,0,0,1.2-4,7.88,7.88,0,0,0-1-3.81A19.06,19.06,0,0,0,8.51,13a15.42,15.42,0,0,1-2.6-3.74Z"/></g></g></svg>