<svg xmlns="http://www.w3.org/2000/svg" viewBox="0 0 69.87 26.37"><defs><style>.cls-1{fill:#bfbfbf;fill-rule:evenodd;}</style></defs><title>igdir</title><g id="Layer_2" data-name="Layer 2"><g id="map"><path class="cls-1" d="M18.72,0a11.12,11.12,0,0,0,1,.63c3.81,2.32,8.22,1.72,11.07,3.44s3.59,3.59,6.05,2.69,3.07-2.24,5.09-1.87,3.44,1.5,5.38-.37S49.66.63,52.35,2.2s7.25,2.09,9.72,4.19A28.38,28.38,0,0,1,67.94,14c1.49,2.62,2.76,3.29,1.27,4.56-1.21,1-4.1,3.29-5.18,4.79-1.18-1.09-2-1.81-4.28-.89a12.22,12.22,0,0,0-3.17,2,6,6,0,0,1-3.4,1.65,7.23,7.23,0,0,1-3.11-.48A8.82,8.82,0,0,0,46.54,25a6.58,6.58,0,0,0-2.92.69,6.64,6.64,0,0,1-2.49.66,4.34,4.34,0,0,1-3.18-1.14,8.08,8.08,0,0,0-3.71-1.69,16.11,16.11,0,0,0-4-.12,19.62,19.62,0,0,1-4.31-.1,30.33,30.33,0,0,1-3.84-.64,12.71,12.71,0,0,1-2.62-1.17,9.3,9.3,0,0,1-1.73-1.21c-1.05-.89-1.51-1.27-2.75,0a5.11,5.11,0,0,0-1,1.92h0c-.37,1-.72,1.94-2.25,1.38S10,20.84,10,18.92a9.2,9.2,0,0,0-.4-3.13,6.56,6.56,0,0,1-.37-1.17,1.36,1.36,0,0,0-.35-.78,4.3,4.3,0,0,0-1.48-.75h0l-.73-.29h0c-1-.42-1.86-.72-2.57-1a8.65,8.65,0,0,1-2.82-1.34A8.78,8.78,0,0,1,0,9.21c2-.38,2.4-.85,3-1.63A7,7,0,0,1,4.81,5.84c2.14-1.48,1.72-2.38,1.26-3.4A1.62,1.62,0,0,1,5.9,1C6,.77,6.43.88,7,1.1c.27.12.59.27.92.44,1.48.73,3.17,1.56,4.56.56A4.49,4.49,0,0,1,15,1.19h0A5.41,5.41,0,0,0,17.55.48,4.47,4.47,0,0,1,18.72,0Z"/></g></g></svg>