<svg xmlns="http://www.w3.org/2000/svg" viewBox="0 0 36.73 19.62"><defs><style>.cls-1{fill:#bfbfbf;}</style></defs><title>yalova</title><g id="Layer_2" data-name="Layer 2"><g id="map"><path class="cls-1" d="M1.43,16c-.12,0-.71-.14-.9-.2A.83.83,0,0,1,0,15c0-.32.25-.54.44-.77s.32-.71.62-1a4.86,4.86,0,0,1,2-.65,15,15,0,0,0,4.54-2.51c1.28-1.4.67-2,3.79-2.75a39.94,39.94,0,0,1,4.29-.76,8.77,8.77,0,0,0,1.12-.49,3.59,3.59,0,0,1,1.18,0,2.17,2.17,0,0,0,1.05-.55c1.42-1,3.21-.52,4.81-.68,2.92-.29,3.23-1.65,4.56-2.16,1.62-.61,2.37,1.44,4.59-.8.62-.63,1.24-1.27,1.8-1.95a8.71,8.71,0,0,1,.32,1.31C35,1.38,35,1.1,35,1c.24.27-.65.43-.19.69.22.12.58.26.76,0s-.37-.16-.33-.35a1.51,1.51,0,0,1,.65.77c.19.38.56.62.78,1,.4.68-.45,1.31-1.05,1.39.5-.07.2.72.13.94a14.71,14.71,0,0,1-.64,2.64c-.45.8-2.8,2.47-3.53,1.62-.3-.35-.54-1.14-1.15-.93s-.54,1-.71,1.53a1.21,1.21,0,0,1-1.49.65c-.71-.22-1.11-.94-1.81-1.17s-1.51.29-2.15.67A19.07,19.07,0,0,0,22,11.66c-1.18.93-1.41,3.27-3,2.9s-1-2.66-2.73-2.1c-.36.11-.76.35-1.1.05s-.51-.59-.9-.44-.54.64-.93.79-.77-.25-1.07-.48c-1.67-1.29-1.39,2.68-1.92,3.89-.74,1.67-.13,1.21.84,2.37-.35.14-.71.25-1,.4s-.55.47-.91.55-.48-.31-.77-.33-.59,0-.67-.25c-.11.58-2.31-.79-2.59-1a24.77,24.77,0,0,1-2.14-1.9c-.29-.23-.75-.59-1.14-.47-.06,0-.67.31-.46.34,0,0-.09,0-.06,0s0,0,0,0S1.42,16.11,1.43,16Z"/></g></g></svg>