<svg xmlns="http://www.w3.org/2000/svg" viewBox="0 0 50.4 38.07"><defs><style>.cls-1{fill:#bfbfbf;fill-rule:evenodd;}</style></defs><title>karabuk</title><g id="Layer_2" data-name="Layer 2"><g id="map"><path class="cls-1" d="M39.78,26l-.25-.74a7.16,7.16,0,0,1-.36-4.93c.58-2.19,1.57-2.89,3.43-4.2.48-.34,1-.73,1.64-1.19a10.57,10.57,0,0,1,3.71-1.77c1.05-.32,1.88-.57,2.34-1.48.29-.59,0-.75-.37-1a3.54,3.54,0,0,1-2-2.7,4.61,4.61,0,0,1-.06-2.2h0c.07-.32.13-.58-.45-2.44-.53-1.69-.82-2.57-1.25-3S45.1,0,43.83,0a5.85,5.85,0,0,0-2.9.79A5.59,5.59,0,0,1,38,1.57c-1.61,0-2.55-.11-3-.13h0a7.27,7.27,0,0,1-2.32,1.69c-.58.34-1.14.61-1.7.89h0c-1.65.81-3.22,1.58-4.21,3.51A12.32,12.32,0,0,0,26,9.31c-.43,1.26-.57,1.68-3.11,2.89a26.63,26.63,0,0,1-3.61,1.41,23.19,23.19,0,0,0-4.44,1.87,15,15,0,0,1-5.83,2,13.77,13.77,0,0,1-2.54,2.06c-1.34.94-2.78,2-3.18,2.82a6.88,6.88,0,0,0-.41,2.79,5.48,5.48,0,0,1-.35,2.39h0a7.06,7.06,0,0,1-1.44,1.72C.55,29.83,0,30.36,0,30.66c0,.84,1.82,4,1.83,4l-.23.13.27,0A9.66,9.66,0,0,1,6,35.1a5,5,0,0,1,.53.18c.33-.16.59-.3.82-.43h0a3,3,0,0,1,2.58-.5,2.31,2.31,0,0,1,1.34.92h0c.44.51.93,1.08,3,.58a4.23,4.23,0,0,0,2.66-1.58h0a1.59,1.59,0,0,1,2-.74c1,.25,1.37,1.13,1.72,2s.62,1.55,1.78,1.16a14.32,14.32,0,0,0,1.82-.77c1.3-.64,1.82-.9,3.71.14.63.34,1.19.72,1.7,1.06,1.15.77,2,1.32,2.54.7s.41-2.11.36-3.75-.12-3.51.46-4.59c.71-1.32.87-1.3,1.57-1.21h0a3.87,3.87,0,0,0,2.35-.59,17.93,17.93,0,0,0,2.58-1.49l.28-.19Z"/></g></g></svg>