<svg xmlns="http://www.w3.org/2000/svg" viewBox="0 0 40.99 53.71"><defs><style>.cls-1{fill:#bfbfbf;fill-rule:evenodd;}</style></defs><title>osmaniye</title><g id="Layer_2" data-name="Layer 2"><g id="map"><path class="cls-1" d="M32.16,53.71c.25-1.45,1-5.4,2.24-7.23l.16-.25a28.66,28.66,0,0,1,4.27-5.54,7,7,0,0,0,1.58-3,11.09,11.09,0,0,0,.56-4,11.44,11.44,0,0,0-.76-2.59A26.16,26.16,0,0,0,38.6,27.7a6.78,6.78,0,0,0-3.22-1.09,5.44,5.44,0,0,0-3.09.38,5.18,5.18,0,0,1-3.63.72,13.38,13.38,0,0,0-2.56-.06A3.08,3.08,0,0,0,23.44,29c-.46.61-.74,1-1.56.48-.65-.4-1.08-1.81-1.38-3.62s-.46-3.76-.61-5.63c-.22-2.74,0-2.9.61-3.51a4.7,4.7,0,0,0,1-1.22c.32-.55.59-1,.82-1.28.58-.85.71-1-.14-2.41a7.8,7.8,0,0,0-1.71-1.85c-.94-.81-1.68-1.43-1.51-2.77S20,5.27,21,4.59A5.87,5.87,0,0,0,23,2.88,2.36,2.36,0,0,0,22.9,0a2.32,2.32,0,0,1-.38.07h-.11c-.77,0-.86.17-1.1.51a7.32,7.32,0,0,1-1.08,1.28,2.74,2.74,0,0,1-3,.91,10.81,10.81,0,0,0-1.44-.16A12.12,12.12,0,0,0,13,2.77a6.14,6.14,0,0,0-2.38,1A11.75,11.75,0,0,0,8.21,7.11a41.68,41.68,0,0,0-2.78,6c-.33,1.05-.28,1.2-.14,1.59a8.23,8.23,0,0,1,.47,2.15C6,19.06,5.47,19.2,4.68,19.4h0a1.17,1.17,0,0,0-.76.48,1.85,1.85,0,0,0-.35,1.52,10.41,10.41,0,0,1-.11,2.69c-.31,1.95-.93,2.23-1.53,2.5a.89.89,0,0,0-.58.65,2.28,2.28,0,0,0,.08,1.86,19.92,19.92,0,0,1,.69,2.41A5.75,5.75,0,0,1,.74,36.4,3.57,3.57,0,0,0,0,37.67c-.05.48-.06.77.08.89A4.12,4.12,0,0,0,2,38.92c1.18.07,2.42-1,3.34-1.85a9,9,0,0,1,1-.81c.56-.35,1-.38,1.35.15h0a20.4,20.4,0,0,1,.64,4.89c.21,3.09.34,6.85.35,8.35a5.48,5.48,0,0,0,2.55,0,7.76,7.76,0,0,1,1.39-.24A3.89,3.89,0,0,1,15,50a3.08,3.08,0,0,0,1.92.47,6.89,6.89,0,0,0,1.92-.6c1.09-.46,2.07-.88,3.25-.32a2.09,2.09,0,0,1,1.18,1.43c.19.54.4,1.12,2.33,1.44h0l1.15.19a32.28,32.28,0,0,1,5.43,1.14Z"/></g></g></svg>