<svg xmlns="http://www.w3.org/2000/svg" viewBox="0 0 46.38 31.27"><defs><style>.cls-1{fill:#bfbfbf;fill-rule:evenodd;}</style></defs><title>duzce</title><g id="Layer_2" data-name="Layer 2"><g id="map"><path class="cls-1" d="M7.91.85c2.47.68,1.58,1.36,4.32.49,3.29-1,1.49-1.64,6-1.2C22.05.53,23,1.41,24.49.06c.38,1.67.73,3.21,3.78,4.47A24.9,24.9,0,0,0,37,6.12c1.08.06,2.12.11,3.1.24a19.5,19.5,0,0,1,3.73.84,21,21,0,0,0,2.57.66c-.32,1.78-1.06,5.5-1.69,6.45h0c-.53.8-.8.85-2.5,1.19-.68.14-1.58.32-2.77.59a18.86,18.86,0,0,1-4.75.51,5,5,0,0,0-3,.61c-1.5,1-2.13,2.44-2.87,4.2-.15.37-.31.74-.49,1.13a13.06,13.06,0,0,0-.86,3.86,7.51,7.51,0,0,1-.47,2.31c-.27.51-1.67,1.2-3.32,1.74a13.86,13.86,0,0,1-4.81.8c-1.25-.1-1.45-.69-1.63-1.25a2,2,0,0,0-1.29-1.57,19.71,19.71,0,0,0-4.82-.06c-2.74.13-5.81.28-6.43-.19s-.38-.89-.27-1.49a4.23,4.23,0,0,0-.07-2.45,5.9,5.9,0,0,0-1.2-2.2A4.47,4.47,0,0,0,.68,20.91c-.55-.12-.68-.1-.68-.12a2.83,2.83,0,0,1,.13-.38A6.55,6.55,0,0,0,.6,18.36a5.45,5.45,0,0,1,1.28-3A24.72,24.72,0,0,1,5,12.17,11.36,11.36,0,0,0,8.53,6.65c.12-.37.25-.73.41-1.13.64-1.64,0-2.95-1-4.67Z"/></g></g></svg>