<?xml version="1.0" encoding="UTF-8"?>
<svg width="597px" height="181px" viewBox="0 0 597 181" version="1.1" xmlns="http://www.w3.org/2000/svg" xmlns:xlink="http://www.w3.org/1999/xlink">
    <!-- Generator: Sketch 56.3 (81716) - https://sketch.com -->
    <title>Group 32</title>
    <desc>Created with Sketch.</desc>
    <defs>
        <polygon id="path-1" points="0 0.3611 204.498 0.3611 204.498 181 0 181"></polygon>
    </defs>
    <g id="Page-1" stroke="none" stroke-width="1" fill="none" fill-rule="evenodd">
        <g id="Group-32" transform="translate(0.000000, -1.000000)">
            <g id="Group-3" transform="translate(0.000000, 0.639000)">
                <mask id="mask-2" fill="white">
                    <use xlink:href="#path-1"></use>
                </mask>
                <g id="Clip-2"></g>
                <path d="M106.52,178.4121 L106.506,178.4381 L106.464,178.5151 L106.451,178.5391 L106.406,178.6171 L106.389,178.6461 L106.346,178.7181 L106.329,178.7431 L106.28,178.8191 L106.263,178.8471 L106.221,178.9071 L106.192,178.9491 C106.15,179.0101 106.107,179.0681 106.062,179.1261 L106.061,179.1291 L105.986,179.2221 L105.985,179.2241 C105.777,179.4781 105.544,179.7111 105.29,179.9191 L105.288,179.9211 L105.194,179.9941 L105.192,179.9961 C105.134,180.0411 105.076,180.0841 105.015,180.1261 L104.974,180.1551 L104.913,180.1971 L104.885,180.2151 L104.81,180.2641 L104.784,180.2791 L104.712,180.3231 L104.683,180.3401 L104.605,180.3851 L104.581,180.3981 L104.504,180.4391 L104.478,180.4541 C103.811,180.8031 103.053,181.0001 102.249,181.0001 C101.445,181.0001 100.687,180.8031 100.02,180.4541 L99.994,180.4391 L99.917,180.3981 L99.893,180.3851 L99.814,180.3401 L99.786,180.3231 L99.714,180.2791 L99.688,180.2641 L99.613,180.2151 L99.585,180.1971 L99.524,180.1551 L99.482,180.1261 C99.422,180.0841 99.364,180.0411 99.306,179.9961 L99.303,179.9941 L99.21,179.9211 L99.208,179.9191 C99.071,179.8071 98.94,179.6871 98.816,179.5611 L16.586,97.3321 C5.529,86.2751 0,71.7041 0,57.1391 C0,42.5741 5.529,28.0031 16.586,16.9471 C27.123,6.4101 40.877,0.8971 54.788,0.4121 C68.761,-0.0759 82.888,4.5351 94.053,14.2451 C96.059,15.9801 96.278,19.0131 94.542,21.0181 C92.807,23.0241 89.774,23.2431 87.768,21.5071 C78.486,13.4351 66.727,9.6021 55.089,10.0081 C43.57,10.4111 32.162,14.9941 23.397,23.7581 C14.222,32.9331 9.634,45.0351 9.634,57.1391 C9.634,69.2441 14.222,81.3451 23.397,90.5201 L97.432,164.5551 L97.432,116.5811 L82.212,101.3611 C80.331,99.4801 80.331,96.4311 82.212,94.5501 C84.093,92.6701 87.143,92.6701 89.023,94.5501 L97.432,102.9581 L97.432,91.0511 L82.212,75.8311 C80.331,73.9511 80.331,70.9001 82.212,69.0201 C84.093,67.1391 87.143,67.1391 89.023,69.0201 L97.432,77.4281 L97.432,59.5251 C97.432,56.8641 99.589,54.7071 102.249,54.7071 C104.909,54.7071 107.066,56.8641 107.066,59.5251 L107.066,77.4281 L115.474,69.0201 C117.355,67.1391 120.405,67.1391 122.286,69.0201 C124.166,70.9001 124.166,73.9511 122.286,75.8311 L107.066,91.0511 L107.066,102.9581 L115.474,94.5501 C117.355,92.6701 120.405,92.6701 122.286,94.5501 C124.166,96.4311 124.166,99.4801 122.286,101.3611 L107.066,116.5811 L107.066,176.1831 C107.066,176.9871 106.869,177.7451 106.52,178.4121 L106.52,178.4121 Z M120.207,165.0361 C118.326,166.9171 115.276,166.9171 113.395,165.0361 C111.515,163.1551 111.515,160.1051 113.395,158.2251 L181.1,90.5201 C190.275,81.3451 194.864,69.2441 194.864,57.1391 C194.864,45.0351 190.275,32.9331 181.1,23.7581 C171.925,14.5831 159.823,9.9951 147.719,9.9951 C135.615,9.9951 123.513,14.5831 114.338,23.7581 L99.455,38.6411 C85.402,52.6941 75.846,68.5561 71.918,82.9021 C70.035,89.7801 69.466,96.2781 70.348,102.0031 C71.171,107.3491 73.305,111.9891 76.868,115.5531 C79.847,118.5321 83.853,120.8211 88.957,122.2191 C91.514,122.9151 93.021,125.5521 92.325,128.1081 C91.629,130.6641 88.993,132.1731 86.436,131.4761 C79.596,129.6031 74.165,126.4731 70.056,122.3641 C64.982,117.2891 61.963,110.8121 60.827,103.4331 C59.749,96.4291 60.413,88.5871 62.66,80.3811 C67.021,64.4541 77.432,47.0411 92.644,31.8291 L107.527,16.9471 C118.583,5.8901 133.153,0.3611 147.719,0.3611 C162.285,0.3611 176.854,5.8901 187.912,16.9471 C198.969,28.0031 204.498,42.5741 204.498,57.1391 C204.498,71.7041 198.969,86.2751 187.912,97.3321 L120.207,165.0361 Z M109.826,43.6771 C108.049,41.7031 108.21,38.6611 110.184,36.8841 C112.158,35.1071 115.2,35.2671 116.977,37.2421 C129.41,51.0801 137.983,66.3061 141.838,80.3811 C144.173,88.9101 144.797,97.0531 143.531,104.2821 C142.201,111.8771 138.828,118.4741 133.217,123.5161 C129.27,127.0611 124.239,129.7851 118.062,131.4761 C115.505,132.1731 112.868,130.6641 112.172,128.1081 C111.476,125.5521 112.984,122.9151 115.541,122.2191 C120.179,120.9481 123.908,118.9471 126.782,116.3651 C130.707,112.8391 133.085,108.1211 134.047,102.6261 C135.074,96.7661 134.535,90.0421 132.58,82.9021 C129.116,70.2541 121.272,56.4161 109.826,43.6771 L109.826,43.6771 Z" id="Fill-1" fill="#4EBA6F" mask="url(#mask-2)"></path>
            </g>
            <polygon id="Fill-4" fill="#333333" points="256.8813 138.6341 234.7123 109.3051 223.5233 109.3051 223.5233 158.0231 235.4053 158.0231 235.4053 128.9041 257.5063 158.0231 268.6263 158.0231 268.6263 109.3051 256.8113 109.3051"></polygon>
            <polygon id="Fill-6" fill="#333333" points="290.8667 138.7015 314.0787 138.6345 314.0787 128.5555 290.8667 128.5555 290.8667 119.4505 316.5807 119.4505 316.5807 109.3055 278.1487 109.3055 278.1487 158.0225 317.2767 158.0225 317.2767 147.8775 290.8667 147.8775"></polygon>
            <polygon id="Fill-8" fill="#333333" points="325.0576 158.0227 337.7766 158.0227 337.7766 140.4407 359.5966 140.4407 359.5966 130.2927 337.7766 130.2927 337.7766 119.4507 361.4066 119.4507 361.4736 109.3047 325.0576 109.3047"></polygon>
            <polygon id="Fill-10" fill="#333333" points="379.9609 138.7015 403.1729 138.6345 403.1729 128.5555 379.9609 128.5555 379.9609 119.4505 405.6749 119.4505 405.6749 109.3055 367.2429 109.3055 367.2429 158.0225 406.3709 158.0225 406.3709 147.8775 379.9609 147.8775"></polygon>
            <path d="M450.2197,135.679 C448.6447,133.665 446.7567,132.169 444.5577,131.198 C442.3567,130.225 439.5657,129.251 436.1837,128.278 C433.9117,127.582 432.1977,127.015 431.0387,126.575 C429.8817,126.135 428.9077,125.557 428.1217,124.838 C427.3327,124.118 426.9407,123.23 426.9407,122.163 C426.9407,121.05 427.3907,120.204 428.2937,119.626 C429.1977,119.047 430.4367,118.757 432.0127,118.757 C434.0027,118.757 436.4707,119.243 439.4137,120.216 C442.3567,121.19 445.1247,122.441 447.7207,123.969 L452.5147,113.824 C449.9187,112.155 446.9077,110.825 443.4797,109.825 C440.0507,108.831 436.5747,108.331 433.0557,108.331 C429.1617,108.331 425.7447,108.948 422.8047,110.173 C419.8617,111.401 417.5927,113.152 415.9937,115.42 C414.3957,117.691 413.5967,120.333 413.5967,123.344 C413.5967,126.541 414.3717,129.102 415.9237,131.023 C417.4767,132.947 419.3407,134.384 421.5187,135.331 C423.6967,136.282 426.4527,137.22 429.7877,138.147 C432.0127,138.748 433.7377,139.272 434.9667,139.71 C436.1927,140.152 437.2127,140.741 438.0247,141.482 C438.8347,142.224 439.2407,143.151 439.2407,144.261 C439.2407,145.606 438.6947,146.626 437.6077,147.322 C436.5167,148.015 435.0237,148.363 433.1257,148.363 C430.5307,148.363 427.5517,147.667 424.1937,146.278 C420.8347,144.887 417.9267,143.104 415.4737,140.926 L410.5367,150.865 C413.4567,153.32 416.9207,155.255 420.9277,156.667 C424.9357,158.081 428.9547,158.788 432.9857,158.788 C436.6457,158.788 439.9717,158.207 442.9587,157.05 C445.9467,155.892 448.2967,154.164 450.0127,151.872 C451.7257,149.578 452.5847,146.81 452.5847,143.569 C452.5847,140.324 451.7957,137.696 450.2197,135.679" id="Fill-12" fill="#333333"></path>
            <polygon id="Fill-14" fill="#333333" points="291.0044 68.1897 314.2164 68.1227 314.2164 58.0437 291.0044 58.0437 291.0044 48.9387 316.7184 48.9387 316.7184 38.7927 278.2864 38.7927 278.2864 87.5107 317.4144 87.5107 317.4144 77.3647 291.0044 77.3647"></polygon>
            <polygon id="Fill-16" fill="#333333" points="337.916 38.7928 325.198 38.7928 325.198 87.5108 358.556 87.5108 358.556 76.6688 337.916 76.6688"></polygon>
            <polygon id="Fill-18" fill="#333333" points="377.041 68.1897 400.253 68.1227 400.253 58.0437 377.041 58.0437 377.041 48.9387 402.756 48.9387 402.756 38.7927 364.323 38.7927 364.323 87.5107 403.451 87.5107 403.451 77.3647 377.041 77.3647"></polygon>
            <path d="M440.6318,75.4886 C438.4538,76.5086 436.3678,77.0176 434.3768,77.0176 C431.9208,77.0176 429.6858,76.4036 427.6708,75.1756 C425.6538,73.9476 424.0678,72.2556 422.9098,70.1016 C421.7518,67.9466 421.1728,65.5506 421.1728,62.9076 C421.1728,60.2686 421.7518,57.8716 422.9098,55.7176 C424.0678,53.5606 425.6538,51.8706 427.6708,50.6426 C429.6858,49.4146 431.9208,48.8016 434.3768,48.8016 C436.5078,48.8016 438.6618,49.3916 440.8398,50.5726 C443.0178,51.7536 444.8938,53.3406 446.4698,55.3346 L453.8358,46.4366 C451.3798,43.8436 448.3928,41.7946 444.8698,40.2866 C441.3488,38.7806 437.7818,38.0296 434.1688,38.0296 C429.2558,38.0296 424.8208,39.1176 420.8608,41.2946 C416.8978,43.4726 413.7808,46.4626 411.5128,50.2596 C409.2408,54.0596 408.1078,58.3216 408.1078,63.0486 C408.1078,67.8216 409.2188,72.1296 411.4428,75.9736 C413.6668,79.8206 416.7248,82.8546 420.6178,85.0786 C424.5088,87.3026 428.8638,88.4146 433.6818,88.4146 C437.2498,88.4146 440.8518,87.5906 444.4898,85.9466 C448.1268,84.3036 451.2658,82.0896 453.9048,79.3096 L446.4698,71.3176 C444.7558,73.0796 442.8098,74.4686 440.6318,75.4886" id="Fill-20" fill="#333333"></path>
            <polygon id="Fill-22" fill="#333333" points="472.043 68.1897 495.255 68.1227 495.255 58.0437 472.043 58.0437 472.043 48.9387 497.757 48.9387 497.757 38.7927 459.325 38.7927 459.325 87.5107 498.453 87.5107 498.453 77.3647 472.043 77.3647"></polygon>
            <path d="M529.3066,35.0398 C532.6436,35.0398 535.3536,34.0218 537.4386,31.9818 C539.5226,29.9448 540.6356,27.2348 540.7736,23.8508 L533.1286,23.8508 C533.0356,25.0568 532.6296,26.0168 531.9126,26.7348 C531.1946,27.4548 530.3266,27.8138 529.3066,27.8138 C528.2396,27.8138 527.3626,27.4548 526.6656,26.7348 C525.9706,26.0168 525.5766,25.0568 525.4856,23.8508 L517.7716,23.8508 C517.9096,27.2348 519.0326,29.9448 521.1416,31.9818 C523.2486,34.0218 525.9706,35.0398 529.3066,35.0398" id="Fill-24" fill="#333333"></path>
            <polygon id="Fill-26" fill="#333333" points="570.5908 77.365 570.5908 68.19 593.8028 68.122 593.8028 58.044 570.5908 58.044 570.5908 48.939 596.3048 48.939 596.3048 38.793 557.8718 38.793 557.8718 87.511 596.9998 87.511 596.9998 77.365"></polygon>
            <path d="M522.9131,50.6775 C524.9981,49.4265 527.3361,48.8015 529.9321,48.8015 C532.1561,48.8015 534.4151,49.2865 536.7071,50.2605 C539.0021,51.2335 541.0271,52.5545 542.7901,54.2205 L550.0181,45.3255 C547.5171,43.1015 544.4591,41.3295 540.8441,40.0095 C537.2301,38.6875 533.6151,38.0295 530.0021,38.0295 C524.9511,38.0295 520.3761,39.1175 516.2751,41.2945 C512.1771,43.4725 508.9561,46.4715 506.6171,50.2945 C504.2761,54.1175 503.1061,58.3915 503.1061,63.1175 C503.1061,67.8885 504.2411,72.1995 506.5121,76.0435 C508.7811,79.8905 511.8961,82.9125 515.8601,85.1145 C519.8201,87.3145 524.2561,88.4145 529.1691,88.4145 C532.5511,88.4145 536.1291,87.8235 539.9051,86.6425 C543.6511,85.4715 546.8071,83.9415 549.3911,82.0635 L549.3911,62.4235 L526.2671,62.4235 L526.1961,70.9555 L538.4811,70.9255 L538.4811,75.2105 C535.3301,76.7855 532.5271,77.5725 530.0721,77.5725 C527.4761,77.5725 525.1141,76.9475 522.9831,75.6965 C520.8501,74.4455 519.1841,72.7195 517.9791,70.5195 C516.7721,68.3185 516.1731,65.8515 516.1731,63.1175 C516.1731,60.4315 516.7721,57.9975 517.9791,55.8195 C519.1841,53.6415 520.8291,51.9285 522.9131,50.6775" id="Fill-28" fill="#333333"></path>
            <path d="M243.3296,50.6775 C245.4136,49.4265 247.7526,48.8015 250.3486,48.8015 C252.5726,48.8015 254.8316,49.2865 257.1236,50.2605 C259.4186,51.2335 261.4446,52.5545 263.2066,54.2205 L270.4346,45.3255 C267.9326,43.1015 264.8746,41.3295 261.2596,40.0095 C257.6466,38.6875 254.0316,38.0295 250.4186,38.0295 C245.3676,38.0295 240.7926,39.1175 236.6916,41.2945 C232.5936,43.4725 229.3716,46.4715 227.0336,50.2945 C224.6926,54.1175 223.5236,58.3915 223.5236,63.1175 C223.5236,67.8885 224.6576,72.1995 226.9286,76.0435 C229.1976,79.8905 232.3126,82.9125 236.2766,85.1145 C240.2376,87.3145 244.6716,88.4145 249.5846,88.4145 C252.9666,88.4145 256.5446,87.8235 260.3216,86.6425 C264.0676,85.4715 267.2226,83.9415 269.8066,82.0635 L269.8066,62.4235 L246.6836,62.4235 L246.6126,70.9555 L258.8976,70.9255 L258.8976,75.2105 C255.7466,76.7855 252.9436,77.5725 250.4886,77.5725 C247.8926,77.5725 245.5306,76.9475 243.3996,75.6965 C241.2666,74.4455 239.6006,72.7195 238.3956,70.5195 C237.1886,68.3185 236.5896,65.8515 236.5896,63.1175 C236.5896,60.4315 237.1886,57.9975 238.3956,55.8195 C239.6006,53.6415 241.2456,51.9285 243.3296,50.6775" id="Fill-30" fill="#333333"></path>
        </g>
    </g>
</svg>