<?xml version="1.0" encoding="UTF-8"?>
<svg width="169px" height="23px" viewBox="0 0 169 23" version="1.1" xmlns="http://www.w3.org/2000/svg" xmlns:xlink="http://www.w3.org/1999/xlink">
    <!-- Generator: Sketch 56.3 (81716) - https://sketch.com -->
    <title>Group 2</title>
    <desc>Created with Sketch.</desc>
    <defs>
        <polygon id="path-1" points="0 0.4317 11.8368674 0.4317 11.8368674 13.1777 0 13.1777"></polygon>
        <polygon id="path-3" points="0.3318 0.8731 11.6068 0.8731 11.6068 19 0.3318 19"></polygon>
        <path d="M2.548,4.712 L0.333,0.874 L8.377,5.518 C9.359,6.084 10.175,6.902 10.741,7.881 C11.308,8.862 11.608,9.98 11.608,11.112 L11.608,11.891 L11.607,11.892 L9.391,11.892 L9.391,11.112 C9.391,9.6 8.577,8.193 7.269,7.437 L2.548,4.712 Z" id="path-5"></path>
        <linearGradient x1="35.3698749%" y1="39.1558504%" x2="84.5358927%" y2="75.6167132%" id="linearGradient-7">
            <stop stop-color="#000000" offset="0%"></stop>
            <stop stop-color="#FFFFFF" offset="100%"></stop>
        </linearGradient>
        <polygon id="path-8" points="0.404 0.378 11.679 0.378 11.679 18.5039 0.404 18.5039"></polygon>
        <path d="M9.679,8.265 C9.679,9.398 9.38,10.515 8.815,11.496 C8.247,12.476 7.43,13.294 6.45,13.861 L0.623,17.223 L0.623,14.665 L5.341,11.941 C6.65,11.185 7.463,9.777 7.463,8.265 L7.463,4.216 L2.743,6.942 C1.715,7.535 0.992,8.531 0.729,9.664 C0.93,8.178 1.365,5.179 1.634,5.022 L9.679,0.378 L9.679,8.265 Z M0.623,10.46 C0.633,10.189 0.669,9.923 0.729,9.664 C0.669,10.116 0.629,10.428 0.623,10.478 L0.623,10.46 Z" id="path-10"></path>
        <linearGradient x1="-36.7636274%" y1="50.0029718%" x2="92.4449315%" y2="50.0029718%" id="linearGradient-12">
            <stop stop-color="#FFFFFF" offset="0%"></stop>
            <stop stop-color="#000000" offset="100%"></stop>
        </linearGradient>
    </defs>
    <g id="Page-1" stroke="none" stroke-width="1" fill="none" fill-rule="evenodd">
        <g id="Group-2" transform="translate(0.000000, -0.444500)">
            <g id="Group-3" transform="translate(0.000000, 8.000000)">
                <mask id="mask-2" fill="white">
                    <use xlink:href="#path-1"></use>
                </mask>
                <g id="Clip-2"></g>
                <path d="M5.9328,13.1777 C4.2078,13.1777 2.7758,12.5367 1.6378,11.2587 C0.5458,10.0367 -0.0002,8.5537 -0.0002,6.8047 C-0.0002,5.0567 0.5458,3.5717 1.6378,2.3507 C2.7758,1.0727 4.2078,0.4317 5.9328,0.4317 C7.2708,0.4317 8.4328,0.7897 9.4188,1.5057 C10.4048,2.2207 11.0908,3.2197 11.4778,4.4987 L8.9778,4.4987 C8.3208,3.2077 7.3058,2.5627 5.9328,2.5627 C4.8648,2.5627 3.9838,3.0137 3.2918,3.9177 C2.6468,4.7397 2.3238,5.7007 2.3238,6.8047 C2.3238,7.9067 2.6408,8.8757 3.2748,9.7087 C3.9668,10.6137 4.8528,11.0657 5.9328,11.0657 C6.7538,11.0657 7.4698,10.8097 8.0798,10.2997 C8.6908,9.7877 9.0898,9.1347 9.2778,8.3357 L6.2498,8.3357 L6.2498,6.1697 L11.8298,6.1697 C11.9008,8.1307 11.4368,9.7627 10.4398,11.0657 C9.3488,12.4737 7.8458,13.1777 5.9328,13.1777" id="Fill-1" fill="#8C6239" mask="url(#mask-2)"></path>
            </g>
            <path d="M15.8439,12.5864 L15.8439,13.7664 L20.7909,13.7664 L20.7909,15.9314 L15.8439,15.9314 L15.8439,17.1104 C15.8439,17.6624 15.9639,18.0614 16.2049,18.3084 C16.4459,18.5544 16.8419,18.6774 17.3929,18.6774 L21.6889,18.6774 L21.6889,20.9664 L17.3759,20.9664 C16.1669,20.9664 15.2219,20.6204 14.5409,19.9274 C13.8609,19.2344 13.5199,18.2844 13.5199,17.0754 L13.5199,12.6394 C13.5199,11.4184 13.8579,10.4644 14.5319,9.7774 C15.2069,9.0924 16.1549,8.7484 17.3759,8.7484 L21.6889,8.7484 L21.6889,11.0364 L17.3929,11.0364 C16.8419,11.0364 16.4459,11.1574 16.2049,11.3984 C15.9639,11.6384 15.8439,12.0344 15.8439,12.5864" id="Fill-4" fill="#8C6239"></path>
            <path d="M27.3049,20.9668 C26.0959,20.9668 25.1539,20.6248 24.4789,19.9458 C23.8039,19.2658 23.4669,18.3208 23.4669,17.1118 L23.4669,8.7488 L25.7909,8.7488 L25.7909,17.0748 C25.7909,17.6398 25.9079,18.0478 26.1429,18.2998 C26.3779,18.5518 26.7709,18.6778 27.3219,18.6778 L31.0019,18.6778 L31.0019,20.9668 L27.3049,20.9668 Z" id="Fill-6" fill="#8C6239"></path>
            <path d="M34.716,12.5864 L34.716,13.7664 L39.663,13.7664 L39.663,15.9314 L34.716,15.9314 L34.716,17.1104 C34.716,17.6624 34.836,18.0614 35.077,18.3084 C35.318,18.5544 35.713,18.6774 36.265,18.6774 L40.561,18.6774 L40.561,20.9664 L36.248,20.9664 C35.039,20.9664 34.094,20.6204 33.413,19.9274 C32.733,19.2344 32.392,18.2844 32.392,17.0754 L32.392,12.6394 C32.392,11.4184 32.729,10.4644 33.404,9.7774 C34.079,9.0924 35.027,8.7484 36.248,8.7484 L40.561,8.7484 L40.561,11.0364 L36.265,11.0364 C35.713,11.0364 35.318,11.1574 35.077,11.3984 C34.836,11.6384 34.716,12.0344 34.716,12.5864" id="Fill-8" fill="#8C6239"></path>
            <path d="M53.2893,17.0938 C52.9013,18.3618 52.2123,19.3588 51.2203,20.0858 C50.2283,20.8148 49.0693,21.1778 47.7433,21.1778 C46.0183,21.1778 44.5923,20.5368 43.4653,19.2588 C42.3733,18.0368 41.8283,16.5538 41.8283,14.8048 C41.8283,13.0568 42.3733,11.5718 43.4653,10.3508 C44.5923,9.0728 46.0183,8.4318 47.7433,8.4318 C49.0933,8.4318 50.2583,8.7898 51.2383,9.5058 C52.2183,10.2208 52.9073,11.2188 53.3073,12.4988 L50.7893,12.4988 C50.1553,11.2078 49.1403,10.5628 47.7433,10.5628 C46.6753,10.5628 45.7953,11.0138 45.1023,11.9178 C44.4693,12.7508 44.1523,13.7138 44.1523,14.8048 C44.1523,15.9068 44.4693,16.8758 45.1023,17.7088 C45.7953,18.6138 46.6753,19.0658 47.7433,19.0658 C48.4123,19.0658 49.0143,18.8898 49.5483,18.5358 C50.0823,18.1858 50.4963,17.7028 50.7893,17.0938 L53.2893,17.0938 Z" id="Fill-10" fill="#8C6239"></path>
            <path d="M57.1262,12.5864 L57.1262,13.7664 L62.0732,13.7664 L62.0732,15.9314 L57.1262,15.9314 L57.1262,17.1104 C57.1262,17.6624 57.2462,18.0614 57.4872,18.3084 C57.7282,18.5544 58.1242,18.6774 58.6762,18.6774 L62.9712,18.6774 L62.9712,20.9664 L58.6582,20.9664 C57.4492,20.9664 56.5042,20.6204 55.8242,19.9274 C55.1432,19.2344 54.8022,18.2844 54.8022,17.0754 L54.8022,12.6394 C54.8022,11.4184 55.1402,10.4644 55.8152,9.7774 C56.4902,9.0924 57.4372,8.7484 58.6582,8.7484 L62.9712,8.7484 L62.9712,11.0364 L58.6762,11.0364 C58.1242,11.0364 57.7282,11.1574 57.4872,11.3984 C57.2462,11.6384 57.1262,12.0344 57.1262,12.5864" id="Fill-12" fill="#8C6239"></path>
            <path d="M72.7072,5.1392 C72.6602,5.8552 72.3782,6.4212 71.8622,6.8382 C71.3452,7.2552 70.7182,7.4632 69.9782,7.4632 C69.2502,7.4632 68.6282,7.2552 68.1122,6.8382 C67.5962,6.4212 67.3082,5.8552 67.2492,5.1392 L68.4642,5.1392 C68.6642,5.8432 69.1682,6.1962 69.9782,6.1962 C70.8112,6.1962 71.3162,5.8432 71.4922,5.1392 L72.7072,5.1392 Z M70.1722,21.1782 C68.4472,21.1782 67.0152,20.5372 65.8762,19.2582 C64.7852,18.0372 64.2392,16.5542 64.2392,14.8052 C64.2392,13.0562 64.7852,11.5712 65.8762,10.3502 C67.0152,9.0722 68.4472,8.4312 70.1722,8.4312 C71.5102,8.4312 72.6712,8.7892 73.6582,9.5052 C74.6442,10.2212 75.3302,11.2192 75.7172,12.4982 L73.2182,12.4982 C72.5602,11.2072 71.5452,10.5622 70.1722,10.5622 C69.1032,10.5622 68.2232,11.0142 67.5312,11.9172 C66.8852,12.7392 66.5632,13.7022 66.5632,14.8052 C66.5632,15.9082 66.8802,16.8762 67.5142,17.7092 C68.2062,18.6132 69.0922,19.0652 70.1722,19.0652 C70.9932,19.0652 71.7092,18.8092 72.3192,18.2992 C72.9302,17.7882 73.3292,17.1352 73.5172,16.3362 L70.4892,16.3362 L70.4892,14.1702 L76.0692,14.1702 C76.1402,16.1302 75.6762,17.7632 74.6782,19.0652 C73.5872,20.4732 72.0852,21.1782 70.1722,21.1782 L70.1722,21.1782 Z" id="Fill-14" fill="#8C6239"></path>
            <path d="M80.0832,12.5864 L80.0832,13.7664 L85.0302,13.7664 L85.0302,15.9314 L80.0832,15.9314 L80.0832,17.1104 C80.0832,17.6624 80.2042,18.0614 80.4442,18.3084 C80.6852,18.5544 81.0812,18.6774 81.6322,18.6774 L85.9282,18.6774 L85.9282,20.9664 L81.6142,20.9664 C80.4062,20.9664 79.4612,20.6204 78.7802,19.9274 C78.0992,19.2344 77.7592,18.2844 77.7592,17.0754 L77.7592,12.6394 C77.7592,11.4184 78.0972,10.4644 78.7712,9.7774 C79.4462,9.0924 80.3942,8.7484 81.6142,8.7484 L85.9282,8.7484 L85.9282,11.0364 L81.6322,11.0364 C81.0812,11.0364 80.6852,11.1574 80.4442,11.3984 C80.2042,11.6384 80.0832,12.0344 80.0832,12.5864" id="Fill-16" fill="#8C6239"></path>
            <path d="M98.8898,8.4868 C100.1918,8.4868 101.2568,8.8978 102.0838,9.7188 C102.9108,10.5408 103.3268,11.6028 103.3268,12.9058 L103.3268,21.0038 L101.0018,21.0038 L101.0018,12.8528 C101.0018,12.1958 100.8138,11.6818 100.4388,11.3118 C100.0628,10.9428 99.5458,10.7578 98.8898,10.7578 C98.2318,10.7578 97.7188,10.9428 97.3488,11.3118 C96.9788,11.6818 96.7938,12.1958 96.7938,12.8528 L96.7938,21.0038 L94.4698,21.0038 L94.4698,12.9058 C94.4698,11.6028 94.8808,10.5408 95.7018,9.7188 C96.5248,8.8978 97.5858,8.4868 98.8898,8.4868" id="Fill-18" fill="#4EBA6F"></path>
            <path d="M107.8147,12.6235 L107.8147,13.8035 L112.7617,13.8035 L112.7617,15.9695 L107.8147,15.9695 L107.8147,17.1475 C107.8147,17.6995 107.9347,18.0995 108.1747,18.3455 C108.4177,18.5925 108.8117,18.7155 109.3647,18.7155 L113.6617,18.7155 L113.6617,21.0035 L109.3467,21.0035 C108.1367,21.0035 107.1927,20.6575 106.5117,19.9655 C105.8327,19.2725 105.4917,18.3215 105.4917,17.1125 L105.4917,12.6765 C105.4917,11.4555 105.8297,10.5025 106.5027,9.8155 C107.1777,9.1295 108.1267,8.7855 109.3467,8.7855 L113.6617,8.7855 L113.6617,11.0745 L109.3647,11.0745 C108.8117,11.0745 108.4177,11.1945 108.1747,11.4355 C107.9347,11.6765 107.8147,12.0725 107.8147,12.6235" id="Fill-20" fill="#4EBA6F"></path>
            <path d="M117.7609,12.6235 L117.7609,13.8385 L122.0919,13.8385 L122.0919,16.0045 L117.7609,16.0045 L117.7609,21.0035 L115.4389,21.0035 L115.4389,12.6765 C115.4389,11.4555 115.7729,10.5025 116.4419,9.8155 C117.1109,9.1295 118.0539,8.7855 119.2759,8.7855 L123.0069,8.7855 L123.0069,11.0745 L119.2929,11.0745 C118.7409,11.0745 118.3479,11.1945 118.1139,11.4355 C117.8779,11.6765 117.7609,12.0725 117.7609,12.6235" id="Fill-22" fill="#4EBA6F"></path>
            <path d="M126.8801,12.6235 L126.8801,13.8035 L131.8271,13.8035 L131.8271,15.9695 L126.8801,15.9695 L126.8801,17.1475 C126.8801,17.6995 127.0001,18.0995 127.2401,18.3455 C127.4831,18.5925 127.8771,18.7155 128.4301,18.7155 L132.7271,18.7155 L132.7271,21.0035 L128.4121,21.0035 C127.2021,21.0035 126.2581,20.6575 125.5771,19.9655 C124.8981,19.2725 124.5571,18.3215 124.5571,17.1125 L124.5571,12.6765 C124.5571,11.4555 124.8951,10.5025 125.5681,9.8155 C126.2431,9.1295 127.1921,8.7855 128.4121,8.7855 L132.7271,8.7855 L132.7271,11.0745 L128.4301,11.0745 C127.8771,11.0745 127.4831,11.1945 127.2401,11.4355 C127.0001,11.6765 126.8801,12.0725 126.8801,12.6235" id="Fill-24" fill="#4EBA6F"></path>
            <path d="M139.0627,8.4692 C140.3657,8.4692 141.4517,8.8102 142.3197,9.4902 C143.2707,10.2302 143.7467,11.2272 143.7467,12.4832 L141.4217,12.4832 C141.4217,11.8722 141.1687,11.4042 140.6657,11.0742 C140.2437,10.7822 139.7087,10.6342 139.0627,10.6342 C138.4877,10.6342 137.9827,10.7292 137.5487,10.9162 C136.9727,11.1622 136.6857,11.5382 136.6857,12.0422 C136.6857,12.5122 137.0397,12.8882 137.7437,13.1692 C138.0367,13.2762 138.5827,13.4102 139.3787,13.5742 C141.0107,13.9032 142.1627,14.2962 142.8317,14.7542 C143.6867,15.3412 144.1157,16.2152 144.1157,17.3772 C144.1157,18.6802 143.5767,19.6712 142.4967,20.3522 C141.5917,20.9272 140.4477,21.2152 139.0627,21.2152 C137.6777,21.2152 136.5217,20.8572 135.5937,20.1412 C134.5737,19.3662 134.0627,18.3042 134.0627,16.9542 L136.3867,16.9542 C136.3867,17.6232 136.6737,18.1572 137.2507,18.5572 C137.7657,18.9082 138.3707,19.0842 139.0627,19.0842 C139.7317,19.0842 140.3127,18.9732 140.8057,18.7502 C141.4617,18.4692 141.7917,18.0342 141.7917,17.4482 C141.7917,16.9312 141.4167,16.5202 140.6657,16.2152 C140.3127,16.0742 139.7257,15.9222 138.9047,15.7572 C137.4977,15.4762 136.4587,15.1232 135.7897,14.7012 C134.8377,14.0912 134.3617,13.1982 134.3617,12.0262 C134.3617,10.8402 134.8737,9.9242 135.8937,9.2792 C136.7497,8.7392 137.8067,8.4692 139.0627,8.4692" id="Fill-26" fill="#4EBA6F"></path>
            <g id="Group" transform="translate(148.000000, 0.000000)">
                <g id="Group-30" transform="translate(0.000000, 4.000000)">
                    <mask id="mask-4" fill="white">
                        <use xlink:href="#path-3"></use>
                    </mask>
                    <g id="Clip-29"></g>
                    <path d="M9.3908,15.1621 L9.3908,11.1111 C9.3908,9.6001 8.5788,8.1931 7.2688,7.4361 L2.5478,4.7121 L2.5478,8.7621 C2.5478,10.2711 3.3618,11.6811 4.6698,12.4351 L9.3908,15.1621 Z M11.6068,11.1111 L11.6068,19.0001 L3.5628,14.3541 C2.5808,13.7901 1.7638,12.9721 1.1988,11.9901 C0.6318,11.0111 0.3318,9.8921 0.3318,8.7621 L0.3318,0.8731 L8.3768,5.5171 C9.3578,6.0831 10.1748,6.9021 10.7428,7.8831 C11.3078,8.8631 11.6068,9.9791 11.6068,11.1111 L11.6068,11.1111 Z" id="Fill-28" fill="#4EBA6F" mask="url(#mask-4)"></path>
                </g>
                <g id="Group-33" transform="translate(0.000000, 4.000000)">
                    <mask id="mask-6" fill="white">
                        <use xlink:href="#path-5"></use>
                    </mask>
                    <g id="Clip-32"></g>
                    <path d="M2.548,4.712 L7.269,7.437 C8.577,8.193 9.391,9.6 9.391,11.112 L9.391,11.112 L9.391,11.892 L11.607,11.892 L11.608,11.891 L11.608,11.112 C11.608,9.98 11.308,8.862 10.741,7.881 L10.741,7.881 C10.175,6.902 9.359,6.084 8.377,5.518 L8.377,5.518 L0.333,0.874 L2.548,4.712 Z" id="Fill-31" fill="url(#linearGradient-7)" mask="url(#mask-6)"></path>
                </g>
                <g id="Group-36" transform="translate(9.000000, 0.000000)">
                    <mask id="mask-9" fill="white">
                        <use xlink:href="#path-8"></use>
                    </mask>
                    <g id="Clip-35"></g>
                    <path d="M7.341,11.9409 C8.651,11.1849 9.463,9.7769 9.463,8.2649 L9.463,4.2159 L4.742,6.9419 C3.434,7.6969 2.62,9.1059 2.62,10.6169 L2.62,14.6669 L7.341,11.9409 Z M1.27,7.3869 C1.836,6.4059 2.654,5.5879 3.634,5.0219 L11.679,0.3779 L11.679,8.2649 C11.679,9.3979 11.38,10.5149 10.815,11.4959 C10.247,12.4759 9.43,13.2939 8.449,13.8599 L0.404,18.5039 L0.404,10.6169 C0.404,9.4849 0.703,8.3679 1.27,7.3869 L1.27,7.3869 Z" id="Fill-34" fill="#4EBA6F" mask="url(#mask-9)"></path>
                </g>
                <g id="Group-39" transform="translate(11.000000, 0.000000)">
                    <mask id="mask-11" fill="white">
                        <use xlink:href="#path-10"></use>
                    </mask>
                    <g id="Clip-38"></g>
                    <path d="M1.634,5.022 C1.365,5.179 0.93,8.178 0.729,9.664 L0.729,9.664 C0.992,8.531 1.715,7.535 2.743,6.942 L2.743,6.942 L7.463,4.216 L7.463,8.265 C7.463,9.777 6.65,11.185 5.341,11.941 L5.341,11.941 L0.623,14.665 L0.623,17.223 L6.45,13.861 C7.43,13.294 8.247,12.476 8.815,11.496 L8.815,11.496 C9.38,10.515 9.679,9.398 9.679,8.265 L9.679,8.265 L9.679,0.378 L1.634,5.022 Z M0.623,10.46 L0.623,10.478 C0.629,10.428 0.669,10.116 0.729,9.664 L0.729,9.664 C0.669,9.923 0.633,10.189 0.623,10.46 L0.623,10.46 Z" id="Fill-37" fill="url(#linearGradient-12)" mask="url(#mask-11)"></path>
                </g>
            </g>
        </g>
    </g>
</svg>