<?xml version="1.0" encoding="UTF-8"?>
<svg width="14px" height="27px" viewBox="0 0 14 27" version="1.1" xmlns="http://www.w3.org/2000/svg" xmlns:xlink="http://www.w3.org/1999/xlink">
    <!-- Generator: Sketch 56.3 (81716) - https://sketch.com -->
    <title>Group 25</title>
    <desc>Created with Sketch.</desc>
    <defs>
        <polygon id="path-1" points="8.35275247e-05 0.823 13.300936 0.823 13.300936 13.9573007 8.35275247e-05 13.9573007"></polygon>
        <polygon id="path-3" points="0.4419 0.823 7.5879 0.823 7.5879 5.5124 0.4419 5.5124"></polygon>
    </defs>
    <g id="Page-1" stroke="none" stroke-width="1" fill="none" fill-rule="evenodd">
        <g id="Group-25" transform="translate(0.000000, -1.000000)">
            <polygon id="Fill-1" fill="#448E41" points="5.4729 22.0501 4.8449 22.2441 0.2929 23.6561 0.2879 24.6001 1.5259 25.2201 4.2979 26.6051 5.4389 27.1771 5.4399 27.1771 5.4419 27.1761 5.4479 27.1751 5.4489 27.1741 6.6539 26.5701 9.3519 25.2231 10.5909 24.6001 10.5959 23.6201 8.4349 22.9521 5.4399 22.0241"></polygon>
            <polygon id="Fill-2" fill="#3B7739" points="5.4423 22.9519 5.4423 27.1769 5.4473 27.1749 6.6533 26.5699 9.3513 25.2229 10.5913 24.5999 10.5953 23.6199 8.4343 22.9519"></polygon>
            <polygon id="Fill-3" fill="#5A9F52" points="4.8447 22.2445 0.2927 23.6555 0.2857 24.5995 1.5267 25.2195 4.2977 26.6055 5.4387 27.1775 5.4397 27.1775 5.4427 27.1765 5.4477 27.1745 5.4487 27.1735 5.4487 22.2445"></polygon>
            <polygon id="Fill-4" fill="#448E41" points="2.9925 22.3003 0.2875 23.6533 1.5265 24.2713 4.2975 25.6573 5.4395 26.2283 5.4475 26.2253 6.6535 25.6213 9.3515 24.2723 10.5915 23.6533 8.8615 22.7873 6.2495 21.4813 5.4395 21.0763"></polygon>
            <polygon id="Fill-5" fill="#6A381D" points="10.8369 11.3052 10.3809 14.3782 6.9829 16.6562 6.9409 16.8522 6.9289 16.9132 6.4729 19.0092 6.8639 23.5612 6.8689 23.6252 5.4539 24.3322 5.4289 24.3462 5.4279 24.3462 4.2419 23.7522 4.2469 23.6872 4.5749 19.0842 3.3529 17.2022 3.3169 17.1522 2.1079 15.2892 2.6779 11.3052 3.5049 11.3662 4.2329 11.4182 3.7399 14.9092 4.8749 16.3362 4.8959 16.3642 4.9169 16.3912 4.9279 16.3462 6.2639 11.3442 7.2489 11.4072 7.4099 11.4162 8.0659 11.4572 7.3799 14.2952 7.2859 14.6902 7.2849 14.6912 7.2839 14.6982 7.2689 14.7592 7.2739 14.7572 8.8059 13.8862 9.3259 11.1422 10.1909 11.2352"></polygon>
            <polygon id="Fill-6" fill="#7B492D" points="7.248 11.4068 6.07 16.4178 6.056 16.4778 5.482 18.9148 5.454 24.2638 5.454 24.3338 5.43 24.3448 5.429 24.3448 4.241 23.7538 4.246 23.6858 4.575 19.0858 3.352 17.2038 3.318 17.1518 2.108 15.2908 2.678 11.3038 3.506 11.3658 2.981 15.0998 4.064 16.7788 4.099 16.8318 4.498 17.4538 4.831 16.4658 4.859 16.3808 4.874 16.3378 4.895 16.3638 4.916 16.3898 4.929 16.3448 6.264 11.3448"></polygon>
            <polygon id="Fill-7" fill="#7B492D" points="10.1904 11.2349 9.6024 14.0769 7.1174 15.6889 7.2734 14.7559 8.8054 13.8849 9.3264 11.1409"></polygon>
            <g id="Group-24" transform="translate(0.000000, 0.177400)">
                <g id="Group-10">
                    <mask id="mask-2" fill="white">
                        <use xlink:href="#path-1"></use>
                    </mask>
                    <g id="Clip-9"></g>
                    <path d="M13.2695,7.5668 L12.5535,10.2958 C12.5345,10.3718 12.5035,10.4448 12.4645,10.5128 C12.4595,10.5238 12.4535,10.5338 12.4475,10.5438 C12.3625,10.6878 12.2395,10.8078 12.0905,10.8888 L6.6925,13.8398 C6.5575,13.9158 6.4095,13.9538 6.2605,13.9568 C6.0785,13.9628 5.8955,13.9148 5.7355,13.8168 L0.4505,10.5458 C0.3465,10.4808 0.2565,10.3968 0.1855,10.2988 C0.1785,10.2898 0.1715,10.2798 0.1665,10.2698 C0.0535,10.1078 -0.0055,9.9088 0.0005,9.7048 L0.1745,4.4748 C0.1785,4.3368 0.2135,4.2018 0.2745,4.0808 C0.2785,4.0728 0.2835,4.0638 0.2885,4.0558 C0.3755,3.8908 0.5145,3.7518 0.6865,3.6618 L5.9555,0.9298 C6.0785,0.8648 6.2105,0.8308 6.3465,0.8238 C6.3655,0.8228 6.3825,0.8228 6.4005,0.8228 C6.4925,0.8238 6.5835,0.8378 6.6745,0.8648 L11.2785,2.2928 C11.3805,2.3248 11.4755,2.3728 11.5585,2.4348 C11.5685,2.4418 11.5795,2.4488 11.5885,2.4568 C11.7315,2.5698 11.8425,2.7258 11.8995,2.9048 L13.2535,7.0298 C13.3105,7.2028 13.3165,7.3888 13.2695,7.5668" id="Fill-8" fill="#319545" mask="url(#mask-2)"></path>
                </g>
                <path d="M6.4004,0.823079172 L4.4424,5.5121 L0.2744,4.0811 C0.3624,3.9051 0.5054,3.7571 0.6864,3.6621 L5.9554,0.9301 C6.0944,0.8571 6.2464,0.8221 6.4004,0.823079172" id="Fill-11" fill="#78C26D"></path>
                <path d="M4.4424,5.5121 L2.6604,9.9681 L0.1854,10.3001 C0.0614,10.1311 -0.0056,9.9221 0.0014,9.7041 L0.1744,4.4751 C0.1784,4.3361 0.2134,4.2011 0.2744,4.0801 C0.2784,4.0731 0.2834,4.0641 0.2884,4.0561 L4.4424,5.5121 Z" id="Fill-13" fill="#57B950"></path>
                <g id="Group-17" transform="translate(4.000000, 0.000000)">
                    <mask id="mask-4" fill="white">
                        <use xlink:href="#path-3"></use>
                    </mask>
                    <g id="Clip-16"></g>
                    <path d="M7.5879,2.4564 L4.2359,5.3414 L0.4419,5.5124 L2.3469,0.8234 C2.3649,0.8224 2.3829,0.8224 2.4009,0.8224 C2.4919,0.8234 2.5849,0.8374 2.6749,0.8644 L7.2779,2.2924 C7.3929,2.3274 7.4969,2.3834 7.5879,2.4564" id="Fill-15" fill="#308E43" mask="url(#mask-4)"></path>
                </g>
                <path d="M13.2695,7.5668 L12.5535,10.2958 C12.5305,10.3828 12.4945,10.4668 12.4475,10.5438 L8.4265,9.2698 L8.2365,5.3408 L11.5585,2.4348 C11.5685,2.4418 11.5795,2.4488 11.5885,2.4568 C11.7315,2.5698 11.8425,2.7258 11.8995,2.9048 L13.2535,7.0298 C13.3105,7.2028 13.3165,7.3888 13.2695,7.5668" id="Fill-18" fill="#2A743A"></path>
                <path d="M8.4268,9.2694 L6.2598,13.9564 C6.0768,13.9614 5.8958,13.9154 5.7358,13.8164 L0.4508,10.5444 C0.3458,10.4804 0.2568,10.3964 0.1858,10.2984 C0.1788,10.2904 0.1718,10.2804 0.1668,10.2694 L8.4268,9.2694 Z" id="Fill-20" fill="#2A743A"></path>
                <path d="M12.4648,10.5135 C12.4608,10.5235 12.4538,10.5345 12.4468,10.5425 C12.3608,10.6875 12.2378,10.8075 12.0898,10.8895 L6.6928,13.8405 C6.5578,13.9145 6.4098,13.9525 6.2598,13.9555 L8.4268,9.2695 L12.4648,10.5135 Z" id="Fill-22" fill="#20592C"></path>
            </g>
        </g>
    </g>
</svg>